<svg id="Layer_1" data-name="Layer 1" xmlns="http://www.w3.org/2000/svg" viewBox="0 0 595.83 144.8"><title>bonnier</title><g id="Page-1"><g id="bonnier_publications" data-name="bonnier publications"><path id="Shape" d="M535.4,19.8h20c9.8,0,15.8,4.5,15.8,13.1v.3c0,7.7-5.6,13-15.4,13H535.4l35.8,47.1h24L570.9,61.4c12.2-4.3,20.6-14.1,20.6-29.2v-.3c0-8.6-2.7-15.8-7.8-20.9-6-6-15-9.3-26.6-9.3H515.3V93.3h20.1ZM355,1.6V58L312.2,1.6H284.4l9.3,12.2V93.2h19.8v-57l43.3,57h18.1V1.6Zm-100.7,0V58L211.5,1.6H183.7L193,13.8V93.2h19.8v-57l43.3,57h18.1V1.6Zm179.1,0h68.9V19.5h-49V38.1h43.1V56H453.3V75.2H503V93.1H433.4Zm-39.6,0h20.1V93.2H393.8ZM161,47.7v-.3c0-15.7-11.5-28.8-27.7-28.8s-27.4,12.8-27.4,28.5v.3c0,15.7,11.5,28.8,27.7,28.8S161,63.4,161,47.7Zm-76.1,0v-.3C84.9,21.3,105.4,0,133.6,0S182,21.1,182,47.1v.3c0,26.1-20.5,47.4-48.7,47.4S84.9,73.8,84.9,47.7ZM43.5,75.6c8.9,0,14.2-3.1,14.2-9.9v-.3c0-6.2-4.6-9.9-14.9-9.9H19.6V75.7H43.5ZM38.1,38.7c8.9,0,14.5-2.9,14.5-9.7v-.3c0-6-4.7-9.4-13.2-9.4H19.6V38.7ZM0,1.6H42.4c10.4,0,18.7,2.9,23.9,8.1a21,21,0,0,1,6.3,15.6v.3c0,10.3-5.5,16.1-12,19.8,10.6,4.1,17.1,10.2,17.1,22.5v.3c0,16.8-13.6,25.1-34.2,25.1H0Z"/><g id="Group"><path d="M25.8,118.6a9.74,9.74,0,0,1-1,4.6,9.87,9.87,0,0,1-2.8,3.3,11.78,11.78,0,0,1-3.9,1.9,16.31,16.31,0,0,1-4.5.6H9.9v10.1a3.19,3.19,0,0,0,.3,1.4,2,2,0,0,0,1.1.9,9.59,9.59,0,0,0,1.5.3c.7.1,1.4.1,2,.2v1.7H.3V142a13.7,13.7,0,0,0,1.6-.2,9.59,9.59,0,0,0,1.5-.3,1.79,1.79,0,0,0,1-.9,3.34,3.34,0,0,0,.3-1.5v-24a7.72,7.72,0,0,0-.2-1.5c-.1-.5-.5-.8-1.1-1a11.63,11.63,0,0,0-1.8-.4c-.6-.1-1.1-.1-1.5-.2v-1.7H15.3a11.74,11.74,0,0,1,7.5,2.2A7.58,7.58,0,0,1,25.8,118.6Zm-7.2,5.7a8,8,0,0,0,1.1-2.3,8.92,8.92,0,0,0,.3-2.2,12.41,12.41,0,0,0-.3-2.7,6.59,6.59,0,0,0-1.1-2.4,5.43,5.43,0,0,0-2.2-1.7,8.11,8.11,0,0,0-3.3-.6H9.8V127h2.4a9.32,9.32,0,0,0,4.1-.8A5.49,5.49,0,0,0,18.6,124.3Z"/><path d="M53.8,143.2l-7.5.5-.4-.3v-2.9h-.1l-1.3,1.3c-.5.4-1,.8-1.6,1.2s-1.4.7-2,1a10.36,10.36,0,0,1-2.8.3,5.9,5.9,0,0,1-4.7-2c-1.1-1.3-1.6-3.3-1.6-5.8V125.4a2.9,2.9,0,0,0-.3-1.4,2.6,2.6,0,0,0-2-1.4c-.5-.1-.9-.1-1.3-.2v-1.5l7.7-.6.4.3v16.1a5.93,5.93,0,0,0,1.1,3.8,3.23,3.23,0,0,0,2.7,1.3,5.56,5.56,0,0,0,2.3-.4,13.13,13.13,0,0,0,1.7-.9,11,11,0,0,0,1.1-1,4.62,4.62,0,0,0,.7-1V125.4a3.19,3.19,0,0,0-.3-1.4,2.84,2.84,0,0,0-.9-1,2.27,2.27,0,0,0-1.3-.3c-.6,0-1.2-.1-1.9-.1v-1.5l8.4-.6.4.3v18.3a3.19,3.19,0,0,0,.3,1.4,2.84,2.84,0,0,0,.9,1,1.69,1.69,0,0,0,1,.3c.4,0,.8.1,1.3.1Z"/><path d="M78.7,132.1a12.08,12.08,0,0,1-3.3,8.7,10.24,10.24,0,0,1-7.6,3.5,11.48,11.48,0,0,1-3.7-.6,15.76,15.76,0,0,1-3.5-1.6l-1.7,2.7-1.5-.3c.1-1.2.1-2.5.2-4.2s0-3.2,0-4.7V112.7a3.17,3.17,0,0,0-.4-1.6,3.78,3.78,0,0,0-.9-1.2,3.71,3.71,0,0,0-1.5-.5,14.93,14.93,0,0,0-1.7-.2v-1.5l8.5-.5.3.4V123h.2a10,10,0,0,1,3.2-2.3,8.63,8.63,0,0,1,10.5,2.6A13.32,13.32,0,0,1,78.7,132.1Zm-4.9.1a13.93,13.93,0,0,0-.4-3.5,9.55,9.55,0,0,0-1.2-3.1,6.3,6.3,0,0,0-2.1-2.2,5.33,5.33,0,0,0-3.1-.8,6.53,6.53,0,0,0-2.9.6,7.23,7.23,0,0,0-2.2,1.7v13.5a6.89,6.89,0,0,0,1.7,2.7,9.06,9.06,0,0,0,1.6,1.1,4.81,4.81,0,0,0,2.2.4,5.23,5.23,0,0,0,4.6-2.8A14,14,0,0,0,73.8,132.2Z"/><path d="M91.4,143.7H80.1v-1.5c.4,0,.7-.1,1.1-.1a3,3,0,0,0,1-.2,1.83,1.83,0,0,0,1-.7,2.9,2.9,0,0,0,.3-1.4V113a2.93,2.93,0,0,0-.4-1.6,3.78,3.78,0,0,0-.9-1.2,3.71,3.71,0,0,0-1.5-.5c-.7-.1-1.4-.2-1.8-.3v-1.5l8.7-.5.3.4v31.7a2.5,2.5,0,0,0,.3,1.3,2.09,2.09,0,0,0,1,.8,4.18,4.18,0,0,0,1,.4c.3.1.7.1,1.1.2v1.5Z"/><path d="M105.2,143.7H94v-1.5c.4,0,.7-.1,1.1-.1a3,3,0,0,0,1-.2,1.83,1.83,0,0,0,1-.7,2.9,2.9,0,0,0,.3-1.4V125.5a3.19,3.19,0,0,0-.3-1.4,2.19,2.19,0,0,0-.9-1,5.89,5.89,0,0,0-1.3-.5,4.42,4.42,0,0,0-1.5-.2v-1.5l8.2-.5.3.3v18.8a3.19,3.19,0,0,0,.3,1.4,1.65,1.65,0,0,0,1,.8,3.81,3.81,0,0,0,1,.3,5.16,5.16,0,0,1,1.1.2v1.5Zm-3-32.5a3.17,3.17,0,0,1-.9,2.3,3,3,0,0,1-2.2,1,2.88,2.88,0,0,1-2.1-.9,3.1,3.1,0,0,1-.9-2.2,2.94,2.94,0,0,1,.9-2.2,3,3,0,0,1,2.1-1,2.94,2.94,0,0,1,2.2.9A2.88,2.88,0,0,1,102.2,111.2Z"/><path d="M117.4,144.3a10,10,0,0,1-7.9-3.3c-1.9-2.2-2.8-5.2-2.8-8.9a14.35,14.35,0,0,1,.8-4.6,11.58,11.58,0,0,1,2.2-3.9,10.58,10.58,0,0,1,3.5-2.7,9.88,9.88,0,0,1,4.5-1,8.57,8.57,0,0,1,5.5,1.6,5.36,5.36,0,0,1,2.1,4.4,3.7,3.7,0,0,1-.6,2.1,2.08,2.08,0,0,1-1.9.9,2.82,2.82,0,0,1-2.1-.7,2.25,2.25,0,0,1-.8-1.6,8.92,8.92,0,0,1,.3-2.2,6.93,6.93,0,0,0,.3-1.6,2.21,2.21,0,0,0-1.3-1,5.24,5.24,0,0,0-1.8-.2,5,5,0,0,0-2.1.5,5.43,5.43,0,0,0-2,1.8,9.58,9.58,0,0,0-1.4,3.2,16.84,16.84,0,0,0-.5,4.8,11.92,11.92,0,0,0,1.9,7.1,6.11,6.11,0,0,0,5.1,2.8,6.56,6.56,0,0,0,3.8-1.1,9.38,9.38,0,0,0,2.8-3.3l1.5,1a12.37,12.37,0,0,1-4.1,4.4A8.59,8.59,0,0,1,117.4,144.3Z"/><path d="M150.6,143.2a9.73,9.73,0,0,1-3.8.8,4.37,4.37,0,0,1-2.9-.9,4.14,4.14,0,0,1-1.4-2.5h-.1a11.48,11.48,0,0,1-3.3,2.6,9.28,9.28,0,0,1-4.2.9,5.89,5.89,0,0,1-4.3-1.6,5.73,5.73,0,0,1-1.7-4.2,6.05,6.05,0,0,1,.4-2.4,7.24,7.24,0,0,1,1.1-1.9,6.39,6.39,0,0,1,1.5-1.3,7.57,7.57,0,0,1,1.8-.9c.7-.3,2.1-.8,4.3-1.5a24.65,24.65,0,0,0,4.3-1.7v-2.3a6.82,6.82,0,0,0-.1-1.2,4.42,4.42,0,0,0-.6-1.6,4.71,4.71,0,0,0-1.3-1.5,4,4,0,0,0-2.4-.6,4.48,4.48,0,0,0-2,.4,3.64,3.64,0,0,0-1.3.8,11.48,11.48,0,0,0,.2,1.4,11.14,11.14,0,0,1,.2,1.7,2.08,2.08,0,0,1-.7,1.5,2.82,2.82,0,0,1-2.1.7,1.88,1.88,0,0,1-1.7-.8,3.88,3.88,0,0,1-.6-1.9,3.68,3.68,0,0,1,.8-2.1,8.81,8.81,0,0,1,2-1.8,12.7,12.7,0,0,1,2.6-1.1,10.4,10.4,0,0,1,2.9-.5,16.5,16.5,0,0,1,3.4.3,7.24,7.24,0,0,1,2.7,1.2,5.46,5.46,0,0,1,1.8,2.4,10.44,10.44,0,0,1,.6,3.8c0,2.2,0,4.2-.1,5.9s-.1,3.6-.1,5.7a3.34,3.34,0,0,0,.3,1.5,1.79,1.79,0,0,0,1,.9,2.68,2.68,0,0,0,1.1.2h1.6v1.6Zm-8.2-12.3c-1.3.4-2.5.8-3.5,1.2a14.65,14.65,0,0,0-2.8,1.4,6.87,6.87,0,0,0-1.9,1.9,4.41,4.41,0,0,0-.7,2.6,3.66,3.66,0,0,0,1,2.9,3.74,3.74,0,0,0,2.6.9,5.47,5.47,0,0,0,2.9-.8,7.71,7.71,0,0,0,2.1-1.9Z"/><path d="M165.6,142.7c-1,.4-2,.8-2.9,1.1a10.64,10.64,0,0,1-3.3.4c-1.9,0-3.3-.5-4.1-1.5a6.45,6.45,0,0,1-1.2-4.1V122.9h-4.2v-2.2h4.3v-7.2h4.3v7.2h6.6v2.2h-6.6v12.9a16.27,16.27,0,0,0,.1,2.4,4.8,4.8,0,0,0,.5,1.7,1.82,1.82,0,0,0,1.1,1,5.44,5.44,0,0,0,2,.4,13.16,13.16,0,0,0,3.3-.4v1.8Z"/><path d="M179.3,143.7H168.1v-1.5c.4,0,.7-.1,1.1-.1a3,3,0,0,0,1-.2,1.83,1.83,0,0,0,1-.7,2.9,2.9,0,0,0,.3-1.4V125.5a3.19,3.19,0,0,0-.3-1.4,2.19,2.19,0,0,0-.9-1,5.89,5.89,0,0,0-1.3-.5,4.42,4.42,0,0,0-1.5-.2v-1.5l8.2-.5.3.3v18.8a3.19,3.19,0,0,0,.3,1.4,1.65,1.65,0,0,0,1,.8,3.81,3.81,0,0,0,1,.3,5.16,5.16,0,0,1,1.1.2v1.5Zm-3-32.5a3.17,3.17,0,0,1-.9,2.3,3,3,0,0,1-2.2,1,2.88,2.88,0,0,1-2.1-.9,3.1,3.1,0,0,1-.9-2.2,2.94,2.94,0,0,1,.9-2.2,3,3,0,0,1,2.1-1,2.94,2.94,0,0,1,2.2.9A2.88,2.88,0,0,1,176.3,111.2Z"/><path d="M203.2,131.9a16.09,16.09,0,0,1-.8,4.8,11.84,11.84,0,0,1-2.2,4,10.45,10.45,0,0,1-3.8,2.8,12.09,12.09,0,0,1-4.8.9,11.62,11.62,0,0,1-4.2-.8,12.11,12.11,0,0,1-3.5-2.4,11.23,11.23,0,0,1-2.4-3.8,13.64,13.64,0,0,1-.9-5.1,12.78,12.78,0,0,1,3.2-8.9,11.59,11.59,0,0,1,16.3-.1C202.2,125.3,203.2,128.2,203.2,131.9Zm-4.8,0a16.1,16.1,0,0,0-.4-3.7,9.85,9.85,0,0,0-1.1-3.3,6.42,6.42,0,0,0-2-2.3,4.86,4.86,0,0,0-3-.9,5.38,5.38,0,0,0-3.1.9,7,7,0,0,0-2.1,2.4,10.68,10.68,0,0,0-1.1,3.3,22.56,22.56,0,0,0-.3,3.5,18.72,18.72,0,0,0,.4,4.2,9.16,9.16,0,0,0,1.2,3.4,8,8,0,0,0,2,2.4,4.86,4.86,0,0,0,3,.9,5,5,0,0,0,4.6-2.8A16.27,16.27,0,0,0,198.4,131.9Z"/><path d="M230.6,143.7H219.3v-1.5c.4,0,.8-.1,1.2-.1a3.59,3.59,0,0,0,1.1-.2,1.83,1.83,0,0,0,1-.7,2.65,2.65,0,0,0,.3-1.4V127.9a5.59,5.59,0,0,0-1.2-3.8,3.54,3.54,0,0,0-2.8-1.3,5.87,5.87,0,0,0-2.3.4,15,15,0,0,0-1.8.9,4.56,4.56,0,0,0-1.2,1.2c-.3.5-.5.7-.7,1v13.3a2.5,2.5,0,0,0,.3,1.3,2.09,2.09,0,0,0,1,.8,3.58,3.58,0,0,0,1.1.4c.4.1.8.1,1.2.2v1.5H205.2v-1.5c.4,0,.7-.1,1.1-.1a3,3,0,0,0,1-.2,1.83,1.83,0,0,0,1-.7,2.9,2.9,0,0,0,.3-1.4V125.6a4,4,0,0,0-.3-1.5,2.44,2.44,0,0,0-.9-1.1,2.82,2.82,0,0,0-1.1-.4c-.5-.1-.8-.1-1.3-.2v-1.5l7.7-.5.3.3V124h.1c.4-.4.8-.8,1.4-1.3s1.1-.9,1.6-1.3a6.67,6.67,0,0,1,2.1-.9,11,11,0,0,1,2.7-.4,5.69,5.69,0,0,1,4.9,2.1,9.2,9.2,0,0,1,1.6,5.5v12a2.5,2.5,0,0,0,.3,1.3,2.09,2.09,0,0,0,1,.8,2.24,2.24,0,0,0,1,.3c.3,0,.7.1,1.1.1v1.5Z"/><path d="M248.4,132.3a9,9,0,0,1,1.5,1.9,5.44,5.44,0,0,1,.5,2.7,6.45,6.45,0,0,1-2.4,5.2,9.61,9.61,0,0,1-6.2,2,9,9,0,0,1-3.7-.7,12.28,12.28,0,0,1-2.4-1.3l-.5,1.5h-1.8l-.2-8h1.6a8,8,0,0,0,.8,2.1,8.55,8.55,0,0,0,1.5,2.2,6.2,6.2,0,0,0,2.2,1.7,5.66,5.66,0,0,0,2.9.7,5.22,5.22,0,0,0,3.5-1,3.7,3.7,0,0,0,1.2-2.9,3.06,3.06,0,0,0-.4-1.7,4.49,4.49,0,0,0-1.1-1.3,6.74,6.74,0,0,0-1.9-1c-.8-.3-1.6-.6-2.5-.9a14.39,14.39,0,0,1-2.4-.9,12.56,12.56,0,0,1-2.3-1.3,6.68,6.68,0,0,1-1.7-2,5.07,5.07,0,0,1-.7-2.8,6.29,6.29,0,0,1,2.1-4.8,8,8,0,0,1,5.6-2,9.47,9.47,0,0,1,2.8.4,14.86,14.86,0,0,1,2.3.8l.5-1.2h1.7l.4,7.4h-1.6a7.36,7.36,0,0,0-2.1-4.1,5.35,5.35,0,0,0-4-1.6,4,4,0,0,0-3,1,3.15,3.15,0,0,0-1.1,2.3,3.42,3.42,0,0,0,.4,1.8,3.18,3.18,0,0,0,1.1,1.2,15,15,0,0,0,1.8.9,25.58,25.58,0,0,0,2.6.9,24.88,24.88,0,0,1,2.9,1.1A9.16,9.16,0,0,1,248.4,132.3Z"/></g></g></g></svg>