<svg id="Layer_1" data-name="Layer 1" xmlns="http://www.w3.org/2000/svg" viewBox="0 0 612.71 134.28"><title>broen</title><path d="M157.71,110.5a8.49,8.49,0,0,1,.9,3.8c0,3.6-2.6,6.5-5.8,6.5a5.88,5.88,0,0,1-3.2-1.1Zm-13.4,15.2,2.1-2.3a10.42,10.42,0,0,0,6.5,2.2,10.19,10.19,0,0,0,7.8-3.5,11.68,11.68,0,0,0,3-7.8,11.49,11.49,0,0,0-2.7-7.7l3.1-3.6h-3.5l-1.5,1.7a10.28,10.28,0,0,0-6.3-2,10.86,10.86,0,0,0-8.4,4.1,12.23,12.23,0,0,0-2.5,7.4,10.61,10.61,0,0,0,2.6,7.2l-3.6,4.2h3.4Zm3.6-8.1a7.08,7.08,0,0,1-.8-3.6c0-3.7,2.6-6.5,5.8-6.5a4.92,4.92,0,0,1,3,1Z"/><path d="M192.21,107.3c2.8,0,4.2.8,4.2,2.9,0,1.9-1.4,3-4,3h-1.1v-5.9Zm-5.8,17.6h5v-8.4h.7l5.7,8.4h5.8l-6.5-9.2a6.22,6.22,0,0,0,4-5.9,6.07,6.07,0,0,0-2.5-4.8c-1.8-1.3-4-1.5-6.7-1.5h-5.5Z"/><path d="M224.81,103.4h13.1v4.4h-8.2v3.9h7.1v4.4h-7.1v4.3h8.4v4.5h-13.3Z"/><path d="M266.41,121c1.8,0,2.9-.9,2.9-2.1,0-1.5-1.4-2.1-3.6-3.4l-1.5-.8c-2.8-1.6-4.2-3.6-4.2-6.1,0-3.4,2.8-5.9,7-5.9a16.73,16.73,0,0,1,5.4,1.1v5a11.32,11.32,0,0,0-5.3-2c-1.5,0-2.3.7-2.3,1.7a2.28,2.28,0,0,0,1.5,1.9l2.5,1.4c3.1,1.7,5.3,3.3,5.3,6.7,0,4-2.9,7-7.8,7a22.09,22.09,0,0,1-5.7-1l-.4-5.7C262.61,120.2,264.41,121,266.41,121Z"/><path d="M302.21,115.2q0,5.7,4.2,5.7c2.7,0,4.2-1.7,4.2-5.2V103.4h4.6v12.3c0,6.4-3.5,9.8-9,9.8s-9-3.4-9-9.8V103.4h5v11.8Z"/><path d="M339.31,102.7h.5l13.3,12.5V103.4h4.7v22.3h-.5l-13.4-12.5v11.7h-4.7V102.7Z"/><path d="M387.11,120.3V108h1.1c4.6,0,7.1,2.4,7.1,6.2s-2.5,6.1-7.1,6.1Zm-5,4.6h5.7a14.29,14.29,0,0,0,7.5-1.6,10,10,0,0,0,5.3-9.1c0-6.4-4.5-10.7-12.8-10.7h-5.7Z"/><path d="M428.61,121c1.8,0,2.9-.9,2.9-2.1,0-1.5-1.4-2.1-3.6-3.4l-1.5-.8c-2.8-1.6-4.2-3.6-4.2-6.1,0-3.4,2.8-5.9,7-5.9a16.73,16.73,0,0,1,5.4,1.1v5a11.32,11.32,0,0,0-5.3-2c-1.5,0-2.3.7-2.3,1.7a2.28,2.28,0,0,0,1.5,1.9l2.5,1.4c3.1,1.7,5.3,3.3,5.3,6.7,0,4-2.9,7-7.8,7a22.09,22.09,0,0,1-5.7-1l-.4-5.7C424.71,120.2,426.61,121,428.61,121Z"/><path d="M464.31,111.9V107h1.6c2.2,0,3.3.7,3.3,2.3s-1.2,2.5-3.2,2.5h-1.7Zm-4.7,13h5.8c6,0,9-2.2,9-6.2a5.06,5.06,0,0,0-4.2-5.2,4.66,4.66,0,0,0,3.5-4.6c0-3.5-2.5-5.4-7.6-5.4h-6.6v21.4Zm4.7-3.9v-5.5h2.1c2.1,0,3.3,1,3.3,2.7s-1.2,2.8-3.3,2.8Z"/><path d="M503.31,107.3c2.8,0,4.2.8,4.2,2.9,0,1.9-1.4,3-4,3h-1.1v-5.9Zm-5.8,17.6h5v-8.4h.7l5.7,8.4h5.8l-6.5-9.2a6.22,6.22,0,0,0,4-5.9,6.07,6.07,0,0,0-2.5-4.8c-1.8-1.3-4-1.5-6.7-1.5h-5.5v21.4Z"/><path d="M539.21,114.2c0-3.8,2.5-6.6,5.7-6.6s5.7,2.8,5.7,6.6-2.5,6.6-5.7,6.6S539.21,117.9,539.21,114.2Zm-5.2,0a11.16,11.16,0,0,0,3.2,8.1,10.72,10.72,0,0,0,16.4-1.1,11.44,11.44,0,0,0,2.2-7,11.16,11.16,0,0,0-3.2-8.1,10.87,10.87,0,0,0-15.5-.1A11.93,11.93,0,0,0,534,114.2Z"/><path d="M578.81,102.7h.5l13.3,12.5V103.4h4.7v22.3h-.5l-13.4-12.5v11.7h-4.7V102.7Z"/><path d="M145.91,14.8a.82.82,0,0,0-.4.6,461.47,461.47,0,0,0,3.6,48.7,3,3,0,0,0,2.9,2.3,2.75,2.75,0,0,0,3-2.3h0a485.82,485.82,0,0,0,3.7-48.7.55.55,0,0,0-.4-.6A14.62,14.62,0,0,0,145.91,14.8Z"/><path d="M444.41,27.8h0a483.85,483.85,0,0,0-3.7,48.7.55.55,0,0,0,.4.6,14.62,14.62,0,0,0,12.4,0,.82.82,0,0,0,.4-.6,464.05,464.05,0,0,0-3.6-48.8,3,3,0,0,0-2.9-2.3C445.21,25.6,444.51,27,444.41,27.8Z"/><path d="M256,55.4a353,353,0,0,0,34.7-14.2c8-3.7,17.1-7.8,30.5-13.2l3.6-1.4A275.54,275.54,0,0,1,415,7.6a303.7,303.7,0,0,1,96,11.9c54.7,15.6,90.7,41.3,91.1,41.5h0a2.05,2.05,0,0,1-2.3,3.4c-.4-.2-36-22.4-90.3-34.7a322.3,322.3,0,0,0-94.9-7.5A301,301,0,0,0,344.41,36a328,328,0,0,0-34.7,14.3c-6,2.8-12.2,5.6-20.3,9a300.53,300.53,0,0,1-100.7,25,321.94,321.94,0,0,1-96.2-8.2C37.51,63,1.31,40.1.91,39.8a2,2,0,0,1-.6-2.7A2,2,0,0,1,3,36.4c.4.2,36.2,19.7,90.7,29.4C131.91,72.6,191.11,76.4,256,55.4Z"/><path d="M607.61,103.6a4.16,4.16,0,0,1,3.1,1.3,4.31,4.31,0,1,1-6.1,6.1,4.23,4.23,0,0,1-1.2-3,4.77,4.77,0,0,1,1.3-3.1A3.47,3.47,0,0,1,607.61,103.6Zm0-.8a5,5,0,0,0-4.4,2.5,5.44,5.44,0,0,0-.7,2.7,5.08,5.08,0,0,0,1.5,3.6,5.19,5.19,0,0,0,3.6,1.6,5.08,5.08,0,0,0,3.6-1.5,4.75,4.75,0,0,0,1.5-3.6,4.91,4.91,0,0,0-1.5-3.6A4.31,4.31,0,0,0,607.61,102.8Zm-2.1,2.2v5.7h1.4v-2.3h.7l1.1,2.3h1.5l-1.3-2.5a1.49,1.49,0,0,0,1.2-1.5c0-1.1-.8-1.6-2.4-1.6h-2.2Zm1.4.8h.6c.8,0,1.2.3,1.2.8s-.4.8-1.2.8h-.6Z"/></svg>