<svg id="Layer_1" data-name="Layer 1" xmlns="http://www.w3.org/2000/svg" viewBox="0 0 691.24 104.32"><defs><style>.cls-1,.cls-2{fill-rule:evenodd;}.cls-2{fill:#fff;}</style></defs><title>Tegnebræt 6</title><path class="cls-1" d="M442.14,103.49h246.1V.74H442.14ZM685.58,3.38v97.47H444.79V3.39H685.58ZM.83.74H431.52V103.49H.82V.74Z"/><path class="cls-2" d="M685.58,3.38v97.48H444.8V3.38H685.58m-536,55.69c0,10.08-5.42,15.09-17.67,15.09H112.55V36.34H131.2c14.86,0,18.34,7.14,18.34,14.94v7.79Zm8-.29V52.3c0-20.67-16.41-21.48-27.48-21.48H104.6V79.75h27.64c21.69,0,25.25-11.62,25.25-21Zm43,8.91c0,2.86-.23,5.44-3.49,6.62-1.93.73-4.68,1-9.29,1s-7.35-.44-9-1.47c-1.12-.66-1.57-1.77-1.57-4.12,0-2.94.75-4.64,2.23-5.3s3.2-.8,8.84-.8H200.5v4.12ZM208,79.75V60.55a57.16,57.16,0,0,0-.3-8,6.58,6.58,0,0,0-2.6-4.42c-3.57-2.79-12.41-2.87-16.79-2.87-3.27,0-12.26.37-15.53,3.17a4,4,0,0,0-1.41,3.38c0,.88.15,2.06.23,3.6h7.27c.15-.88.3-3,1.12-3.82.95-1,2.67-1.33,7.64-1.33,5.72,0,9.74.22,11.37,1.1s1.49,2.73,1.49,4.13v3.38H183.71c-4.53,0-9.73.08-12.63,4a10.65,10.65,0,0,0-1.85,6.62c0,8.1,5.05,10.82,18,10.82,6.76,0,11.14-1,13.82-3.31l.66,2.8Zm45,0V61.06c0-6.47-.29-7.87-1.86-9.05s-4.45-1.77-9-1.77a46.78,46.78,0,0,0-12,1.55v28h-7.43V45.53h6.69L230,48a18.74,18.74,0,0,1,4.17-1.84,34,34,0,0,1,9.72-1.1,27.55,27.55,0,0,1,11.22,2,8.18,8.18,0,0,1,4.83,6,31.76,31.76,0,0,1,.52,7.21V79.75H253m55-2.06c-3.41,1.69-9,2.43-16.27,2.43A53.39,53.39,0,0,1,279.25,79c-3.5-.81-5.2-2.43-5.43-5.37a25.92,25.92,0,0,1,.23-4.79h7.13c.22,1.77.22,2.28.29,2.65.3,1.61.15,2.5,2.08,3.09a32.25,32.25,0,0,0,8.62.81c4.75,0,8-.52,10.25-1.48,1.56-.66,2.3-1.91,2.3-4.26,0-2.72-.59-3.82-3.41-4.27-.9-.14-1.79-.14-2.68-.22-.52-.07-2.15-.07-4.75-.15-1.26,0-2.67-.07-4.38-.14-7.36-.37-15.23-.66-15.23-9.27,0-7.72,4.83-10.45,18-10.45a95.28,95.28,0,0,1,9.95.52,18.39,18.39,0,0,1,6.62,1.76c1.7,1,2.29,2.5,2.29,5.23a19.91,19.91,0,0,1-.14,2.65h-7.2l-.3-1.55c-.37-1.84-.52-2.21-1.11-2.65-1-.8-4.24-1.18-8.7-1.18s-7.05.22-9.13,1-2.75,1.91-2.75,4.34a4,4,0,0,0,1.41,3.46c1.93,1.17,12.11,1,15.6,1.1a27,27,0,0,1,8.32,1.11c3.79,1.32,5.28,3.74,5.28,8.75,0,4.05-1.34,6.55-4.39,8.1m45.67,2L335.84,63.57h-2.67V79.75h-7.42V30.82h7.43V58.7h2.67l14.8-13.16h8.68L342.09,60.62l21.48,19.13h-9.88M400.4,59.3H376.55c.3-4.27,1.19-6.19,2.9-7.44S384.35,50,389,50c6.47,0,9.51,1.39,10.63,4.34a12.86,12.86,0,0,1,.74,4.93Zm6.84,9.78h-7.36c-.23,1-.37,3.68-1.33,4.64-1.12,1.1-3.35,1.62-9.37,1.62-5.86,0-9.13-.81-10.77-2.43-1.26-1.25-2-3.83-2-7.87v-.88h31c.08-1.7.14-2.14.14-3.47,0-5.66-.81-8.83-3.26-11.26-2.83-2.86-8.25-4.27-15.68-4.27-9.51,0-15.38,2.15-17.83,6.85-1.41,2.73-2.23,6.55-2.23,11.33,0,7.43,2,12.14,6.4,14.5,2.75,1.47,7.5,2.28,13.51,2.35,5.05,0,9.06-.22,13.52-1.54s5.35-3.75,5.35-5.73c0-.53,0-2.22-.15-3.84Z"/><path class="cls-1" d="M505.29,43.18c0,7.21-4.08,8.68-12.55,8.68H474V36.34h19.69c7.5,0,11.58.66,11.58,6.84ZM515.1,66c0-6-3.49-10.52-11.81-11.77v-.15c6.46-1.69,9.95-5,9.95-10.23,0-8.61-4.23-13-16.26-13H466.07V79.75h32.17c10.84,0,16.85-4.85,16.85-13.76Zm-8,.52c0,7-5,7.64-12.7,7.64H474V57.38h21.39c9.14,0,11.74,2.94,11.74,9.12Zm48.36,1.18c0,2.86-.22,5.44-3.5,6.62-1.92.73-4.67,1-9.28,1s-7.35-.44-9-1.47c-1.1-.66-1.56-1.77-1.56-4.12,0-2.94.75-4.64,2.23-5.3s3.19-.8,8.84-.8H555.5v4.12ZM563,79.75V60.55a59.12,59.12,0,0,0-.29-8,6.54,6.54,0,0,0-2.6-4.42c-3.56-2.79-12.41-2.87-16.79-2.87-3.26,0-12.25.37-15.52,3.17a4,4,0,0,0-1.41,3.38c0,.88.15,2.06.22,3.6h7.28c.15-.88.3-3,1.11-3.82,1-1,2.67-1.33,7.66-1.33,5.71,0,9.73.22,11.36,1.1s1.49,2.73,1.49,4.13v3.38H538.73c-4.53,0-9.73.08-12.63,4a10.65,10.65,0,0,0-1.85,6.62c0,8.1,5,10.82,18,10.82,6.76,0,11.15-1,13.82-3.31l.66,2.8Zm43.16,0V61.06c0-6.47-.29-7.87-1.85-9.05s-4.46-1.77-9-1.77a46.86,46.86,0,0,0-12,1.55v28h-7.42V45.53h6.68l.53,2.43a18.87,18.87,0,0,1,4.16-1.84A34.07,34.07,0,0,1,597,45a27.62,27.62,0,0,1,11.22,2,8.16,8.16,0,0,1,4.82,6,31.76,31.76,0,0,1,.52,7.21V79.75h-7.43m48.28,0L636.63,63.56H634V79.75h-7.43V30.82H634V58.7h2.68l14.78-13.16h8.69L642.87,60.62l21.47,19.13h-9.89"/></svg>