<svg id="Layer_1" data-name="Layer 1" xmlns="http://www.w3.org/2000/svg" viewBox="0 0 154 53.4"><defs><style>.cls-1{fill:#fff;}</style></defs><title>dfds</title><path d="M74.6,39c-.4,0-.6-.1-.6-.6V15c0-.4.1-.6.6-.6H85.9c4.4,0,6.9,2.4,6.9,6.5V32.4c0,4.1-2.5,6.5-6.9,6.5H74.6Zm10.6-5c1.7,0,2.3-.7,2.3-2.5V21.8c0-1.8-.7-2.5-2.3-2.5H79.3V33.9h5.9Zm16.4,4.4c0,.4-.1.6-.6.6H96.8c-.4,0-.6-.1-.6-.6V15c0-.4.1-.6.6-.6h15.1c.4,0,.6.1.6.6v3.8c0,.4-.1.6-.6.6H101.6v5.3h9c.4,0,.6.1.6.6v3.8c0,.4-.1.6-.6.6h-9Zm14.3.6c-.4,0-.6-.1-.6-.6V15c0-.4.1-.6.6-.6h11.3c4.4,0,6.9,2.4,6.9,6.5V32.4c0,4.1-2.5,6.5-6.9,6.5H115.9Zm10.6-5c1.7,0,2.3-.7,2.3-2.5V21.8c0-1.8-.7-2.5-2.3-2.5h-5.9V33.9h5.9Zm11.1,5c-.4,0-.6-.1-.6-.6V34.6c0-.4.1-.6.6-.6,0,0,5,.1,8.8.1,1.7,0,2.3-.1,2.3-1.9v-.6c0-1.3-.3-1.7-1.5-2l-5.4-1.8c-2.4-.7-4.8-1.5-4.8-5.9V20c0-4.1,2.5-5.9,6.9-5.9,3.8,0,8.2.1,8.2.1.4,0,.6.1.6.6v3.8c0,.4-.1.6-.6.6,0,0-4-.1-7.5-.1-1.7,0-2.3,0-2.3,1.8v.5c0,1.3.3,1.5,1.5,1.9l5.4,1.8c2.3.7,4.8,1.5,4.8,5.9v1.9c0,4.1-2.5,6.1-6.9,6.1S137.6,39,137.6,39Z"/><path d="M43.5,53.2,74,.7a.37.37,0,0,0-.3-.6H30.9c-.1,0-.3.1-.3.2L.1,52.7a.37.37,0,0,0,.3.6H43.1C43.3,53.4,43.4,53.3,43.5,53.2Z"/><path class="cls-1" d="M49.1,34.7l-9.9-5.9c-.1,0-.2,0-.1.1L45,38.8c0,.1,0,.2-.1.2H29.1c-.1,0-.1-.1-.1-.2l6-9.9c0-.1,0-.2-.1-.1L25,34.7c-.1,0-.2,0-.2-.1V18.8c0-.1.1-.1.2-.1l9.8,5.9c.1,0,.2,0,.1-.1L29,14.6c0-.1,0-.2.1-.2H44.9c.1,0,.1.1.1.2l-5.9,9.9c0,.1,0,.2.1.1L49,18.7c.1,0,.2,0,.2.1V34.7C49.3,34.7,49.2,34.8,49.1,34.7Z"/></svg>