<svg id="Layer_1" data-name="Layer 1" xmlns="http://www.w3.org/2000/svg" viewBox="0 0 646.59 152"><defs><style>.cls-1{fill:#1d1d1b;}</style></defs><title>dot</title><path class="cls-1" d="M342.62,139.29c0,3.87-1.84,5.48-5.5,5.48H309.57c-3.66,0-5.47-1.61-5.47-5.48V35.36H269.6c-3.67,0-5.49-1.62-5.49-5.48V8.51c0-3.86,1.82-5.47,5.49-5.47h73ZM372,0a19.91,19.91,0,1,0,19.91,19.9A19.9,19.9,0,0,0,372,0ZM118.64,73.9c0,62.65-19.25,70.87-55.58,70.87H5.47c-3.65,0-5.47-1.62-5.47-5.47V8.51C0,4.65,1.82,3,5.47,3H63.06C99.39,3,118.64,11.26,118.64,73.9Zm-39.38,0c0-33.59-3.38-40-18.19-40H38.56v79.93H61.07C75.88,113.87,79.26,107.49,79.26,73.9Zm178.12,0c0,61.57-15.69,72.91-61.21,72.91S135,135.47,135,73.9,150.66,1,196.17,1,257.38,12.34,257.38,73.9Zm-39.2,0c0-37.85-2.53-41.78-22-41.78s-22,3.93-22,41.78,2.53,41.78,22,41.78S218.18,111.76,218.18,73.9ZM447,35c7.64,0,12.5-1.32,12.5-13.49v-5C459.49,4.31,454.88,3,447,3H435.57c-.63,0-.88.23-.88.82V34.17c0,.59.25.82.88.82Zm-8-3.65V6.69h7.75c6.41,0,8.33,1.14,8.33,10.42v3.75c0,9.29-1.92,10.48-8.33,10.48ZM464.63,3.49c0,2.33.35,2.65,2.89,2.65s2.9-.32,2.9-2.65S470,.88,467.52.88s-2.89.37-2.89,2.61m5,8.14c0-.6-.24-.83-.88-.83h-2.4c-.64,0-.88.23-.88.83V34.17c0,.59.24.82.88.82h2.4c.64,0,.88-.23.88-.82Zm7.16,22.54c0,.59.24.82.88.82h2.4c.63,0,.88-.23.88-.82V15s1.72-1.09,6.18-1.09c4.21,0,5.88,1.27,5.88,5.25v15c0,.59.24.82.88.82h2.4c.64,0,.88-.23.88-.82V18.62c0-6.22-3.62-8.09-8.53-8.09h-1c-5.24,0-7.1,2.65-7.1,2.65s-.39-1.09-.88-2.38h-2c-.64,0-.88.23-.88.83Zm-29.7,56.14c7.64,0,12.59-1.47,12.59-13.63V71.15c0-12.17-4.7-13.58-12.59-13.58H446c-7.64,0-12.59,1.46-12.59,13.62v5.54c0,12.16,4.7,13.58,12.59,13.58Zm-.93-3.71c-6.42,0-8.33-1.23-8.33-10.52V71.83c0-9.28,1.91-10.56,8.33-10.56h.78c6.42,0,8.33,1.24,8.33,10.52V76c0,9.28-1.91,10.56-8.33,10.56ZM472,69h11.52V89.12c0,.59.24.82.88.82h2.4c.64,0,.88-.23.88-.82V69h6.57c.64,0,.88-.23.88-.83v-1.6c0-.59-.24-.82-.88-.82h-6.57V63.33c0-2.88,1.23-3.2,3.24-3.2,1.76,0,3,0,3.53,0s.88-.22.88-.82V57.7c0-.59-.25-.77-.88-.82,0,0-2.21-.14-3.68-.14h-.64c-4.21,0-6.61,1.92-6.61,6.86v2.15H472V63.33c0-2.88,1.23-3.2,3.24-3.2,1.76,0,3,0,3.53,0s.88-.22.88-.82V57.7c0-.59-.25-.77-.88-.82,0,0-2.21-.14-3.68-.14h-.64c-4.21,0-6.61,1.92-6.61,6.86v2.15h-4.36c-.64,0-.89.23-.89.82v1.6c0,.6.25.83.89.83h4.36V89.12c0,.59.24.82.88.82h2.4c.64,0,.88-.23.88-.82ZM518.2,79.15c.63,0,.83-.23.88-.82,0,0,.09-1.28.09-2.29,0-9.05-4.41-10.61-9.8-10.61H508.2c-5.24,0-10.39,1.56-10.39,10.65v3.66c0,9.24,4.95,10.61,10.54,10.61h1.47c5.73,0,8.86-1.51,8.86-6.31v-.59c0-.6-.24-.82-.88-.82h-2.3c-.64,0-.88.22-.88.82v.68c0,2.61-1.62,2.93-5.39,2.93h-.64c-4.31,0-6.61-1-6.61-7.68v-.23ZM502,76c.09-6.22,2.35-7.27,6.56-7.27h.54c4,0,5.88,1.1,5.88,7.27H502m23.37,13.17c0,.59.24.82.88.82h2.4c.64,0,.89-.23.89-.82V70s1.71-1.1,6.17-1.1c4.21,0,5.88,1.28,5.88,5.26v15c0,.59.25.82.88.82h2.4c.64,0,.88-.23.88-.82V73.57c0-6.22-3.62-8.09-8.52-8.09h-1c-5.24,0-7.11,2.65-7.11,2.65s-.39-1.1-.88-2.38h-2c-.64,0-.88.23-.88.82Zm40.33-20.21c.64,0,.88-.23.88-.83V66.57c0-.59-.24-.82-.88-.82h-6.57V60.4c0-.59-.24-.82-.88-.82h-2.4c-.64,0-.88.23-.88.82v5.35h-4.36c-.64,0-.88.23-.88.82v1.51c0,.6.24.83.88.83H555V83.63c0,4.94,2.2,6.4,6.13,6.4h.63c1.47,0,4.17-.18,4.17-.18.63,0,.88-.23.88-.83V87.38c0-.6-.25-.82-.88-.82s-1.72.09-3.43.09c-2,0-3.34-.32-3.34-3.2V68.91ZM579.5,90c1.52,0,2.65-.09,2.65-.09.64,0,.88-.23.88-.82V87.47c0-.59-.24-.82-.88-.82h-2c-2.16,0-3.48-.23-3.48-3.11V58.8c0-.59-.25-.82-.88-.82h-2.4c-.64,0-.89.23-.89.82V83.72c0,4.94,2.21,6.31,6.28,6.31h.68M587,58.44c0,2.33.34,2.65,2.89,2.65s2.89-.32,2.89-2.65-.44-2.61-2.89-2.61-2.89.36-2.89,2.61m5,8.13c0-.59-.25-.82-.89-.82h-2.4c-.63,0-.88.23-.88.82V89.12c0,.59.25.82.88.82h2.4c.64,0,.89-.23.89-.82Zm27.19,0c0-.59-.24-.82-.88-.82H616.2c-.44,1.24-.78,2.15-.78,2.15s-2-2.47-7.15-2.47-10.15,1.42-10.15,10.24v2.66c0,9,4.9,10.19,10,10.19h.34c4.56,0,6.57-2.37,6.57-2.37v2.28c0,5.4-1.52,6-6.13,6h-.63c-4.17,0-4.61-.28-4.61-2.79v-.55c0-.59-.24-.82-.88-.82h-2.4c-.64,0-.89.23-.89.82v1c0,4.44,2.5,5.62,8.48,5.62h.93c6.37,0,10.29-1.41,10.29-9.51Zm-16.85,9.51c0-6.3,2.4-7.31,6.81-7.31,4,0,5.88,1.14,5.88,1.14v14s-1.86,1.28-6,1.28c-4.36,0-6.71-1-6.71-7.27V76.08m43.41,3.07c.64,0,.84-.23.89-.82,0,0,.1-1.28.1-2.29,0-9.05-4.41-10.61-9.81-10.61h-1.17c-5.25,0-10.39,1.56-10.39,10.65v3.66c0,9.24,5,10.61,10.54,10.61h1.47c5.73,0,8.87-1.51,8.87-6.31v-.59c0-.6-.25-.82-.89-.82h-2.3c-.64,0-.88.22-.88.82v.68c0,2.61-1.62,2.93-5.39,2.93h-.64c-4.31,0-6.62-1-6.62-7.68v-.23ZM629.53,76c.1-6.22,2.36-7.27,6.57-7.27h.54c4,0,5.88,1.1,5.88,7.27h-13M455.86,116.52c.64,0,.88-.23.88-.82v-2.06c0-.59-.24-.82-.88-.82H432.63c-.63,0-.88.23-.88.82v2.06c0,.59.25.82.88.82h9.46V144c0,.59.25.82.88.82h2.55c.64,0,.88-.23.88-.82V116.52Zm15.83,7.64c.64,0,.88-.23.88-.83v-2c0-.6-.24-.83-.88-.83h-1.37c-5.64,0-7.45,2.7-7.45,2.75s-.39-1.33-.93-2.7h-2c-.64,0-.88.23-.88.82V144c0,.59.24.82.88.82h2.4c.64,0,.88-.23.88-.82V125.21s1.86-1,6.27-1Zm14.46-.55c4.41,0,5.88,1.1,5.88,5.07v2.06H485.7c-6.41,0-10.29,1.69-10.29,6.68v.91c0,5.35,3.92,6.73,8.83,6.73h.29c5.68,0,7.94-3.07,7.94-3.07s.54,1.55.93,2.79h1.91c.64,0,.88-.23.88-.82V128.13c0-6.22-3.82-7.81-9.7-7.81h-1.42c-5.88,0-8.63,1.55-8.63,5.9V127c0,.59.25.82.89.82h2.35c.64,0,.88-.23.88-.82v-.28c0-2.42.34-3.06,4.56-3.06Zm-6.62,13.94c0-3.24,2.45-3.75,7.06-3.75H492v5.63s-1.67,2.42-7.16,2.42c-3.67,0-5.34-1.1-5.34-3.79ZM503.2,144c0,.59.25.82.88.82h2.4c.64,0,.89-.23.89-.82V124.8s1.71-1.1,6.17-1.1c4.22,0,5.88,1.28,5.88,5.26v15c0,.59.25.82.88.82h2.4c.64,0,.89-.23.89-.82V128.41c0-6.22-3.63-8.09-8.53-8.09h-1c-5.24,0-7.11,2.65-7.11,2.65s-.39-1.1-.88-2.38h-2c-.63,0-.88.23-.88.82Zm45.92-6.45c0-4-3.48-4.9-6.91-5.81l-5.49-1.46c-2.21-.6-3.33-1.1-3.33-3v-.46c0-2.47,1.42-3.29,4.75-3.29h1c3.68,0,5.1.13,5.1,2.47v.64c0,.59.24.82.88.82h2.35c.64,0,.88-.23.88-.82v-1.1c0-4.07-2.89-5.26-8.77-5.26h-1.23c-6.07,0-9.11,1.64-9.11,6.63v.69c0,3.38,1.77,4.66,5.83,5.76l5.44,1.46c3.14.82,4.46,1.42,4.46,3.34v.5c0,2.47-1.62,3.3-5.09,3.3h-1.13c-3.87,0-5.54-.14-5.54-2.48v-1.14c0-.59-.25-.82-.88-.82H530c-.64,0-.89.23-.89.82v1.6c0,4.07,3,5.26,9.07,5.26h1.32c6.28,0,9.61-1.65,9.61-6.63Zm5.63,13.67c0,.6.25.82.89.82H558c.63,0,.88-.22.88-.82V143s1.91,2.15,6.71,2.15c5,0,10.15-1.37,10.15-10.61v-3.57c0-9.32-4.9-10.6-10-10.6h-.39c-4.9,0-6.91,2.65-6.91,2.65s-.39-1.1-.88-2.38h-2c-.64,0-.89.23-.89.82Zm16.81-17.06c0,6.63-2.4,7.64-6.81,7.64-4,0-5.83-1.1-5.83-1.1V124.8s1.86-1.15,5.93-1.15c4.41,0,6.71,1,6.71,7.64v2.83m21.12,11.07c5.44,0,10.59-1.46,10.59-10.61v-3.66c0-9.23-5-10.65-10.59-10.65h-1.12c-5.44,0-10.59,1.56-10.59,10.65v3.66c0,9.24,5,10.61,10.59,10.61Zm-.78-3.2c-4.31,0-6.71-1-6.71-7.77v-2.88c0-6.82,2.4-7.82,6.71-7.82h.39c4.36,0,6.77,1,6.77,7.82v2.88c0,6.76-2.41,7.77-6.77,7.77ZM622,124.16c.64,0,.88-.23.88-.83v-2c0-.6-.24-.83-.88-.83h-1.37c-5.64,0-7.45,2.7-7.45,2.75s-.4-1.33-.93-2.7h-2c-.64,0-.89.23-.89.82V144c0,.59.25.82.89.82h2.4c.63,0,.88-.23.88-.82V125.21s1.86-1,6.27-1Zm19.26-.41c.64,0,.88-.23.88-.83v-1.51c0-.59-.24-.82-.88-.82h-6.57v-5.35c0-.6-.24-.82-.88-.82h-2.4c-.64,0-.88.22-.88.82v5.35h-4.36c-.64,0-.89.23-.89.82v1.51c0,.6.25.83.89.83h4.36v14.72c0,4.94,2.2,6.4,6.12,6.4h.64c1.47,0,4.16-.18,4.16-.18.64-.05.89-.23.89-.83v-1.64c0-.6-.25-.82-.89-.82s-1.71.09-3.43.09c-2,0-3.33-.32-3.33-3.2V123.75Z"/></svg>