<svg id="Layer_1" data-name="Layer 1" xmlns="http://www.w3.org/2000/svg" viewBox="0 0 353.59 300.97"><defs><style>.cls-1,.cls-2,.cls-3{fill-rule:evenodd;}.cls-2{fill:#fff;}.cls-3{fill:#020202;}</style></defs><title>eb</title><polygon class="cls-1" points="0 0 0 266.05 173.77 300.97 351.27 266.05 351.27 0 0 0 0 0"/><path class="cls-2" d="M66.51,239A31,31,0,0,0,79,235.29a21.1,21.1,0,0,0,8.73-10.39,17.28,17.28,0,0,0,0-11.23A17.87,17.87,0,0,0,79,203.28c-2.07-1.24-4.57-1.66-6.65-2.49-.41,0,0-.42,0-.42,1.67-.83,3.74-1.25,5.41-2.08a14.63,14.63,0,0,0,7.06-8.73,16.49,16.49,0,0,0,1.25-6.23c0-2.5-1.25-4.57-2.08-6.65-1.66-3.33-5-5.82-7.9-7.49-7.48-2.91-16.21-1.66-24.52-2.08H21.2V239Z"/><polygon class="cls-2" points="80.23 153.81 80.23 139.26 37 139.26 37 123.88 71.09 123.88 71.09 110.99 36.58 110.99 36.58 94.78 78.57 94.78 78.57 82.73 21.62 82.73 21.62 153.81 80.23 153.81 80.23 153.81"/><path class="cls-1" d="M61.94,225.73a10.6,10.6,0,0,0,6.24-2.49c2.91-2.5,2.91-6.24,2.49-10a10,10,0,0,0-5.82-5.82A25.29,25.29,0,0,0,59,207H37.41v18.71Z"/><path class="cls-1" d="M37.41,195.8v-17H59.86a11.68,11.68,0,0,0,3.74.41,6.63,6.63,0,0,1,5,3.74c1.25,2.91,1.25,7.07-.41,9.56-2.91,2.91-7.07,3.33-10.81,3.33Z"/><path class="cls-2" d="M123.05,153.4,109.33,133l-7.48,7.06v14.14H87.3V82.73h14.55V121.8l20-19.54h15.8l-17.88,18.3c-1.66,2.07.42,3.32,1.25,5,5,7.07,10,14.55,15,21.62l3.74,6.24Z"/><polygon class="cls-2" points="96.03 167.12 109.33 167.12 109.33 239.03 96.03 239.03 96.03 167.12 96.03 167.12"/><path class="cls-2" d="M119.72,202a45.62,45.62,0,0,1,.42-6.66,20.31,20.31,0,0,1,4.57-5.82c3.74-2.91,8.32-4.15,13.31-4.57,5.82-.42,12-.83,17.46.83,2.49.83,4.57,1.25,6.65,2.5a11,11,0,0,1,5.82,9.56c.41,7.9,0,15.79,0,23.69,0,2.5.41,5,2.08,6.65,2.49,2.08,5,2.5,9.14,1.67v5.82a10.7,10.7,0,0,1-5.4,4.15c-5.41,1.67-11.64.42-15.38-4.15a16,16,0,0,1-2.5-4.58.79.79,0,0,0-1.25,0c-1.24.84-2.07,2.5-3.32,3.75a24.11,24.11,0,0,1-12.47,5.4,33.67,33.67,0,0,1-11.23-.42,17.25,17.25,0,0,1-8.31-5c-2.5-3.75-4.16-8.32-3.33-12.89l.83-2.5c1.67-4.57,6.24-7.89,10.4-9.14l7.06-1.66c2.91-.42,5.82-.84,8.32-1.25,3.32-.42,6.65-.42,10-1.25.41-.41,1.24-.83,1.24-1.66a11.77,11.77,0,0,0,0-5.41c-1.66-3.32-5.82-3.74-9.14-3.74-4.16,0-9.56-.41-11.64,4.16l-.83,2.5Z"/><path class="cls-3" d="M135.11,217.42c5.4-2.5,11.64-2.91,17.46-3.75.41,0,1.24,0,1.24.84.42,5-1.24,9.56-5.4,12.47-3.33,2.49-7.48,2.49-11.64,2.49a7.61,7.61,0,0,1-5.41-3.32,7.1,7.1,0,0,1,3.75-8.73Z"/><path class="cls-2" d="M138.85,138.85c1.24-.83,3.32,0,4.57-.42h7.07c2.08.42,1.66,2.91,2.91,4.16,2.08,2.91,5.82,2.91,9.56,2.91,4.16,0,9.56.41,12-3.74a3.1,3.1,0,0,0-.41-3.74c-1.25-1.67-3.74-2.5-5.82-2.91-5.41-.84-11.23-1.25-16.63-2.5A15.76,15.76,0,0,1,141.76,126c-3.33-4.57-2.91-12.06,0-16.63a19,19,0,0,1,9.14-7.07,29,29,0,0,1,14.55-2.07c.42.41.42,0,.83,0,5.41.41,10.4,1.66,14.55,4.57,3.33,2.91,6.24,7.07,5.82,12-.41.42-.41.84-1.24.84a43.4,43.4,0,0,1-7.49.41c-1.24,0-2.91.42-4.15-.41-.83-1.25-.83-2.91-1.67-4.16-2.49-2.91-5.82-2.5-9.14-2.5-2.91,0-6.24,0-8.73,1.25-.83.83-2.08,2.08-2.08,3.74-.42,1.67,1.25,3.33,2.91,4.16s4.16.83,6.23,1.25c7.07.83,14.14,1.66,20.37,4.57,3.75,2.08,7.07,5.4,7.49,10a18.55,18.55,0,0,1-1.25,9.56,17.53,17.53,0,0,1-10.81,8.73,37.48,37.48,0,0,1-15.38,2.08,24.85,24.85,0,0,1-12.47-2.08,18,18,0,0,1-8.73-7.07,18.47,18.47,0,0,1-2.08-6.23c0-.84.42-1.25.42-2.08Z"/><path class="cls-2" d="M219.91,238.2h13.72V168H219.49l.42,24.94c-1.66-1.66-3.74-2.91-5-4.16a26.62,26.62,0,0,0-10.81-4.16c-7.48-.41-13.72,1.67-18.7,7.07-3.33,3.33-5,7.48-6.66,11.64a81.89,81.89,0,0,0-.83,10c.42,6.65,2.08,12.89,5.82,18.29a20.22,20.22,0,0,0,15,8.73,27,27,0,0,0,8.31-.42,24.75,24.75,0,0,0,12.89-8.73v7.07Z"/><path class="cls-2" d="M230.3,152.15c.42-1.66,0-3.33,0-5.4-.41-.42-.83-.84-1.24-.84-3.75,0-7.49.84-10.4-.83-4.57-2.91-2.91-9.14-3.32-13.72v-18.7h13.72l-.42-9.56-10.39-.84c-.83-.41-2.5,0-3.33-.83V83.14h-9.14c-.84.42-.84,1.25-1.25,2.08l-1.66,11.22a12.08,12.08,0,0,1-.84,3.75c-1.24,2.91-5,1.66-7.89,2.07h-5.41v10.4h12.06v18.7c0,5.82-.42,12.48,1.66,17.46,3.33,6.65,11.22,7.9,18.29,7.07a3.1,3.1,0,0,0,2.08-.42l7.48-3.32Z"/><path class="cls-1" d="M192.47,207.85c.83-4.57,2.08-9.14,6.65-11.64a10.44,10.44,0,0,1,5.41-1.24,8.17,8.17,0,0,1,3.32.41c3.75.83,6.66,3.74,8.32,7.07,2.08,3.74,2.49,7.9,2.08,12.47-.42,3.74-1.25,7.48-3.74,10.39a12.3,12.3,0,0,1-7.9,4.16,10.25,10.25,0,0,1-5-.41c-2.91-.42-5.4-2.5-7.07-5.41a27.13,27.13,0,0,1-2.08-8.31c0-2.5-.41-5,0-7.49Z"/><path class="cls-2" d="M274,113.07c-2.08.42-5,0-7.48,0-4.16.83-7.9,2.5-10.39,5.41-2.08,2.08-4.58,5-4.58,8.31v27H239V101.43H251.5v7.49c0,.83-.83,2.07,0,2.49.84,0,1.25-.83,1.67-1.25,4.15-6.23,8.73-10.39,16.62-10l4.16-.42v13.3Z"/><path class="cls-2" d="M296,222.4c.42,2.08-.83,5.41-1.66,7.07a20.22,20.22,0,0,1-6.65,6.65c-2.08,1.25-3.74,2.5-5.82,2.91-3.33.83-6.23,1.67-9.56,1.67-5.4.41-10.39-.84-15.38-2.5a32.35,32.35,0,0,1-8.73-6.65,37.67,37.67,0,0,1-5.41-10.81,31.23,31.23,0,0,1,0-17.46c1.67-3.74,2.91-7.48,6.24-10.39a24.82,24.82,0,0,1,17-8.32c7.49-.83,14.55.84,20,5.41,4.16,3.32,7.48,7.48,8.73,12.06a32,32,0,0,1,1.66,11.22l-.42,1.66H256.49s0,5.82,1.25,7.9c2.91,5,7.9,6.65,12.89,7.07h2.49c2.08-.42,4.57-.83,5.82-1.67,0,0,4.16-2.91,5-5.82Zm-39.49-15.79a12.66,12.66,0,0,1,7.07-10.81c5-1.66,10.81-1.25,14.13,2.08a13.6,13.6,0,0,1,2.5,3.32,24.71,24.71,0,0,1,.83,5.41Zm19.13-56.54c-2.92-2.91-3.33-7.9-2.92-12a30.86,30.86,0,0,1,1.67-5.82c3.74-6.24,10.81-7.07,17.46-8.73a130.84,130.84,0,0,0,13.3-1.67c2.08-.41,5.4-.41,5.4-3.32,0-1.67,0-4.16-1.66-5.41-2.49-3.32-7.48-2.91-11.64-2.91a12.23,12.23,0,0,0-5.4,2.08,9.82,9.82,0,0,0-2.08,4.16c-1.66,1.25-3.74.83-5.4.83-2.08,0-4.58.42-6.66,0-1.24-.83-.41-2.49-.41-3.74a22.4,22.4,0,0,1,4.16-8.32c4.57-4.57,10.8-5.4,17.45-5.82,3.75.42,7.9,0,11.64.84,5.41,1.66,12.06,4.15,13.31,10.39,0,1.25.41,2.49.41,4.16v23.69a7.29,7.29,0,0,0,4.16,6.24,36.23,36.23,0,0,0,6.65.41c.83,0,1.25,0,1.66.83.42,1.25,0,2.91,0,4.58-.41,2.08-2.49,2.91-4.15,3.32-2.91.83-5.41,2.08-8.32,1.66A11.23,11.23,0,0,1,313,148.41c-.42-.83-.42-2.08-1.25-2.08-.83-.42-1.25.42-1.66.83-4.57,7.07-12.89,9.15-20.79,8.31h-.41c-4.16,0-7.9-.83-11.23-3.32L276,150.49l-.41-.42Zm13.71-15.8c2.08-2.49,5.41-2.91,8.32-3.74,3.32-.83,7.48-1.24,10.81-2.08.83,0,1.24,0,1.66.84a12.61,12.61,0,0,1-5.82,12.88c-2.5,2.08-5.82,2.5-8.73,2.91-2.91,0-6.24-.41-7.9-3.32-.83-1.67-.42-4.16,0-5.82l1.66-1.67Z"/><path class="cls-2" d="M308.87,183.74c1.25-1.24,1.25-6.65,1.66-10.39.84-2.08,0-5,2.08-6.24h9.56v19.13h11.64v10.39H322.17v24.11c.42,4.16,0,6.65,2.91,8.32,3.33,2.07,7.07.83,10.81.83a1.32,1.32,0,0,1,1.25,1.24c.42,2.08,1.25,5.41-.83,7.07a35.78,35.78,0,0,1-13.3,2.08c-3.33,0-6.24-.42-8.73-2.08-5.82-3.74-6.66-10.39-6.24-17V196.63H297.23v-9.56s10.81-2.5,11.64-3.33Z"/></svg>