<svg id="Layer_1" data-name="Layer 1" xmlns="http://www.w3.org/2000/svg" viewBox="0 0 615.27 121.44"><defs><style>.cls-1{fill:#020202;fill-rule:evenodd;}</style></defs><title>finance</title><g id="Symbols"><g id="Header-Uppercase"><g id="Header"><path id="Shape" class="cls-1" d="M162.33,27.21h56.54V40.7H178.68V55H214.1V68.52H178.68V94.61H162.33Zm63.92,67.41V27.22h16.34v67.4Zm28.51-67.41h15.06l34.76,41.5V27.21h16.14v67.4H306.83L270.88,51.77V94.61H254.76Zm120,39.2L364.9,44.54,355,66.41ZM357.58,26.74h15.06l31.81,67.88H387.36l-6.77-15.13H349.2l-6.79,15.13H325.78Zm51.92.47h15.06l34.79,41.5V27.21h16.12v67.4H461.58l-36-42.84V94.61H409.5ZM521.67,95.78a41.32,41.32,0,0,1-15.17-2.7,39.16,39.16,0,0,1-12.09-7.32,34.28,34.28,0,0,1-7.94-11.07A32.52,32.52,0,0,1,483.6,61.1v-.18a31.8,31.8,0,0,1,2.87-13.49,34,34,0,0,1,7.94-11.06,37.17,37.17,0,0,1,12.2-7.53,43.29,43.29,0,0,1,15.68-2.77,56.44,56.44,0,0,1,9.45.76A41.51,41.51,0,0,1,539.59,29a36.29,36.29,0,0,1,6.47,3.26,37.74,37.74,0,0,1,5.5,4.24L541.18,47.34a38.35,38.35,0,0,0-8.82-5.59,25.05,25.05,0,0,0-10.17-2,23,23,0,0,0-8.57,1.64,20,20,0,0,0-6.89,4.54,20.29,20.29,0,0,0-4.46,6.63,21.15,21.15,0,0,0-1.6,8.18v.2a21.61,21.61,0,0,0,5.94,14.91,19.61,19.61,0,0,0,6.78,4.53,21.67,21.67,0,0,0,8.8,1.74A23.93,23.93,0,0,0,532.92,80a43.1,43.1,0,0,0,8.78-5.78l10.39,9.54a58,58,0,0,1-5.93,5,37.12,37.12,0,0,1-6.68,3.75,35.71,35.71,0,0,1-8.06,2.41A49.69,49.69,0,0,1,521.67,95.78Zm93.07-55.37H575V54.09h35V67.27H575V81.41h39.76v0h.53V94.61H558.76V27.21h56.51V40.4h-.53Z"/><path id="Combined-Shape" class="cls-1" d="M21.78,91.1H76.42v28.26a60.66,60.66,0,1,1,42.65-41.82H93.79l-.05-63.1ZM76.42,77.54h-22l22-23.66Zm17.37,34.09V91.1h19.5A60.91,60.91,0,0,1,93.79,111.63Z"/></g></g></g></svg>