<svg id="Layer_1" data-name="Layer 1" xmlns="http://www.w3.org/2000/svg" xmlns:xlink="http://www.w3.org/1999/xlink" viewBox="0 0 205.1 56.7"><defs><style>.cls-1{fill:none;}.cls-2{clip-path:url(#clip-path);}.cls-3{fill:#010201;}.cls-4{clip-path:url(#clip-path-3);}</style><clipPath id="clip-path"><rect class="cls-1" x="-0.1" width="37.8" height="56.7"/></clipPath><clipPath id="clip-path-3"><rect class="cls-1" x="65.1" y="19.8" width="140" height="17.2"/></clipPath></defs><title>gyldendal</title><g class="cls-2"><path class="cls-3" d="M18.7,56.7c8.8,0,12.5-1.4,15.2-5.7,2.6-4.1,3.7-9.4,3.7-22.7S36.5,9.8,33.9,5.6C31.1,1.3,27.5-.1,18.7-.1h.2C10.1-.1,6.4,1.3,3.7,5.6,1.1,9.7,0,15,0,28.3S1.1,46.8,3.7,51c2.8,4.3,6.4,5.7,15.2,5.7Zm.2-1.6c-7.6,0-11-.8-13.2-4.6S3.1,41.2,3.1,28.3,3.5,9.9,5.7,6.1s5.6-4.6,13.2-4.6h-.1c7.6,0,11,.8,13.2,4.6s2.6,9.3,2.6,22.2S34.2,46.7,32,50.5s-5.6,4.6-13.2,4.6Z"/></g><g class="cls-2"><path class="cls-3" d="M10.9,37.7A1.3,1.3,0,1,0,12.2,39a1.32,1.32,0,0,0-1.3-1.3M18.6,9c0-.4-.3-.6-.7-.7a.85.85,0,0,0-.8.7.77.77,0,0,0,.7.8h0a.74.74,0,0,0,.8-.8h0M21,24c-2.5-1.2-3.1-2.6-3.1-4.2,0-3.6,3.6-6.5,3.6-9.7,0-2-1.4-3.4-3.7-3.4a4.19,4.19,0,0,0-1.5.4q-3-.66-6.1-1.2c0-.1-.1.1,0,.1.3.2,4.9,2.3,5.8,3.1.1.1.3.4.4.4s.2-.1.2-.3a.6.6,0,0,1-.1-.4A1.43,1.43,0,0,1,18,7.5a2.46,2.46,0,0,1,2.6,2.3v.1c0,1.3-1,2.9-1.3,2.9-.1,0-.1,0-.2-.1,0-.3.2-.9.2-1.3,0-.7-.2-1.3-1.4-1.3h-.3c-.1.1.1.1.2.1.3,0,.5.4.5,1,0,3.3-6,9-6,12.3,0,5.1,5.9,9.6,8,10.9a.37.37,0,0,1,.2.5c0,.1-.2.5-.3.5H11.5a9.26,9.26,0,0,0-2.3.4,4.31,4.31,0,0,0-1.4,1.6,4,4,0,0,0,.5,2.4c.3.4.8.2.6-.1a3.59,3.59,0,0,1-.2-1.1,2.2,2.2,0,1,1,4.4-.2v.2c0,.2.1.3.2.3.4,0,.4-.4.4-.7,0-.6-.4-1.2-.4-1.6,0-.2.2-.4.8-.4,1.7,0,6.5.8,7,.8s.9-1.4,1.3-1.4,1.8,4.6,1.8,5.2v.8c0,.5.2.8.1,1.3l-2.5,6.6c-.4,1-4.6,1.1-5.6,1.1-.7,0-1.1.4-1.1.7s0,.3.2.3a36,36,0,0,1,6.5-.4l2.1.3c.1,0,.2-.2.2-.2,0-.5-1.9-.6-1.6-1.4,0,0,.2-.4,2.9-6.7a2.77,2.77,0,0,0,.3-1.3,6.36,6.36,0,0,0-.6-1.8c-.2-1-.4-2-.5-3h.2c.9,0,1.9,2,2.1,2.8.2.6.8.6,1.3.7v.9c0,.3.6.4.9.4s.4-2.3.4-2.6c.1-5.9-3-12.6-8.5-15.3"/></g><g class="cls-4"><path d="M123.7,28.4c0,5.2-3.3,7.3-6.3,7.3-2.3,0-2.4-.3-2.4-2.2v-10c0-2.2-.1-2.5,2.1-2.5,3.1-.1,6.6,2.4,6.6,7.4m49.4,0c0,5.2-3.4,7.3-6.4,7.3-2.3,0-2.4-.3-2.4-2.2v-10c0-2.2-.1-2.5,2-2.5,3.3-.1,6.8,2.4,6.8,7.4M79.9,30.3v-.8c-1.6,0-4.7-.1-6.2-.2v1h2.5a.71.71,0,0,1,.7.8V34c0,1.2-.8,2-2.7,2-3.4,0-6.7-2.1-6.7-7.8,0-3.7,2-7.5,5.9-7.5,2.9,0,3.8,1.3,4.6,3.7h.7V23.2a22.75,22.75,0,0,0-.2-2.6,13.72,13.72,0,0,0-4.9-.9c-4.9,0-8.5,3.8-8.5,8.9,0,4.2,2.2,8.3,8.1,8.3a16.64,16.64,0,0,0,5.4-1,35.05,35.05,0,0,1,.3-5.6Zm15.8-9.8V20H90v.5c1.2.2,2.2.5,1.4,2l-2.9,5.1-2.7-4.7c-1.2-2-.9-2.2.7-2.4V20H80.6v.5c1.3.2,2.1,1,3.1,2.7L87,28.8v4.7c0,2.3-.6,2.4-2.1,2.6v.5h6.5v-.5c-1.6-.3-2.2-.4-2.2-2.6V28.7l3.5-6.2a2.87,2.87,0,0,1,3-2m13.7,11.8-.5-.2c-.8,2.3-2.1,3.6-4.9,3.6-2.3,0-2.7-.1-2.7-2.5V22.9c0-2.3.8-2.2,2.4-2.4V20H97v.5c1.6.2,2.2.1,2.2,2.4V33.7c0,2.4-.7,2.2-2.2,2.4v.5h10.8c.5,0,.6-.4.8-.8s.7-3,.8-3.5M126,27.9c0-4.5-3.1-7.9-8.6-7.9h-6.8v.5c1.6.2,2.3.2,2.3,2.4V33.7c0,2.3-.7,2.2-2.3,2.4v.5h7c5.1,0,8.4-3.5,8.4-8.7m14.3,4.4-.5-.1c-.8,2.3-2.1,3.5-5.2,3.5-2.2,0-2.6,0-2.6-2.3V28.3h2.1c2.2,0,2.9.9,3,1.7h.4a32.22,32.22,0,0,1,0-4.4h-.3c-.4,1.5-.7,1.7-3.1,1.7H132V23.2c0-2.3.2-2.3,2.5-2.3,1.5,0,3.8-.2,3.9,2.5h.5c.1-.93.17-1.86.2-2.8,0-.5,0-.6-.5-.6H127.7v.5c1.6.2,2.2.2,2.2,2.4V33.7c0,2.3-.7,2.2-2.2,2.4v.5h11.4a18,18,0,0,0,.8-2.1l.4-2.2Zm18.2-11.7v-.5h-5.4v.5c1.6.2,2.2.3,2.2,2.6v9.7l-9.1-12s-.2-.3-.7-.9h-3.8v.5c1.5.2,2.4.6,2.4,2.6V33.5c0,2.4-.7,2.4-2.2,2.6v.5h5.5v-.5c-1.6-.3-2.2-.3-2.2-2.6V23.2l10.4,13.7h.7V23.2c0-2.4.7-2.4,2.2-2.6Zm16.9,7.3c0-4.5-3.1-7.9-8.6-7.9H160v.5c1.6.2,2.2.2,2.2,2.4V33.7c0,2.3-.7,2.2-2.2,2.4v.5h6.9c5.2,0,8.5-3.5,8.5-8.7Zm16.4,8.7v-.5c-.9-.1-1.6-.6-2.2-2.1L184,19.9h-1l-5.8,14.7a2.32,2.32,0,0,1-2.2,1.5v.5h5.4v-.5c-1.6-.2-2.4-.5-1.8-2.2l1.5-4h5.5l1.5,4c.8,2,0,2-1.5,2.2v.5Zm13.3-4.3-.5-.2c-.8,2.3-2.1,3.6-4.9,3.6-2.3,0-2.6-.1-2.6-2.5V22.9c0-2.3.8-2.2,2.3-2.4V20h-6.7v.5c1.6.2,2.2.1,2.2,2.4V33.7c0,2.4-.7,2.2-2.2,2.4v.5h10.8c.5,0,.7-.4.8-.8a19.82,19.82,0,0,0,.8-3.5M185.4,29h-5l2.4-6.5Z"/></g></svg>