<svg id="Layer_1" data-name="Layer 1" xmlns="http://www.w3.org/2000/svg" viewBox="0 0 554 246.21"><title>Tegnebræt 7</title><path d="M431.89,197.06c0-.89-.6-1.34-1.64-1.34h-1.79v4.48h.74v-1.94H430l1.19,1.94h.75l-1.34-1.94c.74-.15,1.34-.45,1.34-1.2m-2.69.6v-1.34h.9c.45,0,1,.15,1,.59,0,.75-.59.75-1,.75Zm.9-3.58a3.88,3.88,0,1,0,0,7.76,4,4,0,0,0,4-3.88,4.08,4.08,0,0,0-4-3.88m0,7.17A3.11,3.11,0,0,1,427,198a3.2,3.2,0,0,1,3.14-3.29,3.29,3.29,0,0,1,0,6.58"/><path d="M86.35,237.85V212.9a15,15,0,0,0-6.28-13.59c-9-5.23-20-.75-27.63,4.18l-.3-6.87H48a28.19,28.19,0,0,1-14.34,5.82v2.84c1.5.15,5.38,1.05,5.68,4v28.84c0,3.28-4.33,4.63-7.47,4.93v3.28a230.12,230.12,0,0,1,28.53,0v-3.28c-3.13-.15-7.47-2.24-7.47-4.93V210.66c2.1-4.33,8.67-7.47,14.94-5.68,2.84.75,4.93,4.63,5.23,8.07v25.1c0,3.28-4.33,4.63-7.47,4.93v3.28a230.28,230.28,0,0,1,28.54,0v-3.28c-3.44-.45-7.77-2.54-7.77-5.23m32.72,2.09c-3.74,0-4.49-4.93-4.49-4.93V202.29h10.76V198H114.58v-12.4h-3.73a31.3,31.3,0,0,1-6.57,7.77,68,68,0,0,1-9,6v3h6.87v33c0,5.82,3.14,11.5,12.4,11.5s12.1-6.57,12.1-6.57l-3-2.09a6,6,0,0,1-4.63,1.79m41.53-2.09c-11.36-.9-13.75-7.47-13.75-7.47l29.43-23.9-1.34-2.39a7.78,7.78,0,0,1-3.59-1.8c-2.09-1.49-10.31-8.06-22.26-4.93-11.5,3-22.26,14.2-18.07,30.93,3.88,15.83,18.07,18.22,25.84,18.37,10.91.15,18.82-8.81,19.57-10l-2.24-3a18.14,18.14,0,0,1-13.59,4.18m-16.29-26.59c1.2-5.83,2.54-8.82,7.47-10.46,5.08-1.64,8.37,1.79,9.56,3.58s3.29,5.68,1.95,6.73l-18.38,14.64c.15,0-1.79-8.37-.6-14.49M209,197.51c-4.48,1.35-7.62,5.83-9,10l-.15-11.05h-3.74a28.19,28.19,0,0,1-14.34,5.82v2.84c1.49.15,5.38,1.05,5.68,4V238c0,3.28-4.34,4.63-7.47,4.93v3.28a222.93,222.93,0,0,1,28.08,0v-3.28c-3.13-.15-7.47-2.24-7.47-4.93V215.44a11.3,11.3,0,0,1,3.44-7.47c1.64-1.64,4.48.3,6.27,1.34a6.71,6.71,0,0,0,7.92-2.39c1.35-1.64,1.35-4.78-.75-7.32-2.39-2.09-5.37-3.13-8.51-2.09m163.58,0c-4.48,1.35-7.62,5.83-9,10l-.15-11.05h-3.73a28.26,28.26,0,0,1-14.35,5.82v2.84c1.5.15,5.38,1.05,5.68,4V238c0,3.28-4.33,4.63-7.47,4.93v3.28a223.08,223.08,0,0,1,28.09,0v-3.28c-3.14-.15-7.47-2.24-7.47-4.93V215.44a10.64,10.64,0,0,1,3.43-7.47c1.65-1.64,4.49.3,6.28,1.34a6.77,6.77,0,0,0,7.92-2.39c1.34-1.64,1.34-4.78-.75-7.32a8.49,8.49,0,0,0-8.52-2.09m-92.77,40.34v-60.8h-4.33a28.19,28.19,0,0,1-14.34,5.82v2.84c1.49.15,5.38,1,5.67,4v48.11c0,3.28-4.33,4.63-7.47,4.93v3.28a223.09,223.09,0,0,1,28.09,0v-3.28c-3.29-.15-7.62-2.24-7.62-4.93m-12.25-59.76a7.7,7.7,0,0,0,3.88-8.66c-1.34-3.14-4.78-5.23-7.91-5.83-11.06-2.39-20,1.2-28.39,11.06-6.57,7.61-5.38,18.52-5.67,27.63h-7.62v4h7.62v31.52c0,3.28-4.34,4.63-7.47,4.93v3.28a218.19,218.19,0,0,1,27.78,0v-3.28c-3.13-.15-7.47-2.24-7.47-4.93V206.33H252v-4h-9.71s-.44-25.24,2.1-29.13,4.33-3.58,7.46-3.58c4.19.3,5.53,5.23,8.67,7.62,1.49,1.64,4.63,1.64,7,.89M314.92,196c-14.79,0-26.89,10.46-26.74,25.4.15,13.89,11.95,25.24,26.74,25.24s26.74-11.35,26.74-25.24c-.15-14.65-10.61-25.4-26.74-25.4m0,46.46c-8.07,0-12.7-9.26-12.7-21.21s4.63-21.67,12.7-21.52c8.07,0,12.55,9.71,12.7,21.52,0,12.1-4.34,21.21-12.7,21.21m111.29-2.54c-2.24,0-3.43-1.34-3.43-6.42v-25.1s-.45-12.7-18.38-12.7c-15.53,0-20,9.56-19.42,13.15.3,1.79,2.24,3.13,4.34,3.28,4.18.15,6.72-5.23,9.11-8.81s4.48-4,6.27-3.89c2.84.15,6,3.44,6,6.88V215s-2.39.9-5.38,1.79c-4.48,1.35-9.86,2.54-11.05,3.14-1.35.6-10.31,3.74-10.31,14.79,0,0,.59,11.35,13.74,11.5,7.77,0,13.6-6,13.6-6s3.58,6.42,10.6,6.12c8.82-.3,11.36-9.26,11.36-9.26l-2.1-1c-.14.29-2.68,3.73-4.93,3.88m-15.68-9.56c-.15,1.79,1.34,8.81-7.77,9-6,0-6.12-5.53-6.12-7.62-.3-10,13.89-11.35,13.89-11.35v10ZM0,168.08v3.29c3.14.15,7.47,2.24,7.47,4.93V238c0,3.28-4.33,4.63-7.47,4.93v3.28a237.43,237.43,0,0,1,29,0v-3.28c-3.14-.15-7.47-2.24-7.47-4.93V176.3c0-3.29,4.33-4.63,7.47-4.93v-3.29a233.46,233.46,0,0,1-29,0"/><path d="M315.22,102.5a1.8,1.8,0,0,0,1.49-1c3.88-12.4,6.42-17.33,12.1-26.89a1.41,1.41,0,1,0-2.39-1.49c-6,10.31-8.22,15.09-12.4,27.79a1.48,1.48,0,0,0,1.05,1.79c0-.15,0-.15.15-.15m220.35-5.08a1.42,1.42,0,1,0-2.69.9,112.95,112.95,0,0,1-14.34,98.89,1.63,1.63,0,0,0,.3,2.1,2.27,2.27,0,0,0,.89.29,1.38,1.38,0,0,0,1.2-.59,115.23,115.23,0,0,0,20.32-65.59,113.74,113.74,0,0,0-5.68-36M351.52,47.07a2.11,2.11,0,0,0,.9-.29A113.33,113.33,0,0,1,473.57,30.94a1.47,1.47,0,0,0,1.2-2.69h0A116.19,116.19,0,0,0,350.62,44.39a1.45,1.45,0,0,0-.15,2.09,1,1,0,0,0,1,.59"/><path d="M542.74,242c0-.9-.6-1.34-1.64-1.34h-1.8v4.48h.75v-1.94h.75l1.19,1.94h.75l-1.34-1.94a1.22,1.22,0,0,0,1.34-1.2m-2.69.75v-1.35h.9c.45,0,1,.15,1,.6,0,.75-.59.75-1,.75ZM541,239a4,4,0,0,0-4,3.89,3.9,3.9,0,0,0,4,3.88,4,4,0,0,0,4-3.88,4.09,4.09,0,0,0-4-3.89m0,7.17a3.1,3.1,0,0,1-3.14-3.28,3.19,3.19,0,0,1,3.14-3.29,3.11,3.11,0,0,1,3.14,3.29,3.19,3.19,0,0,1-3.14,3.28"/><path d="M520.93,83.08a20,20,0,0,1-12.4,2.09c-1.79-.3-3-.3-3.88-.45-.6,0-1-.15-1.65-.15,6.43-3.73,7.77-10.9,7.77-10.9A33.87,33.87,0,0,0,520.93,77c3.73.75,7.32.6,8.81,1.35-2.84,1-5.08,3-8.81,4.78M488.51,60.67a62.14,62.14,0,0,1-9.26.9c-4,.15-8.52.59-9.56.59-1.94,0-1.65-1.79,2.69-2.54s10.75-2.39,14-5.67,2.24-10.16,3.59-10.31c1.19-.15-.45,7,5.07,8.36-5.52,3.29-2.83,7.62-6.57,8.67M458.33,90.1c-9.86,5.68-9.71,10.31-10.15,11.2s-4.34-1.64-4.19-3.58a69.77,69.77,0,0,1,1.5-8.67c1-5.08,2.09-8.36,2.69-8.66s5.52-1.94,7.91-3.59,3.14-5.67,4.19-5.67c.89,0-.9,6.87,2.69,9.71s11.8,3.88,11.65,4.63-6.43-1-16.29,4.63m6.88,67.08c-.75,1.79-6.73-1.65-21.22-10.76-12.7-7.92-18.07-10.61-17.63-18.37.3-5.38,6.13-10.16,11.21-11.36,2.39-.45,3.14-.15,6,1.64,3.44,2.25,4.19,3.14,3.44,3.59-4.18,2.24-7.47,8.67-5.68,12.55,3.29,7.62,24.65,20.91,23.91,22.71M429.5,142.24c-.15.74-9.41,2.84-17.93,4.18s-11.65,2.39-11.5.9,6.13-1,12.55-4.48,7.77-7.92,9.26-8.07.45.45,2.84,3,5.08,3.73,4.78,4.48M326.72,48.57c-4.48,1.19-7.32-1.2-7.77-1.79s-.15-1.2.75-.75c2.39,1,3.43.6,3.43.6a8.63,8.63,0,0,1,.3-4.19,4.51,4.51,0,0,1,1.8-2.24c.59-.45,1,.45.59.75a5.36,5.36,0,0,0-.89,2.24c-.3,2.09,1.94,2.54,3.13,1.49a6.9,6.9,0,0,0,1.8-3.43c.3-.9.89-.45,1,.15-.15.45.3,6-4.18,7.17M316.26,33.93A7.84,7.84,0,0,1,308.49,32c-.44-.6-.15-1.2.75-.75a5.72,5.72,0,0,0,3.44.75,7.88,7.88,0,0,1,.15-4.19,6.85,6.85,0,0,1,3.28-3c.9-.3,1.05.59.6.74a3.68,3.68,0,0,0-2.39,3c-.3,2.09,1.94,2.54,3.14,1.49a7,7,0,0,0,1.79-3.43c.3-.9.9-.45,1.05.15.15.45.59,6-4,7.17M552.6,74.26h0c-1.64-1-4.33-2.24-9-4.63-9.27-4.78-13.15-4.48-17.63-5.37-5.83-1.35-4.18-2.4-13-4.93-8.51-2.4-11.35-2.1-11.35-2.1,2.09-6.72,6.42-3,8.66-3.43,1.94-.45,3-1.5,2.84-4.48A10.93,10.93,0,0,1,515,43.49a7.7,7.7,0,0,0,1.8-.75c.3-.15.3-.59,0-1a12.69,12.69,0,0,1-1.65-4.19c-.45-2.54.75-4.48.3-5.37-7.62-2.39-22.26,4.63-20.76,2.68,11.65-7.91,26.59-7.46,23.6-9.26-4-2.39-3.14-4-8.52-7.92-2.83-1.94-6.57-2.53-10.45-2.09C500,14.21,502,10.77,501.21,9c-.9-2.09-13.6.9-22.26,1.2s-13.74-1.65-13.74-1.65,1.34,3.44,7.17,4.78a29.2,29.2,0,0,0,11.05.15c.15,0,.9,1.2.9,1.2s-1.94.74-6.87.74a28,28,0,0,1-9.12-1.64,14.53,14.53,0,0,0,8.52,4.48,22.43,22.43,0,0,0,9.26-.45L487,19a17.8,17.8,0,0,1-14.64-.75s1.19,2.84,5.82,3.74a15.42,15.42,0,0,0,7.47,0c-1.34,1.79-1.79,4-2.24,6.27a26.39,26.39,0,0,0-.89,5.23c-1.35,5.68-7.47,10.31-6.58,10.91s11.21-4.78,11.21-4.78,0,6.87-3.44,11.35S476,54.54,470,56c-3.29.89-4.19,1.64-6.28,1.34a33.16,33.16,0,0,0-10.75.45c-4.93,1.35-10.76,4.93-14,5.68-2.84.6-12.1,1.49-16,2.69l-2.84.89a22.57,22.57,0,0,1-6,1.65,19,19,0,0,1-3.88-.3,26.46,26.46,0,0,0-8.37-1c-3.58.15-5.52.45-11.5,2.09s-12.7,3.74-15.83,3.74c-4.64,0-6-1-9.72-2.54-1.79-.75-6.27-.45-9.41.45a30.43,30.43,0,0,1-4.33-3.74c-1.94-2.24-1.94-6.27-4.63-9.26a12.83,12.83,0,0,1-3-9.41c.15-2.69.6-3.44,0-6.43s-2.54-4.33-3-4.18-1,3-.29,5.08c.89,3,.44,5.68.44,8.52,0,1.64,1.05,4.48.75,4.48a6.32,6.32,0,0,1-2.84-4.63c-.15-1.2-.15-7.62-1.79-9.71s-1.79-6.13-2.09-7.62c-.9-5.38-2.24-9.56-3-9.12-.3.15-.6,1.05-.75,2.39a32.1,32.1,0,0,0,.3,8.67h0c-1-1.64-2.69-2.54-4.18-1.49-.3.14-.75.59-1.2.89a42.81,42.81,0,0,0,.6-7c0-3.14-1-3.29-3-3.88-1.79-.6-1.79-1.2-2.69-2.84s-2.54-2.54-4-1.65-4.18,3.74-6.27,3.74-2.84.6-4,3.44-2.09,1.79-2.39,3.88c-.3,1.49,1.94,7.62,7.92,9.56a38.84,38.84,0,0,0,4.93,1.2,4.56,4.56,0,0,0-2.54,3.88c-.3,3.59,3,8.66,8.22,10.31a25.82,25.82,0,0,0,9.11.74c4.18.6,6.87,3.14,9.71,5.08,1.79,1.35,4.93,5.08,6.57,6.58.6.59,4.63,3.43,4.93,3.73h0c-.3.15-.44.45-.59.6-.9-.3-5.38-3.59-6.58-4.48-1.79-1.5-6.72-7.17-12.25-9.41-.89-.3-2.39.3-5.08.59a17.19,17.19,0,0,1-5.52-.29c-.9-.15-1.5.89-5.68,2.39a34.41,34.41,0,0,0-8.37,4.48c-1,.74-.45,1.34.3,1.49s8.37,1.79,11.8-.15,6.58-3.14,9.27-3.14,5.37,1,8.51,4,3.74,2.39,5.53,2.84,5.08,2.54,7.47,4.48a27.29,27.29,0,0,0,6.12,4c3.14,1.65,20.62,13.75,21.67,14.19s2.24-1.34,1.79-1.79a20.82,20.82,0,0,1-1.94-1.64c-.3-.45-.45-1.94-.75-2.39s-2.69-1.65-5.53-3.44c-2.09-1.19-4.18-2.69-6.12-4,5.52-.6,13.89-.45,25.69-.15,7.77.3,14.49-1.5,19.87-1.5,6,0,10.61,1.8,16.73,1.8,11.21,0,13.6-.15,13.6-.15s-3.29,12.4-3.29,21.51c0,7.47-3.58,7.77-11.35,12.7a21.79,21.79,0,0,0-7.62,8.07c-.15,0-14.64.59-26.3,6.42-11.35,5.68-13.59,6.12-14.34,6.42a2.31,2.31,0,0,1-1.34.15c-.15-.15-11.8-5.08-20.92-6.42-7.91-1-12.84.45-14.34.45-8.36,0-16.58.3-16.58.3l5.38-4c1.49-.89,4-2.69,4.33-4.18.3-2.24-12.25-6.13-19.72-10.31s-11-8.51-11-8.51-.6,3.58,3.88,7.76a30.73,30.73,0,0,0,9.41,5.68v1.5c-.15,0-2.09-.3-6.12-2.69a30.78,30.78,0,0,1-7-6,14.89,14.89,0,0,0,5.07,8.22c4.64,3.58,8.22,4.18,8.22,4.18l.15.75v.74A18.3,18.3,0,0,1,307,115.35s-.45,2.84,3.14,6.12A26.42,26.42,0,0,0,319.4,127l.15,2.54c-2.09-.45-4-1-4.78-2.24-1.2-1.64-3.14-3.59-4.78-3.89-3.89-.44-6.13,2.54-9.11,5.08-3,2.39-5.38,1.2-10,2.84s-6.88,6.87-6.43,8.07-.3,1.34,6.43-.3,7-1.79,13.59-.9,10.76-.89,15.24-1c7.17-.15,7.62,1.19,20.61,4s34.22,7.92,34.51,8.07,4.78,2.39,12.1,1.79c7.62-.6,11.81.15,21.22-1,19.72-2.69,24.8-5.68,24.8-5.68s7,4.78,16.58,10.16c15.24,8.66,26,13.29,26,13.29s3.74,15.39,8.52,22.71c2.39,3.74,6.12,6.87,6.57,7.47,3.59,4.18,6.87,7.92,10,11.8-.74,0-1.34.15-2.09.15-8.66.3-13.74-1.64-13.74-1.64s1.34,3.43,7.17,4.78a29.42,29.42,0,0,0,11.05.15c.15,0,.9,1.19.9,1.19s-1.94.75-6.87.75a28,28,0,0,1-9.12-1.64,14.6,14.6,0,0,0,8.52,4.48,22.43,22.43,0,0,0,9.26-.45l.75.9c0,.15.15.15.15.3A18.55,18.55,0,0,1,492,218s1,2.69,5.82,3.73c3.74.9,6.58,1,9.71.15.15,1.65-.59,2.54-1.19,4-.9,1.94-2.39,5.08-1.64,6.57,1.64,3.59,7,3,10.75,4.18,3.59,1.35,3.89,4,7.62,7s9.56,2.39,10.16,1.35c.75-.9,1.34-.45-3.59-5.38-4.93-4.78-5.22-5.08-7.91-11.2-2.54-5.68-2.69-4.34-7-10.76a10.84,10.84,0,0,0,1.5-1.79s3.14-4.93,2.24-7c-.45-1.2-4-.9-8.52-.3,0,0-4.78-15.54-8.21-25.85a161.8,161.8,0,0,0-9-21.36c-.15-.45-.44-1.64-.59-2.24a13.1,13.1,0,0,0-2.24-4.33c-1.35-1.5-5.68-4.78-6.13-5.23s-3-4-9.11-10.46-16.88-15.69-16.88-15.69c.44-2.54,1.19-3.13,3.58-5.82a47.62,47.62,0,0,1,7.47-6.72c8.07-5.23,15.39-13,18.38-16.44h0c-.75-.3-1.35-.6-1.5-1l-.15-.3v-.3c0-.15.15-4.48,5.53-5.83.75-.15,1.35-.3,1.94-.45a2.79,2.79,0,0,0,.75-.14c-1.2-.75-1.49-1.65-1.34-1.5a36.5,36.5,0,0,0,4.18.75h.3c1.79.15,3.73.45,2.09,1-3,.9-3.14.75-7.47,2S487,93.09,487,93.09c.3.45,3.58,1.19,8.81.89s10.91-3.13,14.94-3.73c6.87-1,18.23,1.94,27.34-1.64,5.83-2.39,7.32-4.93,9.41-6.28,2.09-1.19,4.78-2.84,5.53-3.88,1.19-.3,1.49-3-.45-4.19"/><path d="M296.24,54.25c2.84,0,3.74-.75,3.74-.75a8.7,8.7,0,0,1-1.5-4.33,6.47,6.47,0,0,1,.75-3.14c.45-.75,1.2,0,.9.6a4.78,4.78,0,0,0,0,2.54c.6,2.24,3,1.79,3.73.15a7.39,7.39,0,0,0,.3-4.34c-.15-1,.75-.89,1-.3s3,6-1,9.12a8.79,8.79,0,0,1-8.66,1.49c-.3-.3-.3-1,.74-1m-4,3.28c.3,1.2,1.79,2.39,4.48,3.29.75.3.3,2.09,2.39,2.24,7.47.9,18.68-1.64,20.77-3.29,1-.74.3-2.69-1.94-4.33a19.27,19.27,0,0,1-7.47-9c-1.95-4.93-4-5.53-5.68-6.13-1.2-.45-3.14-.3-5.68,1.8s-4.63,1.94-6,4.63.3,4.33,0,6-1.35,2.84-.9,4.78"/><path d="M489,226.79a109.9,109.9,0,0,1-31.07,14.79h-.15a1.42,1.42,0,1,0,.89,2.69h0A115.34,115.34,0,0,0,490.45,229a1.6,1.6,0,0,0,.45-2.09,1.57,1.57,0,0,0-1.94-.15"/></svg>