<svg id="Layer_1" data-name="Layer 1" xmlns="http://www.w3.org/2000/svg" xmlns:xlink="http://www.w3.org/1999/xlink" viewBox="0 0 344.79 207.33"><defs><style>.cls-1{fill:none;}.cls-2{clip-path:url(#clip-path);}.cls-3{fill:#1d1d1d;}</style><clipPath id="clip-path"><rect class="cls-1" x="-65.84" y="-53.39" width="480.47" height="330.56"/></clipPath></defs><title>klasselotteri</title><g class="cls-2"><path class="cls-3" d="M40.32,19.15h-36C4.28,33.51,25.48,80.7,60,80.7c9.18,0,16.6-2.7,19.3-5.4-20-3.91-39-41.43-39-56.15"/><path class="cls-3" d="M61.24,19.15c0,8.64,8.64,37.8,28.21,48.73,4.18-3,13.36-13,17-17.68C103,44.66,96.74,25,96.74,19.15Z"/><path class="cls-3" d="M163.55,19.83c-13.36,0-28.48,11.2-44.81,28.61S89.86,85.56,67.45,85.56a78.23,78.23,0,0,0,17.68,2.29c8.51,0,35-1.61,57.77-26,20.22-21.65,24.3-33.2,38.74-37.11-4.46-3.1-9-4.86-18.09-4.86"/><path class="cls-3" d="M191.49,31.17c-11,5.46-20.92,18.76-29.15,29.29s-22.53,23.69-39.42,26.05a77.36,77.36,0,0,0,14,1.21c15.76,0,30-7.42,41.63-16C191,62.53,200.51,52,205.93,47.63c-3.78-6.34-11.06-13.76-14.44-16.46"/><path class="cls-3" d="M175,15.38s5.67-.41,8.51-.41c44.67-.14,85.7,32.8,96,95.7H235.36s-3-79-60.34-95.29"/><path class="cls-3" d="M226.31,16.46s5.81.4,8.64.4c52,0,101.37,36,110.8,93.8H302.84s-9.31-76.79-76.53-94.2"/><path class="cls-3" d="M292.34,136a7.63,7.63,0,1,0-7.62-7.62,7.63,7.63,0,0,0,7.62,7.62"/><path class="cls-3" d="M309.55,139.1a6.12,6.12,0,1,0-6.12-6.12,6.12,6.12,0,0,0,6.12,6.12"/><path class="cls-3" d="M274.91,139.1a6.12,6.12,0,1,0-6.12-6.12,6.12,6.12,0,0,0,6.12,6.12"/><path class="cls-3" d="M262.52,147.31a5.38,5.38,0,1,0-5.38-5.38,5.38,5.38,0,0,0,5.38,5.38"/><path class="cls-3" d="M321.59,147.31a5.38,5.38,0,1,0-5.38-5.38,5.38,5.38,0,0,0,5.38,5.38"/><path class="cls-3" d="M292.34,150.88c17.78,0,23.4,9.18,23.4,9.18v-8.38s-6-8.83-23.74-8.83-23.29,8.83-23.29,8.83v8.38s5.85-9.18,23.63-9.18"/><path class="cls-3" d="M15.55,122.41c3.56.15,7.17.44,9.12,4,.69,1.32.93,2.54,1,5.42V147.1c0,.54-.05,1.07-.05,1.61a8.71,8.71,0,0,1-2.64,6.1,8.16,8.16,0,0,1-3.22,1.71,23.32,23.32,0,0,1-3.07.34H3.64V122.41ZM11.89,151a10.46,10.46,0,0,0,3.9-.3c1.81-.73,1.71-2.83,1.71-3.27V132.12a4.63,4.63,0,0,0-.05-.83,2.81,2.81,0,0,0-2.19-3,25.11,25.11,0,0,0-3.37-.19Z"/><polygon class="cls-3" points="48 122.41 48 128.7 39.16 128.7 39.16 136.12 47.56 136.12 47.56 142.47 39.16 142.47 39.16 150.47 48.78 150.47 48.78 156.86 30.82 156.86 30.82 122.41 48 122.41"/><polygon class="cls-3" points="72.44 122.41 72.44 128.7 65.47 128.7 65.47 156.86 57.17 156.86 57.17 128.7 50 128.7 50 122.41 72.44 122.41"/><path class="cls-3" d="M97.08,122.41c3.56.15,7.18.44,9.13,4,.68,1.32.92,2.54,1,5.42V147.1c0,.54,0,1.07,0,1.61a8.74,8.74,0,0,1-2.63,6.1,8.23,8.23,0,0,1-3.22,1.71,23.75,23.75,0,0,1-3.08.34H85.18V122.41ZM93.42,151a10.52,10.52,0,0,0,3.91-.3c1.8-.73,1.7-2.83,1.7-3.27V132.12a5.77,5.77,0,0,0,0-.83,2.81,2.81,0,0,0-2.2-3,25.11,25.11,0,0,0-3.37-.19Z"/><path class="cls-3" d="M127.77,122.41l6.64,34.45h-8.59l-.73-5.42h-6.83l-.78,5.42h-8.54l7-34.45Zm-8.68,23.13h5.12l-2.59-17.76Z"/><polygon class="cls-3" points="145.78 122.41 153.34 145.88 153.05 122.41 160.17 122.41 160.17 156.86 151.34 156.86 143.68 134.07 143.92 156.86 136.6 156.86 136.6 122.41 145.78 122.41"/><path class="cls-3" d="M185.74,133.15h-8.2v-3a2.57,2.57,0,0,0-.59-1.76,2.24,2.24,0,0,0-1.7-.63,2.3,2.3,0,0,0-2.44,2.53,3.43,3.43,0,0,0,.58,2c1.17,1.71,3.86,3.27,7.57,6,.68.49,1.36,1,2,1.56a9,9,0,0,1,3.32,7.46c0,5.08-2.4,7.62-4.3,8.69a14.42,14.42,0,0,1-6.93,1.37c-3.12,0-5.85-.25-8.44-2.4a7.51,7.51,0,0,1-2.34-3.26,15.29,15.29,0,0,1-.54-3.32v-3.56h8.39v3.07c0,.34.05.68.05,1a2.65,2.65,0,0,0,1.27,2,3.22,3.22,0,0,0,1.61.44,2.87,2.87,0,0,0,2.88-3.13,4.26,4.26,0,0,0-.63-2.24c-1-1.66-3.42-3.08-4.93-4.15a35.9,35.9,0,0,1-4.73-3.61,10.67,10.67,0,0,1-1.42-1.51,9.12,9.12,0,0,1-1.86-5.56,10,10,0,0,1,1.86-5.71c1.37-1.76,3.95-3.62,8.88-3.62a16.2,16.2,0,0,1,2.2.1c3.31.25,6.39,1.37,7.71,4.69a11.31,11.31,0,0,1,.68,4.14Z"/><polygon class="cls-3" points="213.11 122.41 206.33 136.66 215.06 156.86 206.28 156.86 200.57 142.9 198.08 147.49 198.08 156.86 190.03 156.86 190.03 122.41 198.08 122.41 198.08 137.49 204.77 122.41 213.11 122.41"/><polygon class="cls-3" points="233.46 122.41 233.46 128.7 224.63 128.7 224.63 136.12 233.02 136.12 233.02 142.47 224.63 142.47 224.63 150.47 234.24 150.47 234.24 156.86 216.28 156.86 216.28 122.41 233.46 122.41"/><polygon class="cls-3" points="31.02 166.95 23.07 183.65 33.31 207.34 23.01 207.34 16.32 190.97 13.4 196.35 13.4 207.34 3.96 207.34 3.96 166.95 13.4 166.95 13.4 184.62 21.23 166.95 31.02 166.95"/><polygon class="cls-3" points="44.52 166.95 44.52 199.9 55.21 199.9 55.21 207.34 34.74 207.34 34.74 166.95 44.52 166.95"/><path class="cls-3" d="M77.64,167l7.78,40.39H75.35L74.49,201h-8l-.91,6.36h-10L63.74,167ZM67.46,194.06h6l-3-20.82Z"/><path class="cls-3" d="M112.48,179.53h-9.61V176a3,3,0,0,0-.69-2.06,2.66,2.66,0,0,0-2-.74,2.7,2.7,0,0,0-2.86,3A4,4,0,0,0,98,178.5c1.38,2,4.52,3.84,8.87,7,.8.57,1.6,1.2,2.41,1.83a10.51,10.51,0,0,1,3.89,8.75c0,5.95-2.81,8.93-5,10.19-1.6.85-4.06,1.6-8.12,1.6-3.66,0-6.87-.29-9.9-2.81a8.94,8.94,0,0,1-2.75-3.83,18.32,18.32,0,0,1-.63-3.89v-4.17h9.84v3.6c0,.4.06.8.06,1.15a3.1,3.1,0,0,0,1.49,2.4,3.78,3.78,0,0,0,1.89.51,3.36,3.36,0,0,0,3.37-3.66,4.91,4.91,0,0,0-.74-2.63c-1.2-2-4-3.6-5.78-4.87a43.35,43.35,0,0,1-5.55-4.23,12.12,12.12,0,0,1-1.66-1.77,10.68,10.68,0,0,1-2.17-6.52,11.78,11.78,0,0,1,2.17-6.7c1.6-2.06,4.64-4.23,10.41-4.23a20.25,20.25,0,0,1,2.58.11c3.89.29,7.49,1.61,9,5.5a13.3,13.3,0,0,1,.8,4.86Z"/><path class="cls-3" d="M140.85,179.53h-9.61V176a2.93,2.93,0,0,0-.69-2.06,2.65,2.65,0,0,0-2-.74,2.7,2.7,0,0,0-2.86,3,4,4,0,0,0,.69,2.29c1.37,2,4.52,3.84,8.87,7,.8.57,1.6,1.2,2.4,1.83a10.51,10.51,0,0,1,3.89,8.75c0,5.95-2.8,8.93-5,10.19-1.6.85-4.06,1.6-8.12,1.6-3.66,0-6.87-.29-9.9-2.81a8.86,8.86,0,0,1-2.74-3.83,17.67,17.67,0,0,1-.63-3.89v-4.17H125v3.6c0,.4.06.8.06,1.15a3,3,0,0,0,1.48,2.4,3.78,3.78,0,0,0,1.89.51,3.36,3.36,0,0,0,3.37-3.66,4.91,4.91,0,0,0-.74-2.63c-1.2-2-4-3.6-5.78-4.87a43.35,43.35,0,0,1-5.55-4.23,11.54,11.54,0,0,1-1.65-1.77,10.61,10.61,0,0,1-2.18-6.52,11.73,11.73,0,0,1,2.18-6.7c1.6-2.06,4.63-4.23,10.41-4.23a20,20,0,0,1,2.57.11c3.89.29,7.5,1.61,9,5.5a13.09,13.09,0,0,1,.8,4.86Z"/><polygon class="cls-3" points="166.02 166.95 166.02 174.33 155.67 174.33 155.67 183.02 165.51 183.02 165.51 190.46 155.67 190.46 155.67 199.84 166.94 199.84 166.94 207.34 145.89 207.34 145.89 166.95 166.02 166.95"/><polygon class="cls-3" points="181.64 166.95 181.64 199.9 192.34 199.9 192.34 207.34 171.86 207.34 171.86 166.95 181.64 166.95"/><path class="cls-3" d="M219.17,196.07c-.06,2.57-.23,4.69-1.72,7-1,1.6-2.74,3.49-7.09,4.35a23,23,0,0,1-4.58.46c-.8,0-5.89-.06-9-2.69-3.43-2.92-3.2-7.44-3.26-8.58V178.33a13.68,13.68,0,0,1,.69-5.09c1.88-5.15,7.6-6.92,12.53-6.92,1,0,6.58-.06,9.89,3.14a8.06,8.06,0,0,1,2,3.32,15.14,15.14,0,0,1,.58,5.09Zm-16,.8c0,1.37.11,2.91,1.54,3.6a3.1,3.1,0,0,0,1.55.34,3.23,3.23,0,0,0,2.51-1.14,4.29,4.29,0,0,0,.75-2.86v-19.4c-.06-1.37-.12-2.74-1.43-3.54a3.22,3.22,0,0,0-1.66-.4,3.32,3.32,0,0,0-1.89.57c-1.31.92-1.31,2.4-1.37,3.83Z"/><polygon class="cls-3" points="246.68 166.95 246.68 174.33 238.5 174.33 238.5 207.34 228.78 207.34 228.78 174.33 220.37 174.33 220.37 166.95 246.68 166.95"/><polygon class="cls-3" points="273.86 166.95 273.86 174.33 265.67 174.33 265.67 207.34 255.95 207.34 255.95 174.33 247.54 174.33 247.54 166.95 273.86 166.95"/><polygon class="cls-3" points="297.14 166.95 297.14 174.33 286.78 174.33 286.78 183.02 296.62 183.02 296.62 190.46 286.78 190.46 286.78 199.84 298.05 199.84 298.05 207.34 277 207.34 277 166.95 297.14 166.95"/><path class="cls-3" d="M318.76,167c2.63.11,5,.28,7.1,2.06,1.71,1.48,2.91,3.71,2.91,8.35,0,4.29-.8,6.41-2.46,7.72a8.44,8.44,0,0,1-2.52,1,3.86,3.86,0,0,1,3.44,1.83c1.43,2.12,1.49,4.75,1.49,6.87V203a7.1,7.1,0,0,0,1.54,4.35H320.19a9.25,9.25,0,0,1-1-4.75V195.9c-.06-1.38-.11-3.1-1-4.24s-2.11-1.26-3.6-1.32H312.7v17h-9.61V167Zm-6.06,16.59H315a5.85,5.85,0,0,0,1.95-.4c1.77-.86,2.23-3,2.23-4.81,0-1.54-.4-3.43-2.06-4.18a5.55,5.55,0,0,0-2-.28H312.7Z"/><rect class="cls-3" x="335.01" y="166.95" width="9.78" height="40.39"/></g></svg>