<svg xmlns="http://www.w3.org/2000/svg" xmlns:xlink="http://www.w3.org/1999/xlink" viewBox="0 0 142.15 42.65"><defs><style>.cls-1{fill:none;}.cls-2{isolation:isolate;}.cls-3{clip-path:url(#clip-path);}.cls-4{clip-path:url(#clip-path-2);}.cls-5{opacity:0.1;mix-blend-mode:multiply;}.cls-6{clip-path:url(#clip-path-3);}.cls-7{fill:#616160;}.cls-8{clip-path:url(#clip-path-4);}.cls-9{fill:#fff;}</style><clipPath id="clip-path"><rect class="cls-1" x="247.95" y="-958.38" width="1796.03" height="841.89"/></clipPath><clipPath id="clip-path-2"><rect class="cls-1" x="247.95" y="32.02" width="1796.03" height="841.89"/></clipPath><clipPath id="clip-path-3"><rect class="cls-1" x="-275.61" y="-1382.77" width="1966.95" height="2277.18"/></clipPath><clipPath id="clip-path-4"><rect class="cls-1" width="142.15" height="42.65"/></clipPath></defs><title>leasy</title><g class="cls-2"><g id="Lag_1" data-name="Lag 1"><g class="cls-3"><g class="cls-4"><g class="cls-5"><g class="cls-6"><path class="cls-7" d="M1459.82,646.64,1203.14,129.91a1098.57,1098.57,0,0,0-195-292.49c270.78-87.65,445.68-350.06,422.41-633.72a521,521,0,0,0-193.31-429,835,835,0,0,0-537.9-156H341.81l-617.42,16.81v178l9.42,2.86,132.8,31.27a2824.81,2824.81,0,0,0,474.54,31.6H683.07A413,413,0,0,1,975.55-1015a369.85,369.85,0,0,1,113.81,284.42,345.32,345.32,0,0,1-133.3,282.74A576.23,576.23,0,0,1,586.26-340.6H342.52V-895.31A1675.61,1675.61,0,0,1,1.28-945.74V634.36l-276.17,65.06v195H618.88V698.24l-276.17-65V-98H489A355.37,355.37,0,0,1,731-24.91,1049.92,1049.92,0,0,1,927.68,292l276.17,601.28h487.49v-195Z"/></g></g></g></g><g class="cls-8"><rect width="25.81" height="42.66" rx="2.96"/><rect x="29.09" width="25.81" height="42.66" rx="2.96"/><rect x="58.18" width="25.84" height="42.66" rx="2.96"/><rect x="87.27" width="25.81" height="42.66" rx="2.96"/><rect x="116.36" width="25.79" height="42.66" rx="2.96"/><path class="cls-9" d="M7.58,36.23a1.4,1.4,0,0,1-1.24-.57C5.84,35,6,33.87,6,32.37v-23c0-2.6.41-2.85,1.44-2.81l1.82,0,2.18-.08c1.43,0,1.19,1.07,1.19,2.81l0,4.9c0,2.75,0,5.47,0,8.22,0,1.41.08,2.85.08,4.24a9.2,9.2,0,0,0,.08,1.41,1.31,1.31,0,0,0,1.57,1.32l1.6-.13c1.81-.12,1.85,1.39,1.85,2.5V34a2.06,2.06,0,0,1-2.3,2.24l-1.69,0H8.6Z"/><path class="cls-9" d="M35.68,9.51c0-1-.25-2.07.55-2.68.32-.25.9-.37,2.51-.37h7.9c1.73,0,2.14.49,2.18,2.15v.61c0,.45,0,.86,0,1.31v.58c0,2-1,2-2,2l-3.41-.05c-.59,0-1.2.05-1.2,1.65v1.31c0,1.06.74,1.31,1.45,1.27l2.8-.13c1.55-.08,2.14.21,2.14,2.77v1.19c0,1-.12,2.85-1.69,2.77L44.5,23.8c-2.35-.13-2.15.28-2.15,1.35v2.44c0,1.35.08,1.51,1.37,1.51l3.61,0c1.29,0,1.82.09,1.82,3.12v1.53c0,2.42-1.41,2.37-2.18,2.37-1.78,0-3.5-.16-5.23-.16-1.49,0-3,.16-4.49.16s-1.94-1-1.9-1.72l.12-2a13.22,13.22,0,0,0,.21-2.91Z"/><path class="cls-9" d="M63.79,26.78c.12-.65.2-.77.41-2.21.65-4.73,1.48-8.65,2.34-13.67l.17-.94c.28-1.76.41-3.42,1.81-3.42h5A1.88,1.88,0,0,1,75.21,7c.24.28.37.87,1.31,5.3l1.14,5.46c.58,2.62.33,2.54,1.73,10.5.41,2.33,1.27,5.05,1.27,6.32a1.67,1.67,0,0,1-1.88,1.58H75.25a1.38,1.38,0,0,1-1.31-1,3.92,3.92,0,0,1-.26-1.55,5.25,5.25,0,0,0-.21-1.49A1.51,1.51,0,0,0,71.76,31c-1,0-2.38.28-2.34,1.27l0,1.45c.09,2.27-.85,2.48-1.94,2.48H63.75c-1.53,0-1.57-.84-1.57-1.21a9.35,9.35,0,0,1,.32-2Zm6.33-4.56A11.73,11.73,0,0,0,70,23.59v.2c0,.25.39.7,1.56.7.74,0,1.56-.12,1.47-1.15l-.08-.92-1.3-8.59-.33,0Z"/><path class="cls-9" d="M92.74,30.07c0-.82,0-1.4.79-1.85a1.41,1.41,0,0,1,.94-.25c.41,0,.41,0,1.07.33a5.85,5.85,0,0,0,2.74.7,2.36,2.36,0,0,0,1.68-.54,1.9,1.9,0,0,0,.42-1.29c0-1.51-1.07-2.21-2.51-3.52l-1.6-1.46a10,10,0,0,1-3.49-7.81c0-3.42,1.33-5.51,3-6.72,2.09-1.52,4.88-1.64,7-1.64,1.72,0,2.67,0,3.16.57a2.76,2.76,0,0,1,.45,2.07v3c0,1.17-.13,1.55-.33,1.75-.41.41-1.35.29-1.76.2l-.82-.2a6.93,6.93,0,0,0-1.56-.25,2.61,2.61,0,0,0-1.35.37,1.43,1.43,0,0,0-.58,1.11,2.49,2.49,0,0,0,.37,1.23,13.75,13.75,0,0,0,2.37,2.52l2.18,2.05A9.26,9.26,0,0,1,107,23.48a8.43,8.43,0,0,1,.7,3.82c0,2.85-.45,4.89-2.09,6.63s-3.49,2.31-6.68,2.31-4.75-.53-5.29-.81-.87-.68-.87-1.79Z"/><path class="cls-9" d="M129.41,17.46l1.31-8.34c.12-.9.24-2.16,1-2.48a14,14,0,0,1,3.12-.25h1.35c.82,0,2,.08,2,1.07A6.94,6.94,0,0,1,137.82,9l-4.63,14.12a9.83,9.83,0,0,0-.63,3.81v5.94l.09,1.76c.06.78-.13,1.37-1.77,1.37h-1.59l-2.35,0c-.49,0-.77,0-1-.41s-.12-1.17-.12-2.51V25.54a7.76,7.76,0,0,0-.45-2.46l-4.8-14a6,6,0,0,1-.32-1.54c0-1,.85-1.15,1.51-1.15s1.32.08,1.93.08,1.27-.08,1.93-.08c1.67,0,1.88.82,2,1.66l1.48,9.41Z"/><path class="cls-9" d="M21.85,12a2.25,2.25,0,0,1-.36,1.13L19.82,16a1.18,1.18,0,0,1-1.06.52H17.24c-1,0-.55-.81-.52-.88l.3-.55a13.92,13.92,0,0,0,1-2h-.58c-1.52,0-1.52-.42-1.52-1.34V7.69c0-.7.07-1.14,1.37-1.14h3.28c.71,0,1.26.07,1.26,1.33Z"/><path class="cls-9" d="M136.71,32.56h.58c.47,0,.92.07.92.64a.55.55,0,0,1-.48.54h0A.42.42,0,0,1,138,34l.44,1H138l-.37-.82c-.1-.23-.21-.23-.39-.23h-.21v1h-.34Zm.34,1h.29c.32,0,.51-.15.51-.37s-.16-.35-.47-.35h-.33Z"/><path class="cls-9" d="M135.23,33.75a2.2,2.2,0,1,0,2.2-2.19,2.21,2.21,0,0,0-2.2,2.19m.34,0a1.86,1.86,0,1,1,1.86,1.85,1.86,1.86,0,0,1-1.86-1.85"/></g></g></g></svg>