<svg id="Layer_1" data-name="Layer 1" xmlns="http://www.w3.org/2000/svg" viewBox="0 0 633.74 149.25"><defs><style>.cls-1{fill:#020202;fill-rule:evenodd;}</style></defs><title>matas</title><g id="surface1"><path class="cls-1" d="M0,43.36v.46a3.5,3.5,0,0,0,1.42,3.12c2.06,1.68,9.19,1,13.17,1v88.79c-3.05,0-5.83.85-8.7,1.31A9,9,0,0,0,2,139.14c-3.87,2.71-1.28,7.61,2.19,7.61H51.7c3.47,0,6-4.9,2.18-7.61-1.64-1.14-12.52-2.4-14.27-2.4v-78c0-1.09,3.88-6.28,4.7-7.39C55.92,35.8,75.4,33.15,82.2,46.21c2.58,5,3.68,11.87,3.68,19.24v71.29c-2.91,0-6.29.85-9.12,1.3-10.12,1.65-5.14,8.71-1.72,8.71h46.69c5.69,0,6-6.23,2.52-7.93-2-1-10.37-1.38-13.36-2.08l-.14-78.52c1.39-4.07,10-13.9,15-16.67,9.73-5.36,22.55-5.55,28.07,5.55,2.83,5.69,3.75,12.79,3.75,21.27v68.37a62.27,62.27,0,0,0-8.82,1.19c-4.46.72-6.19,1-6.19,5.07,0,2.56,2,3.75,4.58,3.75h46.7c3.58,0,8.07-7.07-1.36-8.65-12.49-2.08-10.32,1-10.32-10.53V75.46c0-16.85-.82-30.89-9.64-42.06A20.56,20.56,0,0,0,167,28.51c-9.08-5.43-20.84-5.32-30.85-2-18.36,6.12-25.38,20.92-27.77,22.67-.5-6-5.26-13.88-9.26-17.83-11-10.88-31.8-8.32-44.6.24C43.94,38.68,40.45,46.71,38.77,48a52.57,52.57,0,0,0-.24-7.69L37.92,25c-.38-5.42-1.84-4.6-8.32-4.6-5.46,0-5.79,13.2-21.2,18-3.29,1-8.4.48-8.4,5"/><path class="cls-1" d="M447.33,117.15c0-12.63,3.12-18.45,14.59-24.18L484.86,81.3c0,12.5-.07,25,0,37.52,0,4.43.17,4.63-2.19,7C468.06,140.42,447.33,137.89,447.33,117.15ZM426.9,49.61c0,4.21.2,7.25,3.22,10.54,4.4,4.77,13.67,5.57,16.65-1.93,1.19-3,.57-8.16.56-11.94,0-8.48,1-12.09,13.76-12.09,10.07,0,16.81,5,20.16,11.94,3.88,8,3.61,16.89,3.61,28.5a39.07,39.07,0,0,0-5,1.71L445,89c-12.82,4.54-24.33,15.22-24.33,32,0,16.47,12.8,27.93,27.93,27.93,9.53,0,16.16-1.49,23.38-5.81a51.69,51.69,0,0,0,7.58-5.34c3.55-3.14,3.67-3.92,6.14-6.77.66,7.76,3.36,13.86,10.89,16.63,7.19,2.64,16.33.37,22.39-2.53,15.09-7.24,9.79-12.71,4.86-11-14.27,4.94-12.66-1-14.13-10.85-.71-4.81-.24-50.23-.24-57.29,0-35.31-19.09-46.52-51.74-40.06-11.82,2.34-30.81,9.68-30.81,23.8"/><path class="cls-1" d="M239.3,117.57c0-6.47.26-11.55,4.33-16.93,4.73-6.24,13.92-9.06,21.54-13.49,3.62-2.11,7.9-3.87,11.65-5.85,0,12.5-.06,25,0,37.52,0,4.43.18,4.63-2.18,7-6.72,6.71-18,12.25-27,7.61C242.46,130.76,239.3,124,239.3,117.57Zm-20.43-68c0,4,.39,8,3.45,10.73,5,4.52,12.84,5.31,16.32-1.8,4.33-8.88-7.72-24.35,14.42-24.35a24.45,24.45,0,0,1,12.54,3.3,19.57,19.57,0,0,1,7.61,8.64c4.05,8.09,3.61,16.72,3.61,28.5L267,78.12c-3.58,1.24-6.63,2.5-10.11,3.64-6.94,2.29-23,7.71-29.07,11.78-5.15,3.46-10.31,8.84-12.8,14.73-7.9,18.7,4,40.56,25.56,40.56,11.08,0,18.89-2.39,26.74-7.86,7.4-5.13,8.76-8.55,9.79-9.47.36-.32.07-1.41.78,0,.36.72.17,1,.26,1.81,1.78,18.26,22.45,19.4,39.32,7.75,6.34-4.37,3.07-8.68-1.58-7-12.68,4.51-13.13.62-14.05-11-.92-11.82-.4-44.15-.39-57.14,0-12.68-2.5-23.06-8-30.38C279,16.14,237,24.79,224.8,37.2c-2.45,2.5-5.93,7.65-5.93,12.41"/><path class="cls-1" d="M547,56.28c0,10.09.62,14,6.85,21.92,2.24,2.87,7.63,6.94,10.79,8.8l22.15,12.46c8.11,4.85,16.38,10.17,17.28,21.93a18.8,18.8,0,0,1-5.47,14c-7,6.47-21.45,6.23-30.18,2.85-7.24-2.81-2-13.75-4.4-21.45-3-9.63-17.78-6.94-19.9,4.14-3,15.71,14.84,28.31,34.57,28.31h1.88c7.37,0,14.19-.15,21.05-2.91,4.87-2,8-3.35,11.92-6.43,6-4.68,12.25-14,12.25-24.43,0-8.28-.42-13.62-5.16-20.68C612,82,602.52,79.65,591.75,73.19c-6.77-4-10.8-5-18.34-10.82-8.84-6.82-7-24.55,8.48-28.28,5.43-1.3,14.14-2.25,18.75,1.45,6.57,5.28-1.77,19.45,6.23,25.05,5.25,3.7,16.81.28,16.81-12.23A18.71,18.71,0,0,0,620,37.46c-12.39-16.74-43.12-16.53-59.6-5.28a31.87,31.87,0,0,0-9.24,9.52A30.75,30.75,0,0,0,547,56.28"/><path class="cls-1" d="M345.19,75.46V120.9c0,5.74.9,12,3.75,16.27,5.45,8.15,12.33,10.48,22.49,11.28,11.39.88,22.27-2.1,30.15-9.1,3.32-3,8-6.88,5.23-10-4.7-5.37-8.05,7.42-24.1,7.42-13.4,0-12.92-17.72-12.92-29.18V39.61h31.27c5.41,0,5.41-9.18,0-9.18H369.79V2.92c0-1.93-1-2.67-2.68-2.92h-7.32c-2,0-4.61,6.71-6.12,9.73-4.42,8.85-9,19.3-18.91,20.7-2.65.37-5.15.07-6.57,1.75a4.51,4.51,0,0,0-.36,5.61c1.38,2.14,2.89,1.84,6.1,1.82,13.55-.09,11.76-.93,11.69,4.16-.15,10.89-.43,20.66-.43,31.69"/></g></svg>