<svg id="Layer_1" data-name="Layer 1" xmlns="http://www.w3.org/2000/svg" viewBox="0 0 174 54.8"><defs><style>.cls-1{fill:#07070a;}.cls-2{fill:#f15e30;}</style></defs><title>mofibo</title><path class="cls-1" d="M63,33.7H59.5V17.3H56.6V14.9h5.9v2.7h.4a4.44,4.44,0,0,1,.8-1.1A6.89,6.89,0,0,1,65,15.4a7.57,7.57,0,0,1,1.8-.9,6.61,6.61,0,0,1,2.4-.3,11,11,0,0,1,1.8.2,4,4,0,0,1,1.5.6,4.26,4.26,0,0,1,1.2,1.1,5.83,5.83,0,0,1,.8,1.8h.2a8.34,8.34,0,0,1,.8-1.2,7.41,7.41,0,0,1,1.3-1.2,6.63,6.63,0,0,1,1.9-.9,6.72,6.72,0,0,1,2.4-.4,8.33,8.33,0,0,1,2.2.3,5,5,0,0,1,1.9,1,5.14,5.14,0,0,1,1.3,2.2,12.22,12.22,0,0,1,.5,3.7V33.6H83.4V22a7.81,7.81,0,0,0-.8-3.7,3.08,3.08,0,0,0-2.9-1.4,7.72,7.72,0,0,0-1.5.2c-.5.2-.9.4-1.4.6a8.34,8.34,0,0,0-1.2.8,3.45,3.45,0,0,0-.8.9V33.6H71.4V22a7.81,7.81,0,0,0-.8-3.7,3.08,3.08,0,0,0-2.9-1.4,7.72,7.72,0,0,0-1.5.2c-.5.2-.9.4-1.4.6a8.34,8.34,0,0,0-1.2.8,6.47,6.47,0,0,0-.8.9Z"/><path class="cls-1" d="M100.2,14.3a11.48,11.48,0,0,1,3.7.6,7,7,0,0,1,2.9,1.9,8.72,8.72,0,0,1,1.8,3.1,13.17,13.17,0,0,1,.7,4.2c0,3.3-.8,5.9-2.4,7.7a8.38,8.38,0,0,1-6.6,2.7,8.59,8.59,0,0,1-6.7-2.6c-1.6-1.8-2.4-4.4-2.3-7.8A11.41,11.41,0,0,1,92,20a8.94,8.94,0,0,1,1.9-3.1,10,10,0,0,1,2.9-2A9.34,9.34,0,0,1,100.2,14.3Zm-5.4,9.8A10.54,10.54,0,0,0,96.3,30a4.51,4.51,0,0,0,4,2.2,4.46,4.46,0,0,0,4.1-2.2,11,11,0,0,0,1.3-5.9,10.32,10.32,0,0,0-.4-3,7.45,7.45,0,0,0-1.1-2.4,6.48,6.48,0,0,0-1.7-1.6,4.28,4.28,0,0,0-2.2-.6,4.69,4.69,0,0,0-4.1,2.1,8.88,8.88,0,0,0-1.4,5.5Z"/><path class="cls-1" d="M121.3,15l-.9,2.4h-3.3V33.8h-3.5V13.5q0-4.65,2.4-6.6c1.6-1.4,3.8-2,6.7-2a9.15,9.15,0,0,1,1.6.1l1.8.3c.6.1,1.3.3,1.9.4a10.66,10.66,0,0,1,1.9.7v4.3h-3.5V7.9a4.42,4.42,0,0,0-1.6-.6,12.25,12.25,0,0,0-1.9-.2,6.17,6.17,0,0,0-4.3,1.4q-1.5,1.35-1.5,4.8v1.8h4.2Zm1.2,2.3.9-2.4H130V33.6h-3.5V17.3Z"/><path class="cls-1" d="M165,14.3a11.48,11.48,0,0,1,3.7.6,6.1,6.1,0,0,1,2.8,1.9,8.72,8.72,0,0,1,1.8,3.1,13.17,13.17,0,0,1,.7,4.2c0,3.3-.8,5.9-2.4,7.7a8.38,8.38,0,0,1-6.6,2.7,8.59,8.59,0,0,1-6.7-2.6q-2.4-2.7-2.4-7.8a11.41,11.41,0,0,1,.7-4.1,8.94,8.94,0,0,1,1.9-3.1,10,10,0,0,1,2.9-2A10.46,10.46,0,0,1,165,14.3Zm-5.5,9.8A10.54,10.54,0,0,0,161,30a4.51,4.51,0,0,0,4,2.2,4.46,4.46,0,0,0,4.1-2.2,11,11,0,0,0,1.3-5.9,10.32,10.32,0,0,0-.4-3,7.45,7.45,0,0,0-1.1-2.4,6.48,6.48,0,0,0-1.7-1.6,4.28,4.28,0,0,0-2.2-.6,4.69,4.69,0,0,0-4.1,2.1,9.59,9.59,0,0,0-1.4,5.5Z"/><path class="cls-1" d="M136.5,7.8h-2.8V5.4h6.2v12h0a4.48,4.48,0,0,1,2-2.1,6.53,6.53,0,0,1,3.7-.9,8,8,0,0,1,2.6.5,5.33,5.33,0,0,1,2.3,1.6,8.89,8.89,0,0,1,1.7,2.9,14,14,0,0,1,.7,4.4,12,12,0,0,1-.7,4.2,10.91,10.91,0,0,1-1.9,3.3,8.13,8.13,0,0,1-3,2.1,8.3,8.3,0,0,1-3.8.7,13.42,13.42,0,0,1-3.5-.4,13.76,13.76,0,0,1-3.4-1.2Zm3.3,23.6a8.33,8.33,0,0,0,1.5.4,9.7,9.7,0,0,0,1.7.1,5.42,5.42,0,0,0,4.7-2.1,9.19,9.19,0,0,0,1.5-5.5,9.37,9.37,0,0,0-1.4-5.4,4.37,4.37,0,0,0-3.6-1.9,4.86,4.86,0,0,0-2.8.7,8.52,8.52,0,0,0-1.7,1.6V31.4Z"/><path class="cls-1" d="M63.1,50.5c0-.2-.1-.3-.1-.5v-.4a1.78,1.78,0,0,1-.8.7,2,2,0,0,1-1.1.3,2.46,2.46,0,0,1-1.5-.5,2,2,0,0,1-.5-1.4,1.75,1.75,0,0,1,.7-1.4,3.56,3.56,0,0,1,1.9-.5H63v-.6a1.28,1.28,0,0,0-2.1-.9.91.91,0,0,0-.3.7H59.5a1.56,1.56,0,0,1,.6-1.2,2.35,2.35,0,0,1,1.7-.6,2.86,2.86,0,0,1,1.7.5,2,2,0,0,1,.6,1.5v3.6c0,.2.1.4.1.6Zm-1.8-.8a2,2,0,0,0,1.1-.3,1.34,1.34,0,0,0,.6-.7v-1H61.7a2,2,0,0,0-1.1.3.91.91,0,0,0-.4.8.71.71,0,0,0,.3.6A1.33,1.33,0,0,0,61.3,49.7Z"/><path class="cls-1" d="M73.9,47.7a3.28,3.28,0,0,1-.6,2.1,2.34,2.34,0,0,1-1.8.8,3.55,3.55,0,0,1-1-.2,1.34,1.34,0,0,1-.7-.6v3H68.7V44.3h.9l.2.8a1.85,1.85,0,0,1,.8-.7,1.8,1.8,0,0,1,1-.2,2.14,2.14,0,0,1,1.8.9,4.27,4.27,0,0,1,.6,2.4Zm-1.1-.2a2.86,2.86,0,0,0-.4-1.7,1.39,1.39,0,0,0-1.2-.7,1.88,1.88,0,0,0-.8.2l-.6.6v3a2.65,2.65,0,0,0,.5.6,2.35,2.35,0,0,0,.8.2,1.43,1.43,0,0,0,1.2-.6,2.6,2.6,0,0,0,.4-1.5Z"/><path class="cls-1" d="M79,50.5c0-.2-.1-.3-.1-.5v-.4a1.78,1.78,0,0,1-.8.7,2,2,0,0,1-1.1.3,2.46,2.46,0,0,1-1.5-.5,1.62,1.62,0,0,1-.5-1.4,1.75,1.75,0,0,1,.7-1.4,3.56,3.56,0,0,1,1.9-.5h1.2v-.6a1.61,1.61,0,0,0-.3-.9,1.88,1.88,0,0,0-.8-.2,1.61,1.61,0,0,0-.9.3.91.91,0,0,0-.3.7H75.4a1.56,1.56,0,0,1,.6-1.2,2.35,2.35,0,0,1,1.7-.6,2.86,2.86,0,0,1,1.7.5,2,2,0,0,1,.6,1.5v3.6c0,.2.1.4.1.6Zm-1.8-.8a2,2,0,0,0,1.1-.3,1.34,1.34,0,0,0,.6-.7v-1H77.6a2,2,0,0,0-1.1.3.91.91,0,0,0-.4.8.71.71,0,0,0,.3.6A1.14,1.14,0,0,0,77.2,49.7Z"/><path class="cls-1" d="M84.6,45.4H84a2.35,2.35,0,0,0-.8.2,1.47,1.47,0,0,0-.5.6v4.4H81.6V44.5h1l.1.9a4.35,4.35,0,0,1,.6-.7,1.61,1.61,0,0,1,.9-.3h.4Z"/><path class="cls-1" d="M87.4,42.9v1.5h1.2v.8H87.4v3.7a.85.85,0,0,0,.2.6.76.76,0,0,0,.5.2h.2c.1,0,.2,0,.2-.1l.2.8c-.1.1-.2.1-.4.2s-.3.1-.5.1a1.5,1.5,0,0,1-1.1-.4,1.7,1.7,0,0,1-.4-1.3V45.3h-1v-.8h1V43h1.1Z"/><path class="cls-1" d="M92.4,47.4a3.07,3.07,0,0,1,.7-2.2,2.88,2.88,0,0,1,2-.9,2.38,2.38,0,0,1,2,.9,3.23,3.23,0,0,1,.7,2.2v.1a3.07,3.07,0,0,1-.7,2.2,2.67,2.67,0,0,1-4,0,3.23,3.23,0,0,1-.7-2.2Zm1.1.1a2.93,2.93,0,0,0,.4,1.6,1.57,1.57,0,0,0,2.1.4c.1-.1.3-.2.4-.4a2.93,2.93,0,0,0,.4-1.6v-.1a2.93,2.93,0,0,0-.4-1.6,1.22,1.22,0,0,0-1.2-.6,1.43,1.43,0,0,0-1.2.6,2.93,2.93,0,0,0-.4,1.6Z"/><path class="cls-1" d="M99.7,50.5V45.2h-1v-.8h1v-.8a2.07,2.07,0,0,1,.5-1.5,1.62,1.62,0,0,1,1.4-.5h.4a.6.6,0,0,1,.4.1l-.1.9h-.5a.91.91,0,0,0-.7.3.78.78,0,0,0-.2.8v.8H102v.8h-1.1v5.3H99.7Z"/><path class="cls-1" d="M106.4,48.8a4.94,4.94,0,0,0,1.6.5c.6,0,.8-.2.8-.5s-.2-.5-.9-.7c-1.3-.4-1.8-1.1-1.7-1.8,0-1.1,1-2,2.5-2a3.29,3.29,0,0,1,1.7.4l-.3,1.3a6.47,6.47,0,0,0-1.3-.4c-.5,0-.7.2-.7.5s.2.5,1,.7a2.08,2.08,0,0,1,1.7,1.9c0,1.1-.9,2-2.6,2a4.48,4.48,0,0,1-2-.4Z"/><path class="cls-1" d="M113.7,42.7v1.7h1.4v1.4h-1.4V48c0,.7.2,1.1.8,1.1a1.27,1.27,0,0,0,.6-.1v1.4a5,5,0,0,1-1.2.2,2.39,2.39,0,0,1-1.4-.5,2.29,2.29,0,0,1-.5-1.8v-5Z"/><path class="cls-1" d="M122.1,47.4a3.12,3.12,0,0,1-3.2,3.3,3,3,0,0,1-3.2-3.1,3.07,3.07,0,0,1,3.3-3.2A2.72,2.72,0,0,1,122.1,47.4Zm-4.4,0c0,1.1.4,1.8,1.3,1.8s1.2-.7,1.2-1.8c0-.9-.3-1.8-1.2-1.8s-1.3.9-1.3,1.8Z"/><path class="cls-1" d="M123.3,46.4v-2h1.6l.1,1.1h0a1.85,1.85,0,0,1,1.7-1.3h.4v1.9h-.5a1.22,1.22,0,0,0-1.3,1v3.5h-1.9Z"/><path class="cls-1" d="M129.7,44.4l.9,3c.1.3.2.8.3,1.1h0c.1-.3.2-.8.3-1.2l.8-3h2l-1.4,4c-.9,2.4-1.5,3.4-2.1,4a2.5,2.5,0,0,1-1.8.8l-.4-1.6a6.89,6.89,0,0,0,.8-.3,2,2,0,0,0,.8-.8.5.5,0,0,0,0-.6l-2.2-5.6Z"/><path class="cls-1" d="M136.9,42.7v1.7h1.4v1.4h-1.4V48c0,.7.2,1.1.8,1.1a1.27,1.27,0,0,0,.6-.1v1.4a5,5,0,0,1-1.2.2,2.39,2.39,0,0,1-1.4-.5,2.76,2.76,0,0,1-.5-1.8v-5Z"/><path class="cls-1" d="M140.8,48c0,.8.8,1.2,1.7,1.2a5.08,5.08,0,0,0,1.7-.3l.3,1.3a5.7,5.7,0,0,1-2.2.4c-2.1,0-3.3-1.2-3.3-3.1a3.09,3.09,0,0,1,3.1-3.3c2,0,2.7,1.5,2.7,3.1a2.2,2.2,0,0,1-.1.8Zm2.2-1.3a1.06,1.06,0,0,0-1.1-1.2,1.29,1.29,0,0,0-1.2,1.2Z"/><polygon class="cls-1" points="145.9 50.5 147.8 50.5 147.8 41.9 145.9 42.4 145.9 50.5"/><path class="cls-2" d="M23.7,1.4C1.9,1.3,0,26.2,0,30.7.1,45.2,3.2,54.8,3.2,54.8,14,46,29.9,50,42.3,38.3,56.6,24.9,51.8,1.4,23.7,1.4Z"/><path d="M3.3,54.8S.2,45.2.1,30.7C.1,26.3,2,1.4,23.8,1.4c28.1,0,32.9,23.5,18.6,36.9C29.9,50,14.1,46,3.3,54.8Z"/></svg>