<svg id="Layer_1" data-name="Layer 1" xmlns="http://www.w3.org/2000/svg" viewBox="0 0 741.84 115.78"><title>momondo</title><path d="M65.93,44.05a38.25,38.25,0,0,1,28.14-12.5c24.72,0,38.08,17.05,38.08,38.08V106a1.51,1.51,0,0,1-1.42,1.42h-17a1.33,1.33,0,0,1-1.42-1.42V69.63c0-13.08-8.81-16.77-18.19-16.77-9.1,0-18.19,3.69-18.19,16.77V106a1.51,1.51,0,0,1-1.42,1.42H57.69A1.34,1.34,0,0,1,56.27,106V69.63c0-13.08-8.81-16.77-18.19-16.77-9.09,0-18.19,3.69-18.19,16.77V106a1.51,1.51,0,0,1-1.42,1.42h-17A1.34,1.34,0,0,1,0,106V69.63c0-21,13.36-38.08,37.8-38.08a37.3,37.3,0,0,1,28.13,12.5M220.25,69.91c0,21.32-14.78,38.08-39.79,38.08s-39.79-16.76-39.79-38.08c0-21.6,14.78-38.08,39.79-38.08C205.47,31.55,220.25,48.6,220.25,69.91Zm-19,0c0-10.51-6.82-19.32-20.75-19.32-14.78,0-20.74,8.81-20.74,19.32s6,19.33,20.74,19.33C195,89,201.21,80.43,201.21,69.91Z"/><path d="M295,44.05a38.25,38.25,0,0,1,28.14-12.5c24.72,0,38.08,17.05,38.08,38.08V106a1.52,1.52,0,0,1-1.42,1.42H343A1.34,1.34,0,0,1,341.6,106V69.63c0-13.08-8.81-16.77-18.19-16.77-9.09,0-18.19,3.69-18.19,16.77V106a1.51,1.51,0,0,1-1.42,1.42H287a1.34,1.34,0,0,1-1.42-1.42V69.63c0-13.08-8.81-16.77-18.19-16.77-9.09,0-18.18,3.69-18.18,16.77V106a1.52,1.52,0,0,1-1.42,1.42H231.05a1.34,1.34,0,0,1-1.42-1.42V69.63c0-21,13.35-38.08,37.79-38.08A37,37,0,0,1,295,44.05M449.31,69.91c0,21.32-14.78,38.08-39.79,38.08s-39.79-16.76-39.79-38.08c0-21.6,14.78-38.08,39.79-38.08C434.24,31.55,449.31,48.6,449.31,69.91Zm-19,0c0-10.51-6.54-19.32-20.75-19.32-14.78,0-20.75,8.81-20.75,19.32s6,19.33,20.75,19.33C424,89,430.27,80.43,430.27,69.91Zm27.85-.28V106a1.34,1.34,0,0,0,1.42,1.42h16.77a1.34,1.34,0,0,0,1.42-1.42V69.63c0-13.08,8.81-16.77,18.18-16.77s18.19,3.69,18.19,16.77V106a1.34,1.34,0,0,0,1.42,1.42h16.77a1.34,1.34,0,0,0,1.42-1.42V69.63c0-21-12.79-38.08-38.08-38.08-24.72,0-37.51,17.05-37.51,38.08"/><path d="M620.67,0H603.91a1.34,1.34,0,0,0-1.42,1.42V38.37c-3.7-3.41-12.22-6.82-19.9-6.82-25,0-39.78,16.76-39.78,38.08s14.77,38.08,39.78,38.08c24.73,0,39.79-14.78,39.79-41.49V1.14A1.91,1.91,0,0,0,620.67,0ZM582.31,89c-14.78,0-20.75-8.52-20.75-19.32,0-10.52,6-19.33,20.75-19.33,13.92,0,20.74,8.53,20.74,19.33S596.8,89,582.31,89Z"/><path d="M670.69,31.55c-25,0-39.78,16.76-39.78,38.08s14.77,38.08,39.78,38.08,39.79-16.77,39.79-38.08C710.48,48.6,695.42,31.55,670.69,31.55Zm0,57.4C655.91,89,650,80.14,650,69.63s6-19.33,20.74-19.33c13.93,0,20.75,8.81,20.75,19.33C691.44,80.43,685.19,89,670.69,89Z"/></svg>