<svg id="Layer_1" data-name="Layer 1" xmlns="http://www.w3.org/2000/svg" viewBox="0 0 805.61 167.66"><title>pandora</title><path id="path4" d="M505.53,29h3.41L506.1.28,505.81,0H505V.28L501.83,29h3.7Zm16.2,2v-.28l4.83-25.58V4.83l-.86-.28-.28.28L514.91,29.27Zm-5.12,11.09a4.07,4.07,0,0,0,4-4,4,4,0,1,0-4,4Zm-11.08-1.42a4.07,4.07,0,0,0,4-4,4,4,0,0,0-8,0C501.27,39.21,503.25,40.64,505.53,40.64ZM489.33,31l6.54-1.7h.28L485.35,4.83l-.28-.28-.57.28-.28.28,4.83,25.58Zm.85,6.82a3.89,3.89,0,0,0,4,4,4.06,4.06,0,0,0,4-4,3.88,3.88,0,0,0-4-4C492.17,34.1,490.18,35.8,490.18,37.79ZM34.38,49.16H0S.85,57.4.85,71.61V143.5C.85,157.71,0,166,0,166l.28.29H22.73V166s-.85-8.24-.85-22.45v-21l.28-.28c3.13.28,10,.57,12.22.57,23,0,42.91-13.93,42.91-37.79C77,62.23,57.12,49.16,34.38,49.16Zm-1.13,54.56a76.34,76.34,0,0,1-11.37-.85V68.2H35C46.6,68.2,55.7,72.75,55.7,85S47.74,103.72,33.25,103.72ZM141,58.54a69.24,69.24,0,0,1-3.41-9.38l-.29-.28h-17.9l-.29.28a45.53,45.53,0,0,1-3.12,9.38l-39.5,94.91A65.74,65.74,0,0,1,69.62,166v.29h23l.28-.29c0-.57.57-3.41,3.41-10.51l7.11-17.9H154.3l7.67,17.9c2.56,6.82,4,10.51,4,10.51l.29.29h23V166a75.19,75.19,0,0,1-6.82-12.5Zm-29.56,59.67L127.87,77h.29l17.9,41.2Zm193.23-69-20.46-.28-.28.28s.85,8.24.85,22.45v58.82h-.28L221.36,49.16H198.91c2.56,5.4,4,9.09,4,11.65V143.5c0,14.21-.85,22.45-.85,22.45l.28.29h20.46l.29-.29s-.85-8.24-.85-22.45v-60h.28L285.87,166h19l.28-.28s-.85-8.24-.85-22.45V71.61A174.49,174.49,0,0,1,304.62,49.16Zm63.66,0H329.06l-.28.28s.85,8.25.85,22.45v71.9c0,14.21-.85,22.45-.85,22.45l.28.28H341c7.95,0,16.76,1.14,26.71,1.14,35.8,0,61.38-25.29,61.38-59.39C429.09,73.6,404.37,49.16,368.28,49.16Zm-1.42,98.61c-5.69,0-10.8-.29-13.93-1.14-1.7-.57-2.27-1.14-2.27-4.26V68.2h15.63c25.29,0,41.49,17,41.49,39.78C407.78,130.43,391.58,147.77,366.86,147.77ZM505.53,47.46c-33.82,0-60,26.14-60,60,0,34.1,26.14,60,60,60,34.1,0,60-25.86,60-60C565.49,73.6,539.63,47.46,505.53,47.46Zm0,100.87c-21.6,0-38.65-17.61-38.65-40.63s16.77-40.64,38.65-40.64,38.64,17.62,38.64,40.64C544.17,130.43,527.41,148.33,505.53,148.33Zm143.22-21.88c-2.84-4.54-7.11-8.24-11.65-9.66v-.28c12.22-2.56,23.58-16.77,23.58-31,0-19.32-14.77-36.37-37.79-36.37H585.38l-.29.28s.86,8.25.86,22.45v71.9c0,14.21-.86,22.45-.86,22.45l.29.28h22.45l.28-.28s-.85-8.24-.85-22.45V121.34c11.08,0,15.63,2.27,19.61,8.52l9.66,15.06c8,12.79,11.08,20.75,11.08,20.75l.28.28h26.72v-.28a199.38,199.38,0,0,1-14.5-20.75Zm-31-23.87a68.58,68.58,0,0,1-10.51-.57V68.2h12.79c12.5,0,19.32,8.24,19.32,17.62C639.37,94.63,632.55,102.58,617.77,102.58Zm181,50.87L757.3,58.54a69.24,69.24,0,0,1-3.41-9.38l-.29-.28H735.42l-.29.28A46.34,46.34,0,0,1,732,58.54l-39.22,94.91A65.74,65.74,0,0,1,686,166v.29h23l.28-.29c0-.57.57-3.41,3.41-10.51l7.11-17.9h50.86l7.68,17.9c2.55,6.82,4,10.51,4,10.51l.29.29h23V166A74.29,74.29,0,0,1,798.79,153.45Zm-71-35.24L744.23,77h.28l17.9,41.2Z"/></svg>