<svg id="Layer_1" data-name="Layer 1" xmlns="http://www.w3.org/2000/svg" viewBox="0 0 789.15 190.66"><defs><style>.cls-1{fill:#53565a;}</style></defs><title>Tegnebræt 5</title><path d="M50.1,93.1a12.74,12.74,0,0,0,4.24-10v-.28q0-7-4.45-10.45t-12.4-3.48H16.19v28H37.92Q45.86,96.87,50.1,93.1Z"/><path d="M150.34,147V107.86H110.78V147H89.32V49.5h21.46V88.09h39.56V49.5h16.82A95.32,95.32,0,0,0,0,49.5H40.15q18.52,0,28.42,9.89,8.36,8.35,8.36,22.29V82q0,11.83-5.78,19.29A33.5,33.5,0,0,1,56,112.18L79.86,147H54.77l-20.9-31.2H17V147H3.5a95.28,95.28,0,0,0,160.16,0Z"/><rect class="cls-1" x="215.5" y="109.21" width="572.39" height="2.2"/><path d="M326.93,28.1,339,57.34H315ZM320.27,7.92,285.53,91.26h15.81l8-19.56h35.37l7.84,19.56h16.26L334,7.92Z"/><path d="M432.74,50c0,15.88-10.44,26.55-26,26.55H392.41V23.21h14.37c15.28,0,26,11,26,26.79m-26-41.5H377.06V91.28h29.72c24.31,0,42-17.45,42-41.5s-17.64-41.26-42-41.26"/><path d="M690.84,50c0,15.87-10.83,27.83-25.19,27.83s-25.41-12.06-25.41-28.06,10.83-27.83,25.19-27.83S690.84,34,690.84,50M665.65,7.11c-23.6,0-41.41,18.44-41.41,42.88S642,92.65,665.42,92.65s41.4-18.44,41.4-42.88S689.13,7.12,665.64,7.12"/><path d="M264.86,35.88c0,7.88-5.75,12.78-15,12.78h-19V23.21h18.9c9.76,0,15.13,4.49,15.13,12.67m15.56-.82c0-16.38-11.34-26.57-29.59-26.57H215.51V91.28h15.32V63H246.5l19,28.24h18.12L262.49,60.2c11.57-3.77,17.93-12.66,17.93-25.13"/><rect x="461.45" y="8.5" width="15.33" height="82.76"/><path d="M523.83,42.55c-15-3.75-17.67-6.41-17.67-12,0-5.29,4.71-8.85,11.72-8.85,6.74,0,13.43,2.67,20.44,8.15l.74.57,8.25-12.18-.6-.51A42.75,42.75,0,0,0,518.1,7.34c-16.06,0-27.27,10.07-27.27,24.49,0,15.44,9.68,20.91,26.4,25.15C531.59,60.45,534,63.38,534,68.63c0,5.82-4.92,9.42-12.83,9.42-8.74,0-15.86-3.08-23.82-10.3l-.68-.62-9.27,11.53.6.56a47.41,47.41,0,0,0,32.84,13.2c17.3,0,28.48-9.88,28.48-25.18,0-12.92-7.39-20.07-25.51-24.69"/><path d="M590.65,42.55c-15-3.75-17.67-6.41-17.67-12,0-5.29,4.71-8.85,11.71-8.85,6.74,0,13.43,2.67,20.45,8.15l.73.57,8.26-12.18-.6-.51A42.76,42.76,0,0,0,584.91,7.34c-16,0-27.26,10.07-27.26,24.49,0,15.44,9.68,20.91,26.39,25.15,14.37,3.47,16.79,6.4,16.79,11.65,0,5.82-4.91,9.42-12.82,9.42-8.73,0-15.86-3.08-23.82-10.3l-.69-.62-9.26,11.53.6.56a47.39,47.39,0,0,0,32.83,13.2c17.31,0,28.49-9.88,28.49-25.18,0-12.92-7.39-20.07-25.51-24.69"/><polygon points="772.78 8.5 772.78 62.74 732.95 8.85 732.69 8.5 718.78 8.5 718.78 91.27 733.89 91.27 733.89 35.41 774.94 90.91 775.2 91.27 787.89 91.27 787.89 8.5 772.78 8.5"/><rect x="215.55" y="109.14" width="572.31" height="2.2"/><path d="M215.16,128.91h9.53v22.56h25.9V128.91h9.54v54.28h-9.54V160.3h-25.9v22.87h-9.53Z"/><path d="M318,156.2v-.15c0-15.28,11.78-28.06,28.44-28.06s28.3,12.64,28.3,27.91v.15c0,15.29-11.78,28.07-28.44,28.07S318,171.48,318,156.2Zm46.75,0v-.15c0-10.54-7.68-19.22-18.45-19.22S328,145.36,328,155.9v.15c0,10.55,7.68,19.23,18.45,19.23s18.28-8.53,18.28-19.08Z"/><path d="M447,137.75H429.75v-8.84h44.11v8.84H456.57v45.43H447Z"/><path d="M538.87,128.91h40.24v8.53h-30.7v14.11h27.21v8.61H548.41v14.5h31.08v8.53H538.86Z"/><path d="M650.81,128.91h9.54V174.5h28.53v8.69H650.81Z"/><path d="M747.13,175.28l5.74-6.83c5.2,4.5,10.47,7.06,17.14,7.06,5.89,0,9.61-2.79,9.61-6.82v-.16c0-3.88-2.17-6-12.25-8.29C755.82,157.45,749.3,154,749.3,144v-.15c0-9.31,7.76-15.74,18.53-15.74a30.1,30.1,0,0,1,19.7,6.82l-5.12,7.22c-4.88-3.64-9.77-5.58-14.73-5.58-5.58,0-8.84,2.87-8.84,6.43v.16c0,4.18,2.48,6.05,12.95,8.53,11.46,2.79,17.36,6.89,17.36,15.89v.15c0,10.16-8,16.21-19.38,16.21A33.54,33.54,0,0,1,747.13,175.28Z"/></svg>