<svg id="Layer_1" data-name="Layer 1" xmlns="http://www.w3.org/2000/svg" viewBox="0 0 530.29 92.39"><title>Tegnebræt 8</title><path d="M70.13,42.52A21,21,0,0,0,67.23,33L52.09,6.46A23,23,0,0,1,49.64,0L49,1.11a21.09,21.09,0,0,0,0,21.15L61.22,43.41a21.09,21.09,0,0,1,0,21.15l-.67,1.11a22.36,22.36,0,0,0-2.45-6.45L47,39.85,39.85,27.38a23,23,0,0,1-2.45-6.45L36.73,22a21.14,21.14,0,0,0,0,21.15h0L49,64.34a21.14,21.14,0,0,1,0,21.15l-.67,1.11a23,23,0,0,0-2.45-6.46L30.5,53.65a23.54,23.54,0,0,1-2.89-11.57C11.35,46.31,0,55.43,0,65.9,0,80.59,21.82,92.39,48.75,92.39S97.51,80.59,97.51,65.9C97.73,55.88,86.6,46.75,70.13,42.52Zm46.08,45.19A30.41,30.41,0,0,1,118,78.36a41.75,41.75,0,0,0,16.7,3.56c8.46,0,13.35-2.67,13.35-8.23,0-5.35-3.56-7.79-12-11.58l-4.67-1.78c-8.69-3.78-14.47-8.68-14.47-18.25,0-10.47,7.34-17.15,22-17.15a50.23,50.23,0,0,1,16.69,2.68,34.79,34.79,0,0,1-1.78,9.12,48.34,48.34,0,0,0-15.14-2.67c-8,0-11.57,3.12-11.57,8,0,4.67,3.56,7.56,10,10.24l4.89,2c11.58,4.9,16.48,10.24,16.48,19.15,0,10.46-8,17.8-23.6,17.8C127.56,91.27,121.33,90.16,116.21,87.71Zm91.5-43.85V89.72h-9.35l-.45-5.57c-2.67,4-6.46,6.68-12.91,6.68-12,0-20.26-8.91-20.26-24.27,0-16,8.68-25.37,25.6-25.37C197,41.41,202.59,42.08,207.71,43.86Zm-10,35.39V50.54a35.72,35.72,0,0,0-7.35-.45c-10.46,0-15.36,6.46-15.36,16.7,0,9.35,3.79,16,12.69,16A17.49,17.49,0,0,0,197.69,79.25ZM259.35,59V89.72h-10V60.78c0-7.35-2.45-10.69-12.47-10.69a52.28,52.28,0,0,0-8,.67v39h-10V43.86a87.85,87.85,0,0,1,18.25-2.67C254,41.41,259.35,47.86,259.35,59Zm28,23.38A20.41,20.41,0,0,0,295.2,81c-.23,2.68-.67,5.79-1.12,8.46a22.56,22.56,0,0,1-8.46,1.56c-9.79,0-16-4.45-16-15.58V27.16a31.39,31.39,0,0,1,10-1.56V43h16c-.22,3.11-.44,6-.89,8.68H279.61V74.13C279.61,79.92,282.51,82.37,287.4,82.37Zm54.1-38.51V89.72h-9.35l-.44-5.57c-2.67,4-6.46,6.68-12.92,6.68-12,0-20.25-8.91-20.25-24.27,0-16,8.68-25.37,25.6-25.37C330.82,41.41,336.16,42.08,341.5,43.86ZM331.26,79.25V50.54a35.67,35.67,0,0,0-7.35-.45c-10.46,0-15.36,6.46-15.36,16.7,0,9.35,3.79,16,12.69,16A16.92,16.92,0,0,0,331.26,79.25ZM393.15,59V89.72H382.91V60.78c0-7.35-2.45-10.69-12.47-10.69a52.28,52.28,0,0,0-8,.67v39h-10V43.86a87.94,87.94,0,0,1,18.26-2.67C387.58,41.41,393.15,47.86,393.15,59Zm51-33.39V89.72h-9.35l-.44-5.79c-2.68,4.23-6.46,6.9-13.14,6.9-12,0-20.26-8.91-20.26-24.27,0-16,8.68-25.37,25.6-25.37a42.15,42.15,0,0,1,7.57.66V26.71A37.44,37.44,0,0,1,444.13,25.6Zm-10,53.65V51a49.59,49.59,0,0,0-8-.89c-10,0-14.69,6.23-14.69,16.7,0,9.35,3.78,16,12.68,16A18.1,18.1,0,0,0,434.11,79.25Zm60.78-9.12H462.61c1.33,8.23,6,12,15.14,12a36.07,36.07,0,0,0,16-3.56c-.45,2.67-.9,6.23-1.56,9.12a36.32,36.32,0,0,1-14.92,2.9c-16.92,0-24.93-9.35-24.93-24.94,0-13.58,6.23-24.48,22.26-24.48,14.47,0,20.7,9.35,20.7,20.92A46.42,46.42,0,0,1,494.89,70.13Zm-32.28-8.46h22.71c0-7.57-4-12-10.91-12C467.06,49.87,463.28,53.87,462.61,61.67Zm67.68-19.82a45,45,0,0,1-.9,8.69,74.5,74.5,0,0,0-7.56-.45c-2.45,0-4.9.22-7.35.45V89.72h-10V43.86c4.23-1.56,11.58-2.67,17.14-2.67C524.5,41.41,528.06,41.41,530.29,41.85Z"/></svg>