<svg id="Layer_1" data-name="Layer 1" xmlns="http://www.w3.org/2000/svg" viewBox="0 0 713.25 103.51"><title>sentido</title><path d="M.28,98.39,0,84.69c11.88,4.09,19.78,5.39,27,5.39,15.11,0,19.65-8.07,19.65-14.56,0-5.53-2-10.75-14.56-16.55l-7.63-3.4C7.08,47.63,1.82,38.88,2,27.71,2,13.43,13.39.14,36.88.14a69.94,69.94,0,0,1,23,3.67L58.65,16.69A69.88,69.88,0,0,0,37.6,13c-13.7,0-19.23,6.36-19.23,13.44,0,5.49,2.4,10.3,15.56,16.24l7.62,3.4c17.55,7.76,22.19,17,22.19,27.85,0,13.29-9.9,29.4-36.61,29.4a74.73,74.73,0,0,1-26.86-5Zm101,3.54V1.55h54.57v13h-39V44.68h36.34V57.25H116.83V89h42.55l-1.13,13ZM198.19,1.55H215l56.29,77.33h.27c-.29-3.15-.42-6.31-.41-9.47V1.55h14.56V101.93H269L212.76,24h-.28c.28,3.26.42,5.49.42,9.48V102H198.19Zm148,13H315.23v-13h78.61l-1,13H361.6v87.36H346.18Zm91.72-13H422.35V101.93H437.9Zm76.59,100.69c-11.61,0-21.77,0-34.93-.27V1.55c10.31-.14,18-.14,31.53-.14,35.65,0,60,16.55,60,48.76C571.05,83.14,547.6,102.24,514.49,102.24ZM509.4,14.43c-6.62,0-10.16,0-14.28.13V89c7.35.27,12,.27,19.64.27,24.6,0,40.29-13.7,40.29-37.6,0-24.9-17.79-37.2-45.65-37.2Zm141.13,89.08c-30.12,0-51.48-22.05-51.48-52.89C599.05,20.5,621.54,0,652.35,0c31.39,0,52.3,20.36,52.3,50.21C704.68,82,683.05,103.51,650.53,103.51ZM651,13.29c-21.64,0-35.79,15.28-35.79,35.92,0,23.05,14.42,41,35.47,41h1c23.46,0,36.88-16.11,36.88-38.6S674,13.29,651,13.29Z"/></svg>