<svg id="Layer_1" data-name="Layer 1" xmlns="http://www.w3.org/2000/svg" viewBox="0 0 877.23 371.47"><title>telenor</title><g id="Layer_1-2" data-name="Layer 1-2"><path d="M201.39,112.13c5.7.9,6.85-.3,7.62-5.7a127.69,127.69,0,0,1,11.1-36.32c7.48-15.31,19.31-32.15,36-43.47a179,179,0,0,1,54.7-23.52A132.37,132.37,0,0,1,350.68.49c24,2.16,37.26,9,43.94,17.86a19.47,19.47,0,0,1,3.83,10.16c.21,4.43-1.71,10.17-8.09,15.78s-19.3,12.34-37.21,18.33c-18.59,6.17-44,12.72-69.33,18.55a393.91,393.91,0,0,0-43.38,12.46c-16.76,5.7-21.82,22.37-11.4,27.48a157.81,157.81,0,0,1,32.62,21.35,288.94,288.94,0,0,1,43.47,42.74c15.78,19.27,41.6,56,50.83,91.7,10.29,39.17,3.87,76.3-18.29,86.68-21.74,10.21-50.7-4.51-71-25.64C247.33,318,233.8,294.38,221,258.14c-11-31.34-15.43-76.55-15.43-100.29,0-7.91,0-9.57.21-16.71.72-6.21-16-11.4-34,.21-20.5,13.19-40.53,37.05-52.4,51-5.14,6.08-12.16,15-19.56,24.28-9.78,12.25-20.55,25-30.37,32.16C54.74,259.25,31,263.8,14.25,252,5,245.39,0,232.88,0,220.16a48.29,48.29,0,0,1,6.55-25c5.69-9.78,14.71-20.28,29.3-32.32a256.26,256.26,0,0,1,63.12-36C135.68,112.09,175.19,107.45,201.39,112.13Z"/></g><g id="New"><g id="Telenor.no_Footer_Desktop" data-name="Telenor.no Footer Desktop"><g id="telenor_logotype_black-copy-4" data-name="telenor logotype black-copy-4"><path id="Shape" d="M424.6,221.44c-12.2,0-16.75-7.15-16.75-16.76V143.05H395.47c-1.15,0-1.15-2-1.15-3.57s0-3.74,1.15-3.74h12.38V114.43c0-1,2.76-1,4.38-1s4.38,0,4.38,1v21.31h19.18c1,0,1,1.78,1,3.74s0,3.57-1,3.57H416.61v61.29c0,6.85,2.93,9.44,10.08,9.44h8.93c1.15,0,1.45.34,1.45,3.58,0,3.57-.35,4.08-1.45,4.08Z"/><path d="M458,181.76v8.46c0,15.61,8.29,25.22,25.05,25.22a51.41,51.41,0,0,0,26.67-6.84c1.32-.64,5.36,6.33,3.74,7.31a60.56,60.56,0,0,1-30.07,7.49c-21.48,0-34.15-12-34.15-32.54V164c0-19.82,14-32.54,32.36-32.54,19.82,0,33.35,12.68,33.35,34.33v15.95ZM506.05,165c0-17.39-11.23-25.86-24.54-25.86-12.84,0-23.56,8.47-23.56,25.35v10.08h48.14V165Z"/><path d="M551.26,221.44c-12,0-16.75-7.15-16.75-16.76V100.61c0-1,2.76-1,4.38-1s4.38,0,4.38,1V204.34c0,6.85,3.1,9.61,10.25,9.61h4.38c1.15,0,1.45.34,1.45,3.58,0,3.57-.35,3.91-1.45,3.91Z"/><path d="M578.61,181.76v8.46c0,15.61,8.3,25.22,25,25.22a51.38,51.38,0,0,0,26.67-6.84c1.32-.64,5.36,6.33,3.74,7.31A60.56,60.56,0,0,1,604,223.4c-21.47,0-34.15-12-34.15-32.54V164c0-19.82,14-32.54,32.37-32.54,19.82,0,33.34,12.68,33.34,34.33v15.95ZM626.72,165c0-17.39-11.23-25.86-24.55-25.86-12.84,0-23.56,8.47-23.56,25.35v10.08h48.15V165Z"/><path d="M713.57,222.12c-1.62,0-4.38,0-4.38-1V161.43c0-14.46-6.34-21.14-16.93-21.14-11.23,0-21.65,9.61-28,18.88v62c0,1-2.76,1-4.38,1s-4.38,0-4.38-1V133.65c0-1,2.76-1,4.38-1s4.21,0,4.21,1v15.78c7-9.91,17.74-17.9,30.75-17.9,14.17,0,23.1,10.59,23.1,26v63.58C718,222.12,715.18,222.12,713.57,222.12Z"/><path d="M736.66,191.71V163.26c0-20.5,12.38-31.73,33.81-31.73,21.65,0,34.16,11.23,34.16,31.73v28.45c0,20.33-12.51,31.73-34.16,31.73C749,223.4,736.66,212,736.66,191.71Zm33.81-52.23c-15.6,0-25.05,6.68-25.05,25.22v25.52c0,18.38,9.45,25.35,25.05,25.35,15.78,0,25.35-6.68,25.35-25.35V164.7C795.87,146.33,786.25,139.48,770.47,139.48Z"/><path d="M855.37,142.07c-7.15,0-13.19,6.51-22.12,20.17v58.9c0,1-2.76,1-4.38,1s-4.21,0-4.21-1V133.65c0-1,2.59-1,4.21-1s4.08,0,4.08,1v19.7c9.74-14.81,15-20.33,24.72-20.33h3.23c1,0,1,3.1,1,4.72s-.34,4.38-1.32,4.38h-5.19Z"/></g></g></g></svg>