<svg id="Layer_1" data-name="Layer 1" xmlns="http://www.w3.org/2000/svg" xmlns:xlink="http://www.w3.org/1999/xlink" viewBox="0 0 487.55 149.27"><defs><style>.cls-1{fill:#fff;}.cls-1,.cls-3{fill-rule:evenodd;}.cls-2{mask:url(#mask);}</style><mask id="mask" x="-1.86" y="0" width="489.41" height="149.27" maskUnits="userSpaceOnUse"><g id="mask-2"><polygon id="path-1" class="cls-1" points="-1.86 149.27 487.55 149.27 487.55 0 -1.86 0 -1.86 149.27"/></g></mask></defs><title>velliv</title><g id="Symbols"><g id="Group-11"><g class="cls-2"><polygon id="Fill-5" class="cls-3" points="256.94 147.26 282.09 147.26 282.09 2.68 256.94 2.68 256.94 147.26"/></g><g class="cls-2"><path id="Fill-7" class="cls-3" d="M165.86,84.36c1.51-15.09,11.58-23.65,25.83-23.65,15.77,0,25,10.24,25.33,23.65ZM193.2,38.91c-30.19,0-53.84,20.63-53.84,55.52,0,32.7,21,54.84,53.51,54.84,24.65,0,41.26-12.75,47.8-25.32l-21.3-10.9c-4.36,8-13.42,13.75-26,13.75-15.43,0-25-7.55-27.51-23h78a89.29,89.29,0,0,0,.51-9.39C244.36,59.88,223.56,38.91,193.2,38.91Z"/></g><g class="cls-2"><path id="Fill-8" class="cls-3" d="M360.59,0c-8.56,0-15.1,6.37-15.1,14.25s6.54,14.1,15.1,14.1c8.05,0,14.76-6.21,14.76-14.1S368.64,0,360.59,0"/></g><g class="cls-2"><polygon id="Fill-9" class="cls-3" points="347.84 147.26 373 147.26 373 41.09 347.84 41.09 347.84 147.26"/></g><g class="cls-2"><polygon id="Fill-10" class="cls-3" points="302.56 147.26 327.71 147.26 327.71 2.68 302.56 2.68 302.56 147.26"/></g><g class="cls-2"><polygon id="Fill-1" class="cls-3" points="460.38 41.09 435.9 116.73 411.58 41.09 384.24 41.09 422.14 147.26 449.65 147.26 487.55 41.09 460.38 41.09"/></g><g class="cls-2"><path id="Fill-2" class="cls-3" d="M99.69,0C77.88,0,59.1,17.11,57.93,41.09H83.25c.84-9.73,6-17.44,15.77-17.44,8.22,0,14.26,7,14.26,18.78,0,21.64-21,55.18-35.9,77.15L29.58,13.75H1.4L62.62,147.26H86.27c11.07-14.93,53.34-72.62,53.34-107.51C139.61,13.92,119.14,0,99.69,0"/></g></g></g></svg>