<svg id="Lag_1" data-name="Lag 1" xmlns="http://www.w3.org/2000/svg" viewBox="0 0 99 139.87"><defs><style>.cls-1{fill:#3c3c3b;}.cls-2{fill:#9d9d9c;}</style></defs><title>favicon</title><path class="cls-1" d="M48.25,13.11c5.78,0,20.45,2.52,20.45,19.64,0,4.92-2.21,19.63-25.32,19.63H31.11v-23L13.94,25.53v75.92L0,104.73v9.81H45v-9.87l-13.9-3.28V64.59h5c17.23,0,21,12.21,25.06,21l13.26,28.87H99v-9.81l-11.65-2.6c-.88.53-17.56-39.16-22.74-40.73A30.07,30.07,0,0,0,85.87,32.75C85.87,6.51,61.53,0,49.07,0H0V6.18l31.11,6.93Z"/><rect class="cls-2" y="135.65" width="99" height="4.22"/></svg>