<svg xmlns="http://www.w3.org/2000/svg" xmlns:xlink="http://www.w3.org/1999/xlink" width="11" height="11" viewBox="0 0 11 11">
  <defs>
    <clipPath id="clip-Artboard_5">
      <rect width="11" height="11"/>
    </clipPath>
  </defs>
  <g id="Artboard_5" data-name="Artboard – 5" clip-path="url(#clip-Artboard_5)">
    <path id="linkedin-in" d="M2.43,10.865H.179V3.618H2.43ZM1.3,2.629a1.31,1.31,0,1,1,1.3-1.316A1.314,1.314,0,0,1,1.3,2.629Zm9.549,8.236H8.607V7.337c0-.841-.017-1.919-1.17-1.919-1.17,0-1.349.913-1.349,1.858v3.588H3.839V3.618H6v.989h.031a2.365,2.365,0,0,1,2.129-1.17c2.278,0,2.7,1.5,2.7,3.448v3.981Z" transform="translate(0 0.206)" fill="#fff"/>
  </g>
</svg>
