<svg id="Lag_1" data-name="Lag 1" xmlns="http://www.w3.org/2000/svg" viewBox="0 0 841.89 595.28"><defs><style>.cls-1{fill:#345362;}.cls-2{fill:#f0f4f7;}.cls-3{fill:#c3c6c7;}</style></defs><rect class="cls-1" x="20" y="20" width="801.89" height="555.27"/><path id="Path_23" data-name="Path 23" class="cls-2" d="M200.09,258.3H186.64v13.45H201v5H186.64v15.33H201l1.25-6.26h4.07V297.1H174.74v-3.76l5.32-1.25V258.3L174.74,257V253.6l11.89-.31h19.09v10.64h-4.07Z"/><path id="Path_24" data-name="Path 24" class="cls-2" d="M248.7,284.27l1.25,6.57a12.37,12.37,0,0,0,3.07,1.1,15.86,15.86,0,0,0,3.82.47,14.41,14.41,0,0,0,3.63-.47,10.1,10.1,0,0,0,3.06-1.35,7.13,7.13,0,0,0,2.1-2.1,5,5,0,0,0,.78-2.78,4.64,4.64,0,0,0-1-3,9.18,9.18,0,0,0-2.6-2.12,21.41,21.41,0,0,0-3.6-1.59c-1.33-.46-2.69-.94-4.06-1.44s-2.87-1.26-4.23-1.91a15.58,15.58,0,0,1-3.63-2.38,10.37,10.37,0,0,1-2.53-3.41,13,13,0,0,1,.28-10.39,11.19,11.19,0,0,1,3.25-3.82,13.92,13.92,0,0,1,4.76-2.22,22.53,22.53,0,0,1,5.72-.71,23.92,23.92,0,0,1,2.94.18c1.05.13,2.07.28,3.07.47s1.94.4,2.82.63l2.25.59,2,.63-.31,10.64h-4.07l-2.13-6.7a20.57,20.57,0,0,0-3.47-.81,23.23,23.23,0,0,0-3.54-.25,10.42,10.42,0,0,0-3.28.47,7.85,7.85,0,0,0-2.51,1.28,6.18,6.18,0,0,0-1.59,1.82,4.12,4.12,0,0,0-.57,2.06,5.4,5.4,0,0,0,1.76,4.13,15.06,15.06,0,0,0,4.19,2.57q2.51,1.07,5.41,2a28.67,28.67,0,0,1,5.39,2.35,13.05,13.05,0,0,1,4.13,3.66,9.76,9.76,0,0,1,1.66,5.88,12.58,12.58,0,0,1-1.26,5.76,12.26,12.26,0,0,1-3.44,4.23,15.76,15.76,0,0,1-5.2,2.63,22.27,22.27,0,0,1-6.44.9,24.54,24.54,0,0,1-3-.18c-1.07-.13-2.11-.29-3.13-.47s-2-.4-2.85-.63-1.61-.45-2.19-.65l-1.75-.63V284.29Z"/><path id="Path_25" data-name="Path 25" class="cls-2" d="M371.64,275.7a30.32,30.32,0,0,1,1.41-9.51,20.47,20.47,0,0,1,4.1-7.29,17.77,17.77,0,0,1,6.42-4.63,22.47,22.47,0,0,1,16.49-.06,16.79,16.79,0,0,1,6.16,4.41,19.35,19.35,0,0,1,3.85,6.94,29.48,29.48,0,0,1,1.32,9.14,27.75,27.75,0,0,1-1.5,9.3,21.64,21.64,0,0,1-4.23,7.26,19.35,19.35,0,0,1-6.54,4.75,20.29,20.29,0,0,1-8.45,1.72A17.62,17.62,0,0,1,376.56,292Q371.64,286.34,371.64,275.7Zm20-17.71q-12.82,0-12.83,17.21t12.21,17.21a11.66,11.66,0,0,0,9.71-4.38q3.44-4.38,3.44-13.15Q404.19,258,391.67,258Z"/><path id="Path_26" data-name="Path 26" class="cls-2" d="M473.72,297.1l-20.66-34.49V292.1l5.95,1.25v3.76h-16.9v-3.76l5.32-1.25V258.3L442.11,257V253.6l13.14-.31,20.66,35v-30L470.59,257V253.6l16.27-.31v3.76l-5.32,1.25v38.81Z"/><path id="Path_27" data-name="Path 27" class="cls-2" d="M525.11,284.27l1.26,6.57a12.44,12.44,0,0,0,3.06,1.1,15.92,15.92,0,0,0,3.82.47,14.29,14.29,0,0,0,3.63-.47,10.16,10.16,0,0,0,3.07-1.35,7.13,7.13,0,0,0,2.1-2.1,5,5,0,0,0,.79-2.78,4.64,4.64,0,0,0-1-3,9.18,9.18,0,0,0-2.6-2.12,21.41,21.41,0,0,0-3.6-1.59c-1.33-.46-2.69-.94-4.07-1.44s-2.87-1.26-4.22-1.91a15.38,15.38,0,0,1-3.63-2.38,10.39,10.39,0,0,1-2.54-3.41,13.12,13.12,0,0,1,.28-10.39,11.21,11.21,0,0,1,3.26-3.82,14,14,0,0,1,4.75-2.22,22.6,22.6,0,0,1,5.73-.71,24.17,24.17,0,0,1,2.94.18c1,.13,2.07.28,3.07.47s1.94.4,2.82.63l2.25.59,2,.63L548,265.82H543.9l-2.13-6.7a20.57,20.57,0,0,0-3.47-.81,23.23,23.23,0,0,0-3.54-.25,10.42,10.42,0,0,0-3.28.47,7.85,7.85,0,0,0-2.51,1.28,6.18,6.18,0,0,0-1.59,1.82,4,4,0,0,0-.56,2.06,5.39,5.39,0,0,0,1.75,4.13,15.06,15.06,0,0,0,4.19,2.57q2.5,1.07,5.41,2a28.67,28.67,0,0,1,5.39,2.35,13.16,13.16,0,0,1,4.13,3.66,9.76,9.76,0,0,1,1.66,5.88,12.71,12.71,0,0,1-1.26,5.76,12.26,12.26,0,0,1-3.44,4.23,15.81,15.81,0,0,1-5.19,2.63,22.33,22.33,0,0,1-6.45.9,24.54,24.54,0,0,1-3-.18c-1.07-.13-2.11-.29-3.13-.47s-2-.4-2.85-.63-1.61-.45-2.18-.65l-1.75-.63V284.29Z"/><path id="Path_28" data-name="Path 28" class="cls-2" d="M602.07,293.35v3.76H584.86v-3.76l5.32-1.25V258.3L584.86,257V253.6l17.21-.31v3.76l-5.32,1.25v33.8Z"/><path id="Path_29" data-name="Path 29" class="cls-2" d="M652.24,297.1l-13.33-38.8L634.09,257V253.6l17.53-.31v3.76l-5.7,1.19,9.83,30.42L666.2,258.3l-5.82-1.25v-3.44l16.9-.32v3.77l-4.88,1.25-13.9,38.81Z"/><path id="Path_30" data-name="Path 30" class="cls-2" d="M730,258.3H716.5v13.45h14.39v5H716.5v15.33h14.39l1.25-6.26h4.07V297.1h-31.6v-3.76l5.32-1.25V258.3L704.61,257V253.6l11.88-.31h19.09v10.64h-4.07Z"/><path class="cls-2" d="M124,258.59c2.19,0,7.76,1,7.76,7.45,0,1.87-.84,7.46-9.62,7.46h-4.66v-8.75L111,263.3v28.84l-5.28,1.24v3.73h17.09v-3.75l-5.28-1.24v-14h1.9c6.55,0,8,4.64,9.52,8l5,11h9.32v-3.73l-4.42-1c-.34.21-6.67-14.87-8.64-15.47A11.42,11.42,0,0,0,138.3,266c0-10-9.25-12.44-14-12.44H105.68V256l11.81,2.63Z"/><path class="cls-2" d="M324.4,280.83a20.71,20.71,0,0,0,12.48-3.76,14.51,14.51,0,0,0,4.41-10.95,12.25,12.25,0,0,0-3.71-9.39,16.17,16.17,0,0,0-10.67-3.44l-18.46,0v3.79l2.87.67.19,0,2.26.53v11.27h0V292.1l-5.32,1.25v3.76h17.21v-3.76l-5.32-1.25V280.83Zm8.21-20.09a9.26,9.26,0,0,1,2.13,6.32q0,8.76-10.33,8.76h-4.07V258.3h6.26A7.69,7.69,0,0,1,332.61,260.74Z"/><rect class="cls-3" x="238.78" y="340.62" width="364.33" height="1.98"/></svg>