<svg xmlns="http://www.w3.org/2000/svg" xmlns:xlink="http://www.w3.org/1999/xlink" viewBox="0 0 1796.03 841.89"><defs><style>.cls-1{fill:none;}.cls-2{isolation:isolate;}.cls-3{clip-path:url(#clip-path);}.cls-4{clip-path:url(#clip-path-2);}.cls-5{opacity:0.1;mix-blend-mode:multiply;}.cls-6{clip-path:url(#clip-path-3);}.cls-7{fill:#616160;}.cls-8{fill:#26424f;}.cls-9{clip-path:url(#clip-path-4);}.cls-10{clip-path:url(#clip-path-5);}</style><clipPath id="clip-path"><rect class="cls-1" width="1796.03" height="841.89"/></clipPath><clipPath id="clip-path-2"><rect class="cls-1" y="990.41" width="1796.03" height="841.89"/></clipPath><clipPath id="clip-path-3"><rect class="cls-1" x="-523.56" y="-424.39" width="1966.95" height="2277.18"/></clipPath><clipPath id="clip-path-4"><rect class="cls-1" width="1796.03" height="841.89"/></clipPath><clipPath id="clip-path-5"><rect class="cls-1" y="-733.43" width="2038.68" height="2360.23"/></clipPath></defs><title>logo-header-new</title><g class="cls-2"><g id="Lag_1" data-name="Lag 1"><g class="cls-3"><g class="cls-4"><g class="cls-5"><g class="cls-6"><path class="cls-7" d="M1211.86,1605,955.18,1088.29a1098.45,1098.45,0,0,0-195-292.49C1031,708.15,1205.87,445.74,1182.6,162.08a521.08,521.08,0,0,0-193.31-429,835,835,0,0,0-537.9-156H93.85l-617.41,16.81v178l9.42,2.85,132.8,31.27A2823.76,2823.76,0,0,0,93.2-162.35H435.12A413,413,0,0,1,727.6-56.62,369.8,369.8,0,0,1,841.4,227.8,345.31,345.31,0,0,1,708.11,510.54,576.2,576.2,0,0,1,338.3,617.78H94.57V63.07A1674.92,1674.92,0,0,1-246.67,12.64V1592.75l-276.17,65v195H370.93V1656.62l-276.17-65V860.35H241a355.36,355.36,0,0,1,242.05,73.12,1050.12,1050.12,0,0,1,196.68,316.86L955.9,1851.61h487.49v-195Z"/></g></g></g></g><rect class="cls-8" width="1796.03" height="841.89"/><g class="cls-9"><g class="cls-5"><g class="cls-10"><path class="cls-7" d="M1798.72,1370l-266-535.58a1138.69,1138.69,0,0,0-202.11-303.15c280.65-90.85,461.94-362.83,437.82-656.83A540.08,540.08,0,0,0,1568-570.2,865.53,865.53,0,0,0,1010.5-731.89H639.93L0-714.46V-530l9.76,3,137.65,32.41a2927,2927,0,0,0,491.84,32.75H993.64a428.12,428.12,0,0,1,303.15,109.59,383.28,383.28,0,0,1,118,294.79,357.88,357.88,0,0,1-138.15,293.05A597.22,597.22,0,0,1,893.3,346.75H640.68V-228.2A1736.36,1736.36,0,0,1,287-280.46V1357.27L.74,1424.69V1626.8H927.11V1423.47l-286.24-67.42V598.16H792.44A368.28,368.28,0,0,1,1043.32,674a1088.16,1088.16,0,0,1,203.85,328.42l286.25,623.21h505.26V1423.47Z"/></g></g></g><rect class="cls-1" width="1796.03" height="841.89"/></g></g></svg>