<svg id="Lag_1" data-name="Lag 1" xmlns="http://www.w3.org/2000/svg" viewBox="0 0 630.54 88.4"><defs><style>.cls-1{fill:#26424f;}.cls-2{fill:#c8443c;}</style></defs><path id="Path_23" data-name="Path 23" class="cls-1" d="M94.42,4.09H81V17.55H95.35v5H81V37.89H95.35l1.25-6.26h4.07V42.9H69.07V39.13l5.32-1.25V4.09L69.07,2.84V-.6L81-.92H100V9.72H96Z"/><path id="Path_24" data-name="Path 24" class="cls-1" d="M143,30.07l1.25,6.57a12.76,12.76,0,0,0,3.07,1.09,15.86,15.86,0,0,0,3.82.47,13.5,13.5,0,0,0,3.63-.47,10.08,10.08,0,0,0,3.06-1.34,7.13,7.13,0,0,0,2.1-2.1,5.08,5.08,0,0,0,.79-2.79,4.64,4.64,0,0,0-1-3,9,9,0,0,0-2.59-2.13,20.92,20.92,0,0,0-3.6-1.58c-1.34-.46-2.69-.94-4.07-1.45s-2.87-1.26-4.23-1.91A15.44,15.44,0,0,1,141.61,19a10.37,10.37,0,0,1-2.53-3.41,13.08,13.08,0,0,1,.28-10.39,11.09,11.09,0,0,1,3.25-3.82,13.83,13.83,0,0,1,4.76-2.22,22.12,22.12,0,0,1,5.73-.72,24.18,24.18,0,0,1,2.94.19c1,.12,2.06.28,3.06.47s1.94.4,2.82.62l2.25.6,2,.62-.31,10.64h-4.07l-2.12-6.69a22,22,0,0,0-3.48-.82,24.55,24.55,0,0,0-3.53-.25,11.09,11.09,0,0,0-3.29.47,7.93,7.93,0,0,0-2.5,1.29,6.16,6.16,0,0,0-1.6,1.81,4.16,4.16,0,0,0-.56,2.06,5.44,5.44,0,0,0,1.75,4.14,15.41,15.41,0,0,0,4.19,2.56q2.5,1.07,5.42,2a29.24,29.24,0,0,1,5.38,2.35,13.3,13.3,0,0,1,4.13,3.66,9.72,9.72,0,0,1,1.66,5.89A12.76,12.76,0,0,1,166,35.84a12.28,12.28,0,0,1-3.45,4.22,15.43,15.43,0,0,1-5.19,2.63,22.34,22.34,0,0,1-6.45.91,26.91,26.91,0,0,1-3-.19c-1.06-.12-2.11-.28-3.13-.47s-2-.39-2.85-.62-1.6-.45-2.19-.66L138,41v-11Z"/><path id="Path_25" data-name="Path 25" class="cls-1" d="M266,21.49a30.11,30.11,0,0,1,1.4-9.51,20.8,20.8,0,0,1,4.1-7.29A18,18,0,0,1,277.89.06,22.52,22.52,0,0,1,294.38,0a16.83,16.83,0,0,1,6.17,4.41,19.55,19.55,0,0,1,3.85,7,29.77,29.77,0,0,1,1.31,9.14,27.45,27.45,0,0,1-1.5,9.29A21.64,21.64,0,0,1,300,37.05a19.38,19.38,0,0,1-6.54,4.76A20.45,20.45,0,0,1,285,43.53a17.63,17.63,0,0,1-14.11-5.7Q266,32.13,266,21.49ZM286,3.78q-12.83,0-12.83,17.21T285.37,38.2a11.61,11.61,0,0,0,9.71-4.38q3.44-4.38,3.44-13.14Q298.51,3.77,286,3.78Z"/><path id="Path_26" data-name="Path 26" class="cls-1" d="M368,42.9,347.39,8.41V37.89l5.94,1.25v3.77h-16.9V39.14l5.32-1.25V4.09l-5.32-1.25V-.6l13.15-.32,20.65,35v-30l-5.32-1.25V-.6l16.27-.32V2.85L375.86,4.1V42.9Z"/><path id="Path_27" data-name="Path 27" class="cls-1" d="M419.44,30.07l1.25,6.57a12.76,12.76,0,0,0,3.07,1.09,15.86,15.86,0,0,0,3.82.47,13.55,13.55,0,0,0,3.63-.47,10.08,10.08,0,0,0,3.06-1.34,7.13,7.13,0,0,0,2.1-2.1,5,5,0,0,0,.79-2.79,4.63,4.63,0,0,0-1-3,9.21,9.21,0,0,0-2.6-2.13,20.59,20.59,0,0,0-3.6-1.58c-1.33-.46-2.69-.94-4.06-1.45s-2.87-1.26-4.23-1.91A15.23,15.23,0,0,1,418,19a10.54,10.54,0,0,1-2.54-3.41,13.08,13.08,0,0,1,.29-10.39A11.09,11.09,0,0,1,419,1.41a13.78,13.78,0,0,1,4.75-2.22,22.17,22.17,0,0,1,5.73-.72,24.05,24.05,0,0,1,2.94.19c1.05.12,2.07.28,3.07.47s1.94.4,2.82.62l2.25.6,2,.62-.31,10.64h-4.07L436.1,4.92a22,22,0,0,0-3.48-.82,24.55,24.55,0,0,0-3.53-.25,11,11,0,0,0-3.29.47,7.93,7.93,0,0,0-2.5,1.29,6.16,6.16,0,0,0-1.6,1.81,4.16,4.16,0,0,0-.56,2.06,5.44,5.44,0,0,0,1.75,4.14,15.26,15.26,0,0,0,4.19,2.56c1.67.71,3.47,1.38,5.42,2a29.24,29.24,0,0,1,5.38,2.35A13.3,13.3,0,0,1,442,24.19a9.79,9.79,0,0,1,1.66,5.89,12.76,12.76,0,0,1-1.25,5.76A12.28,12.28,0,0,1,439,40.06a15.43,15.43,0,0,1-5.19,2.63,22.3,22.3,0,0,1-6.45.91,26.91,26.91,0,0,1-3-.19c-1.06-.12-2.11-.28-3.13-.47s-2-.39-2.85-.62-1.61-.45-2.18-.66L414.45,41v-11Z"/><path id="Path_28" data-name="Path 28" class="cls-1" d="M496.39,39.14v3.77H479.18V39.14l5.32-1.25V4.09l-5.32-1.25V-.6l17.21-.32V2.85L491.07,4.1V37.89Z"/><path id="Path_29" data-name="Path 29" class="cls-1" d="M546.57,42.9,533.23,4.09l-4.81-1.25V-.6l17.52-.32V2.85L540.25,4l9.82,30.41L560.52,4.1,554.7,2.85V-.6l16.9-.31V2.85l-4.88,1.26-13.9,38.8Z"/><path id="Path_30" data-name="Path 30" class="cls-1" d="M624.28,4.09H610.82V17.55h14.4v5h-14.4V37.89h14.4l1.25-6.26h4.07V42.9H598.93V39.13l5.32-1.25V4.09l-5.32-1.25V-.6l11.89-.32h19.09V9.72h-4.07Z"/><path class="cls-1" d="M18.33,4.38c2.19,0,7.77,1,7.77,7.46,0,1.87-.84,7.46-9.62,7.46H11.82V10.55L5.29,9.1V37.94L0,39.18v3.73H17.1V39.16l-5.28-1.25v-14h1.91c6.54,0,8,4.64,9.52,8l5,11H37.6V39.16l-4.42-1c-.33.2-6.67-14.87-8.64-15.47a11.42,11.42,0,0,0,8.08-10.86c0-10-9.25-12.44-14-12.44H0V1.75L11.82,4.38Z"/><path class="cls-1" d="M218.72,26.62a20.68,20.68,0,0,0,12.48-3.75,14.48,14.48,0,0,0,4.41-11,12.23,12.23,0,0,0-3.71-9.38A16.18,16.18,0,0,0,221.23-.92l-18.46,0V2.84l2.88.68.19,0,2.25.53V15.34h0V37.89l-5.32,1.25v3.77H220V39.14l-5.32-1.25V26.62Zm8.21-20.08a9.26,9.26,0,0,1,2.13,6.32q0,8.76-10.33,8.76h-4.07V4.1h6.26A7.68,7.68,0,0,1,226.93,6.54Z"/><rect class="cls-2" x="133.1" y="86.42" width="364.33" height="1.98"/></svg>