<svg xmlns="http://www.w3.org/2000/svg" viewBox="0 0 390.92 394.23"><defs><style>.cls-1{fill:#ececec;}.cls-2{fill:#375759;}.cls-3{fill:#4c7375;}.cls-4{font-size:11px;font-family:PlayfairDisplay-Bold, Playfair Display;font-weight:700;}.cls-4,.cls-5{fill:#d9ddde;}.cls-5{font-size:10px;font-family:Raleway-Light, Raleway;font-weight:300;}.cls-6{letter-spacing:0em;}.cls-7{letter-spacing:-0.02em;}.cls-8{letter-spacing:-0.02em;}.cls-9{letter-spacing:-0.01em;}.cls-10{letter-spacing:-0.02em;}.cls-11{letter-spacing:-0.01em;}.cls-12{letter-spacing:0em;}.cls-13{letter-spacing:-0.01em;}.cls-14{letter-spacing:-0.02em;}.cls-15{letter-spacing:-0.11em;}.cls-16{letter-spacing:-0.03em;}.cls-17{letter-spacing:-0.03em;}.cls-18{letter-spacing:-0.01em;}.cls-19{letter-spacing:-0.01em;}.cls-20{letter-spacing:-0.02em;}.cls-21{letter-spacing:-0.03em;}.cls-22{letter-spacing:-0.02em;}.cls-23{letter-spacing:-0.01em;}</style></defs><g id="Lag_1_kopi" data-name="Lag 1 kopi"><polygon class="cls-1" points="157.62 132.24 157.62 132.22 157.62 132.24 157.62 132.24"/></g><g id="Lag_4" data-name="Lag 4"><g id="goals-g"><path id="goals" class="cls-2" d="M195.46,3.28A194.59,194.59,0,0,0,98.8,28.82l15.26,26.83A163.39,163.39,0,0,1,177,35.18l18.49,18.48,18.48-18.48a163.38,163.38,0,0,1,62.92,20.47l15.26-26.83A194.59,194.59,0,0,0,195.46,3.28Z"/><path id="goals-2" data-name="goals" class="cls-3" d="M276.86,55.65a163.38,163.38,0,0,0-62.92-20.47L195.46,53.66,177,35.18a163.39,163.39,0,0,0-62.91,20.47l43.56,76.58c-.14-.24-8.08-14.27,0,0,5.06,8.23,25.56,37.82,37.82,37.82h0c12.26,0,32.76-29.59,37.82-37.82,8.09-14.29.16-.26,0,0Z"/><text class="cls-4" transform="matrix(1, -0.06, 0.06, 1, 181.6, 23.54)">G</text><text class="cls-4" transform="matrix(1, -0.02, 0.02, 1, 189.6, 23.1)">o</text><text class="cls-4" transform="translate(195.75 22.99) rotate(0.93)">a</text><text class="cls-4" transform="translate(201.41 23.09) rotate(2.31)">l</text><text class="cls-4" transform="translate(204.79 23.22) rotate(3.67)">s</text><text id="text" class="cls-5" transform="translate(148.03 74.84)">D<tspan class="cls-6" x="7.13" y="0">e</tspan><tspan x="12.91" y="0">fine the objecti</tspan><tspan class="cls-7" x="80" y="0">v</tspan><tspan x="85.1" y="0">es</tspan><tspan x="26.54" y="12">and build </tspan><tspan x="7.13" y="24">the business case</tspan></text></g><g id="data-g"><path id="data" class="cls-2" d="M276.86,341.86a163.43,163.43,0,0,1-62.93,20.47l-18.47-18.47L177,362.33a163.43,163.43,0,0,1-62.92-20.47L98.8,368.69a195.68,195.68,0,0,0,193.32,0Z"/><path id="data-2" data-name="data" class="cls-3" d="M114.06,341.87A163.57,163.57,0,0,0,177,362.35l18.49-18.49,18.48,18.49a163.56,163.56,0,0,0,62.92-20.48L233.3,265.3c.14.24,8.07,14.27,0,0-5.06-8.23-25.56-37.82-37.82-37.82h0c-12.26,0-32.76,29.59-37.82,37.82-8.1,14.3-.16.27,0,0Z"/><text class="cls-4" transform="translate(171.07 379.59) rotate(6.41)">D</text><text class="cls-4" transform="translate(179.42 380.5) rotate(4.23)">a</text><text class="cls-4" transform="matrix(1, 0.05, -0.05, 1, 185.05, 380.9)">t</text><text class="cls-4" transform="translate(188.89 381.1) rotate(1.28)">a</text><text class="cls-4" transform="translate(194.56 381.19) rotate(0.93)"> </text><text class="cls-4" transform="translate(197.21 381.27) rotate(-1.93)">&amp;</text><text class="cls-4" transform="translate(207.01 380.88) rotate(-3.84)"> </text><text class="cls-4" transform="translate(209.1 380.78) rotate(-5.23)">A</text><text class="cls-4" transform="translate(216.14 380.11) rotate(-6.95)">I</text><text class="cls-5" transform="translate(157.37 305.96)"><tspan class="cls-8">L</tspan><tspan class="cls-9" x="5.6" y="0">e</tspan><tspan class="cls-10" x="11.29" y="0">v</tspan><tspan x="16.39" y="0">e</tspan><tspan class="cls-11" x="22.22" y="0">r</tspan><tspan x="25.56" y="0">age d</tspan><tspan class="cls-12" x="51.6" y="0">a</tspan><tspan x="56.93" y="0">ta </tspan><tspan class="cls-13" x="68.07" y="0">t</tspan><tspan x="71.14" y="0">o </tspan><tspan x="-12.61" y="12">deli</tspan><tspan class="cls-10" x="4.03" y="12">v</tspan><tspan x="9.13" y="12">e</tspan><tspan class="cls-14" x="14.96" y="12">r</tspan><tspan x="18.13" y="12" xml:space="preserve"> personalis</tspan><tspan class="cls-12" x="67.39" y="12">a</tspan><tspan x="72.72" y="12">tion </tspan><tspan class="cls-12" x="20.96" y="24">a</tspan><tspan x="26.29" y="24">t scale</tspan></text></g><g id="people-g"><path id="people" class="cls-2" d="M112.23,56.71,96.63,30.08A195.4,195.4,0,0,0,0,197.5l30.86.2A164,164,0,0,1,44.53,133v0l25.26-6.77L63,101A165.61,165.61,0,0,1,112.23,56.71Z"/><path id="people-2" data-name="people" class="cls-3" d="M112.22,56.71A163.49,163.49,0,0,0,63,101l6.77,25.25L44.55,133A163.46,163.46,0,0,0,30.82,197.7l88.09.57c-.27,0-16.39-.15,0,0,9.66-.27,45.53-3.22,51.66-13.84h0c6.13-10.62-9.24-43.17-13.84-51.67-8.33-14.15-.15-.27,0,0Z"/><text class="cls-4" transform="translate(25.3 156.36) rotate(-74.88)">P</text><text class="cls-4" transform="matrix(0.29, -0.96, 0.96, 0.29, 27.08, 149.79)">e</text><text class="cls-4" transform="translate(28.69 144.56) rotate(-70.98)">o</text><text class="cls-4" transform="translate(30.69 138.72) rotate(-68.9)">p</text><text class="cls-4" transform="translate(33.06 132.64) rotate(-67.29)">l</text><text class="cls-4" transform="translate(34.31 129.61) rotate(-65.88)">e</text><text class="cls-4" transform="translate(36.58 124.6) rotate(-64.58)"> </text><text class="cls-4" transform="translate(37.6 122.3) rotate(-62.58)">&amp;</text><text class="cls-4" transform="translate(42.17 113.63) rotate(-60.93)"> </text><text class="cls-4" transform="translate(43.37 111.42) rotate(-59.07)">P</text><text class="cls-4" transform="matrix(0.54, -0.84, 0.84, 0.54, 46.98, 105.43)">r</text><text class="cls-4" transform="translate(49.64 101.29) rotate(-55.39)">o</text><text class="cls-4" transform="matrix(0.59, -0.8, 0.8, 0.59, 53.14, 96.22)">c</text><text class="cls-4" transform="matrix(0.62, -0.79, 0.79, 0.62, 56.35, 91.88)">e</text><text class="cls-4" transform="translate(59.76 87.56) rotate(-50.02)">s</text><text class="cls-4" transform="translate(62.99 83.7) rotate(-48.37)">s</text><text class="cls-4" transform="translate(66.33 79.94) rotate(-46.64)">e</text><text class="cls-4" transform="matrix(0.71, -0.71, 0.71, 0.71, 70.11, 75.95)">s</text><text class="cls-5" transform="translate(75.85 170.49) rotate(-60)"><tspan class="cls-15">T</tspan><tspan class="cls-11" x="4.96" y="0">r</tspan><tspan x="8.3" y="0">ans</tspan><tspan class="cls-16" x="24.24" y="0">f</tspan><tspan x="27.16" y="0">orm</tspan><tspan class="cls-17" x="45.64" y="0"> </tspan><tspan class="cls-13" x="47.94" y="0">wa</tspan><tspan class="cls-18" x="61.11" y="0">y</tspan><tspan x="66.39" y="0">s</tspan><tspan class="cls-19" x="11.86" y="12">o</tspan><tspan class="cls-8" x="17.7" y="12">f</tspan><tspan class="cls-17" x="20.67" y="12"> </tspan><tspan class="cls-20" x="22.97" y="12">w</tspan><tspan x="30.84" y="12">orking</tspan></text></g><g id="concept-g"><path id="concept" class="cls-2" d="M360.06,199.81a164,164,0,0,1-13.67,64.74h0l-25.26,6.77,6.76,25.24a165.45,165.45,0,0,1-49.19,44.25l15.6,26.63A195.4,195.4,0,0,0,390.92,200Z"/><path id="concept-2" data-name="concept" class="cls-3" d="M278.7,340.81a163.33,163.33,0,0,0,49.18-44.25l-6.76-25.25,25.25-6.77a163.46,163.46,0,0,0,13.73-64.72l-88.1-.56c.28,0,16.4.14,0,0-9.66.27-45.54,3.23-51.67,13.85h0c-6.13,10.62,9.25,43.16,13.85,51.66,8.33,14.16.15.27,0,0Z"/><text class="cls-4" transform="translate(308.37 342.6) rotate(-39.22)">C</text><text class="cls-4" transform="translate(314.41 337.64) rotate(-41.45)">o</text><text class="cls-4" transform="matrix(0.72, -0.69, 0.69, 0.72, 319.15, 333.46)">n</text><text class="cls-4" transform="translate(324.11 328.74) rotate(-45.49)">c</text><text class="cls-4" transform="translate(327.96 324.81) rotate(-47.25)">e</text><text class="cls-4" transform="matrix(0.65, -0.76, 0.76, 0.65, 331.76, 320.72)">p</text><text class="cls-4" transform="translate(336.04 315.73) rotate(-50.82)">t</text><text class="cls-4" transform="translate(338.44 312.78) rotate(-51.81)"> </text><text class="cls-4" transform="matrix(0.59, -0.81, 0.81, 0.59, 340.03, 310.86)">&amp;</text><text class="cls-4" transform="translate(345.8 302.89) rotate(-55.67)"> </text><text class="cls-4" transform="translate(347.24 300.84) rotate(-57.26)">C</text><text class="cls-4" transform="translate(351.38 294.35) rotate(-59.07)">o</text><text class="cls-4" transform="translate(354.66 288.93) rotate(-61.93)">m</text><text class="cls-4" transform="translate(359.3 280.22) rotate(-65)">m</text><text class="cls-4" transform="translate(363.44 271.26) rotate(-67.57)">u</text><text class="cls-4" transform="translate(365.98 265.11) rotate(-69.68)">n</text><text class="cls-4" transform="translate(368.31 258.75) rotate(-71.3)">i</text><text class="cls-4" transform="translate(369.44 255.46) rotate(-72.71)">c</text><text class="cls-4" transform="matrix(0.27, -0.96, 0.96, 0.27, 371.07, 250.21)">a</text><text class="cls-4" transform="translate(372.6 244.68) rotate(-76.01)">t</text><text class="cls-4" transform="translate(373.54 240.87) rotate(-77.19)">i</text><text class="cls-4" transform="matrix(0.2, -0.98, 0.98, 0.2, 374.34, 237.43)">o</text><text class="cls-4" transform="translate(375.58 231.23) rotate(-80.83)">n</text><text class="cls-5" transform="translate(270.13 284.25) rotate(-60)">D<tspan class="cls-9" x="7.13" y="0">e</tspan><tspan class="cls-10" x="12.82" y="0">v</tspan><tspan x="17.92" y="0">elop origina</tspan><tspan class="cls-21" x="71.67" y="0">l</tspan><tspan x="5.47" y="12">and engaging </tspan><tspan x="-13.78" y="24">cus</tspan><tspan class="cls-13" x="2.35" y="24">t</tspan><tspan x="5.42" y="24">ome</tspan><tspan class="cls-22" x="26.32" y="24">r</tspan><tspan x="29.49" y="24"> </tspan><tspan class="cls-20" x="32.06" y="24">e</tspan><tspan x="37.7" y="24">xperien</tspan><tspan class="cls-6" x="71.68" y="24">c</tspan><tspan x="77.08" y="24">es</tspan></text></g><g id="customer-g"><path id="customers" class="cls-2" d="M294.29,30.08l-15.6,26.63A165.45,165.45,0,0,1,327.88,101l-6.76,25.25L346.38,133v0a164,164,0,0,1,13.67,64.74l30.86-.2A195.4,195.4,0,0,0,294.29,30.08Z"/><path id="customers-2" data-name="customers" class="cls-3" d="M360.1,197.7A163.46,163.46,0,0,0,346.37,133l-25.25-6.77L327.88,101A163.33,163.33,0,0,0,278.7,56.71l-44.54,76c.14-.24,8.32-14.12,0,0-4.6,8.5-20,41.05-13.85,51.67h0c6.13,10.62,42,13.57,51.67,13.84,16.43-.14.31,0,0,0Z"/><text class="cls-4" transform="translate(332.54 88.22) rotate(52.36)">C</text><text class="cls-4" transform="matrix(0.58, 0.82, -0.82, 0.58, 337.22, 94.31)">u</text><text class="cls-4" transform="matrix(0.55, 0.83, -0.83, 0.55, 341.04, 99.71)">s</text><text class="cls-4" transform="matrix(0.53, 0.85, -0.85, 0.53, 343.81, 103.92)">t</text><text class="cls-4" transform="translate(345.8 107.13) rotate(59.07)">o</text><text class="cls-4" transform="translate(348.97 112.38) rotate(62.14)">m</text><text class="cls-4" transform="translate(353.53 121.12) rotate(64.61)">e</text><text class="cls-4" transform="matrix(0.4, 0.92, -0.92, 0.4, 355.86, 126.02)">r</text><text class="cls-4" transform="matrix(0.38, 0.93, -0.93, 0.38, 357.91, 130.68)">s</text><text class="cls-5" transform="translate(274.56 87.65) rotate(60)"><tspan class="cls-23">I</tspan><tspan x="2.31" y="0">de</tspan><tspan class="cls-6" x="14.29" y="0">n</tspan><tspan x="20" y="0">tif</tspan><tspan class="cls-17" x="28.45" y="0">y</tspan><tspan x="33.58" y="0" xml:space="preserve"> p</tspan><tspan class="cls-16" x="42.27" y="0">r</tspan><tspan class="cls-19" x="45.42" y="0">o</tspan><tspan x="51.26" y="0">fitable g</tspan><tspan class="cls-16" x="87.9" y="0">r</tspan><tspan class="cls-20" x="91.05" y="0">o</tspan><tspan x="96.78" y="0">wth </tspan><tspan x="25.16" y="12">p</tspan><tspan class="cls-11" x="31.28" y="12">o</tspan><tspan class="cls-13" x="37.13" y="12">t</tspan><tspan x="40.2" y="12">e</tspan><tspan class="cls-6" x="46.03" y="12">n</tspan><tspan x="51.74" y="12">tia</tspan><tspan class="cls-21" x="62.38" y="12">l</tspan><tspan x="64.66" y="12" xml:space="preserve"> f</tspan><tspan class="cls-16" x="70.41" y="12">r</tspan><tspan x="73.56" y="12">om</tspan><tspan x="16.7" y="24">cus</tspan><tspan class="cls-13" x="32.83" y="24">t</tspan><tspan x="35.9" y="24">ome</tspan><tspan class="cls-22" x="56.8" y="24">r</tspan><tspan x="59.97" y="24" xml:space="preserve"> insig</tspan><tspan class="cls-6" x="83.37" y="24">h</tspan><tspan x="89.08" y="24">ts</tspan></text></g><g id="tech-g"><path id="tech" class="cls-2" d="M63,296.55l6.76-25.24-25.26-6.77h0a164,164,0,0,1-13.67-64.74L0,200A195.4,195.4,0,0,0,96.63,367.43l15.6-26.63A165.45,165.45,0,0,1,63,296.55Z"/><path id="tech-2" data-name="tech" class="cls-3" d="M30.82,199.82a163.46,163.46,0,0,0,13.73,64.72l25.25,6.77L63,296.56a163.49,163.49,0,0,0,49.19,44.25l44.54-76c-.14.24-8.32,14.13,0,0,4.6-8.5,20-41,13.84-51.66h0c-6.13-10.62-42-13.58-51.66-13.85-16.43.14-.31,0,0,0Z"/><text class="cls-4" transform="matrix(0.38, 0.93, -0.93, 0.38, 25.33, 263.71)">T</text><text class="cls-4" transform="translate(27.9 270.05) rotate(66.08)">e</text><text class="cls-4" transform="translate(30.13 275.09) rotate(64.37)">c</text><text class="cls-4" transform="matrix(0.46, 0.89, -0.89, 0.46, 32.46, 279.95)">h</text><text class="cls-4" transform="matrix(0.49, 0.87, -0.87, 0.49, 35.55, 285.83)">n</text><text class="cls-4" transform="matrix(0.52, 0.85, -0.85, 0.52, 38.93, 291.84)">o</text><text class="cls-4" transform="matrix(0.55, 0.84, -0.84, 0.55, 42.11, 296.98)">l</text><text class="cls-4" transform="matrix(0.57, 0.82, -0.82, 0.57, 43.89, 299.75)">o</text><text class="cls-4" transform="translate(47.37 304.82) rotate(53.6)">g</text><text class="cls-4" transform="matrix(0.62, 0.79, -0.79, 0.62, 50.85, 309.54)">y</text><text class="cls-5" transform="translate(80.36 213.54) rotate(60)">Deli<tspan class="cls-10" x="17.62" y="0">v</tspan><tspan x="22.72" y="0">e</tspan><tspan class="cls-14" x="28.55" y="0">r</tspan><tspan x="31.72" y="0"> </tspan><tspan class="cls-20" x="34.29" y="0">e</tspan><tspan x="39.93" y="0">xperien</tspan><tspan class="cls-6" x="73.91" y="0">c</tspan><tspan x="79.31" y="0">es </tspan><tspan x="8.34" y="12">using the p</tspan><tspan class="cls-20" x="59.02" y="12">ow</tspan><tspan x="72.62" y="12">e</tspan><tspan class="cls-22" x="78.45" y="12">r</tspan><tspan class="cls-19" x="13.51" y="24">o</tspan><tspan class="cls-8" x="19.35" y="24">f</tspan><tspan x="22.32" y="24"> </tspan><tspan class="cls-13" x="24.89" y="24">t</tspan><tspan x="27.96" y="24">echnolog</tspan><tspan class="cls-17" x="71.31" y="24">y</tspan></text></g></g></svg>