<svg id="Lag_1" data-name="Lag 1" xmlns="http://www.w3.org/2000/svg" xmlns:xlink="http://www.w3.org/1999/xlink" viewBox="0 0 392.23 390.95"><defs><style>.cls-1{fill:none;}.cls-2{clip-path:url(#clip-path);}.cls-3{fill:#d9d9d9;}.cls-4{fill:#ececec;}.cls-5{font-size:11px;}.cls-10,.cls-11,.cls-12,.cls-13,.cls-14,.cls-15,.cls-16,.cls-17,.cls-18,.cls-19,.cls-20,.cls-21,.cls-22,.cls-23,.cls-24,.cls-25,.cls-26,.cls-27,.cls-28,.cls-29,.cls-30,.cls-31,.cls-32,.cls-33,.cls-34,.cls-35,.cls-36,.cls-37,.cls-38,.cls-39,.cls-40,.cls-41,.cls-42,.cls-43,.cls-44,.cls-45,.cls-46,.cls-47,.cls-48,.cls-49,.cls-5,.cls-50,.cls-51,.cls-52,.cls-53,.cls-54,.cls-55,.cls-56,.cls-57,.cls-58,.cls-59,.cls-6,.cls-60,.cls-7,.cls-8,.cls-9{fill:#010101;font-family:PlayfairDisplay-Bold, Playfair Display;font-weight:700;}.cls-6{font-size:11px;}.cls-7{font-size:11px;}.cls-8{font-size:11px;}.cls-9{font-size:11px;}.cls-10{font-size:11px;}.cls-11{font-size:11px;}.cls-12{font-size:11px;}.cls-13{font-size:11px;}.cls-14{font-size:11px;}.cls-15{font-size:11px;}.cls-16{font-size:11px;}.cls-17{font-size:11px;}.cls-18{font-size:11px;}.cls-19{font-size:11px;}.cls-20{font-size:11px;}.cls-21{font-size:11px;}.cls-22{font-size:11px;}.cls-23{font-size:11px;}.cls-24{font-size:11px;}.cls-25{font-size:11px;}.cls-26{font-size:11px;}.cls-27{font-size:11px;}.cls-28{font-size:11px;}.cls-29{font-size:11px;}.cls-30{font-size:11px;}.cls-31{font-size:11px;}.cls-32{font-size:11px;}.cls-33{font-size:11px;}.cls-34{font-size:11px;}.cls-35{font-size:11px;}.cls-36{font-size:11px;}.cls-37{font-size:11px;}.cls-38{font-size:11px;}.cls-39{font-size:11px;}.cls-40{font-size:11px;}.cls-41{font-size:11px;}.cls-42{font-size:11px;}.cls-43{font-size:11px;}.cls-44{font-size:11px;}.cls-45{font-size:11px;}.cls-46{font-size:11px;}.cls-47{font-size:11px;}.cls-48{font-size:11px;}.cls-49{font-size:11px;}.cls-50{font-size:11px;}.cls-51{font-size:11px;}.cls-52{font-size:11px;}.cls-53{font-size:11px;}.cls-54{font-size:11px;}.cls-55{font-size:11px;}.cls-56{font-size:11px;}.cls-57{font-size:11px;}.cls-58{font-size:11px;}.cls-59{font-size:11px;}.cls-60{font-size:11px;}.cls-61{font-size:10px;}.cls-61,.cls-71{fill:#1d1d1b;font-family:Raleway-Light, Raleway;font-weight:300;}.cls-62{letter-spacing:0em;}.cls-63{letter-spacing:-0.02em;}.cls-64{letter-spacing:-0.02em;}.cls-65{letter-spacing:-0.01em;}.cls-66{letter-spacing:-0.01em;}.cls-67{letter-spacing:0em;}.cls-68{letter-spacing:0em;}.cls-69{letter-spacing:-0.01em;}.cls-70{letter-spacing:-0.02em;}.cls-71{font-size:10px;}.cls-72{letter-spacing:-0.11em;}.cls-73{letter-spacing:-0.01em;}.cls-74{letter-spacing:-0.03em;}.cls-75{letter-spacing:-0.03em;}.cls-76{letter-spacing:-0.01em;}.cls-77{letter-spacing:-0.01em;}.cls-78{letter-spacing:-0.01em;}.cls-79{letter-spacing:-0.02em;}.cls-80{letter-spacing:-0.03em;}.cls-81{letter-spacing:-0.02em;}.cls-82{letter-spacing:-0.01em;}.cls-83{letter-spacing:-0.02em;}.cls-84{letter-spacing:-0.01em;}.cls-85{letter-spacing:-0.02em;}.cls-86{letter-spacing:0em;}.cls-87{letter-spacing:0em;}.cls-88{letter-spacing:0em;}.cls-89{letter-spacing:-0.02em;}.cls-90{letter-spacing:-0.03em;}.cls-91{letter-spacing:0em;}.cls-92{letter-spacing:-0.02em;}.cls-93{letter-spacing:-0.01em;}</style><clipPath id="clip-path"><rect class="cls-1" x="-224.17" y="-102.53" width="841.89" height="595.28"/></clipPath></defs><title>principles-model</title><g class="cls-2"><g class="cls-2"><path id="goals" class="cls-3" d="M196.77,0a194.59,194.59,0,0,0-96.66,25.54l15.26,26.83A163.38,163.38,0,0,1,178.29,31.9l18.48,18.48L215.26,31.9a163.38,163.38,0,0,1,62.92,20.47l15.26-26.83A194.6,194.6,0,0,0,196.77,0"/><path id="data" class="cls-3" d="M278.18,338.58a163.48,163.48,0,0,1-62.93,20.47l-18.48-18.47L178.3,359.05a163.48,163.48,0,0,1-62.93-20.47l-15.26,26.83a195.7,195.7,0,0,0,193.33,0Z"/><path id="people" class="cls-3" d="M113.55,53.43,97.94,26.8A195.39,195.39,0,0,0,1.32,194.22l30.85.2a164,164,0,0,1,13.68-64.74v0l25.27-6.77L64.35,97.68a165.49,165.49,0,0,1,49.2-44.25"/><path id="concept" class="cls-3" d="M361.38,196.53a164,164,0,0,1-13.68,64.74h0L322.43,268l6.77,25.24A165.61,165.61,0,0,1,280,337.52l15.61,26.63a195.39,195.39,0,0,0,96.62-167.42Z"/><path id="tech" class="cls-3" d="M64.35,293.27,71.12,268l-25.27-6.77h0a164,164,0,0,1-13.68-64.74l-30.85.2A195.39,195.39,0,0,0,97.94,364.15l15.61-26.63a165.61,165.61,0,0,1-49.2-44.25"/><path id="customers" class="cls-3" d="M295.61,26.8,280,53.43a165.49,165.49,0,0,1,49.2,44.25l-6.77,25.25,25.27,6.77v0a164,164,0,0,1,13.68,64.74l30.85-.2A195.39,195.39,0,0,0,295.61,26.8"/><path class="cls-4" d="M158.94,129v0Z"/><path id="goals-2" data-name="goals" class="cls-4" d="M278.18,52.37A163.43,163.43,0,0,0,215.26,31.9L196.77,50.38,178.29,31.9a163.38,163.38,0,0,0-62.92,20.47L158.93,129c-.13-.24-8.07-14.27,0,0,5.07,8.23,25.56,37.82,37.82,37.82h0c12.26,0,32.75-29.59,37.81-37.82,8.1-14.29.16-.26,0,0Z"/><path id="data-2" data-name="data" class="cls-4" d="M115.37,338.59a163.38,163.38,0,0,0,62.92,20.47l18.48-18.48,18.49,18.48a163.43,163.43,0,0,0,62.92-20.47L234.62,262c.13.23,8.07,14.27,0,0-5.07-8.23-25.56-37.82-37.83-37.82h0C184.51,224.17,164,253.76,159,262c-8.09,14.3-.15.26,0,0Z"/><path id="people-2" data-name="people" class="cls-4" d="M113.54,53.43A163.49,163.49,0,0,0,64.35,97.68l6.77,25.25L45.86,129.7a163.64,163.64,0,0,0-13.73,64.72l88.1.57c-.27,0-16.39-.15,0,0,9.65-.27,45.53-3.22,51.66-13.84h0c6.13-10.62-9.25-43.17-13.84-51.67-8.34-14.16-.15-.27,0,0Z"/><path id="concept-2" data-name="concept" class="cls-4" d="M280,337.53a163.49,163.49,0,0,0,49.19-44.25L322.43,268l25.25-6.77a163.46,163.46,0,0,0,13.73-64.72L273.32,196c.27,0,16.39.14,0,0-9.65.27-45.53,3.23-51.66,13.85h0c-6.13,10.61,9.25,43.16,13.84,51.66,8.34,14.16.15.27,0,0Z"/><path id="customers-2" data-name="customers" class="cls-4" d="M361.42,194.42a163.65,163.65,0,0,0-13.74-64.72l-25.25-6.77,6.77-25.25A163.49,163.49,0,0,0,280,53.43l-44.53,76c.13-.24,8.32-14.13,0,0-4.59,8.5-20,41.05-13.84,51.67h0c6.13,10.62,42,13.57,51.66,13.84,16.43-.14.31,0,0,0Z"/><path id="tech-2" data-name="tech" class="cls-4" d="M32.13,196.54a163.64,163.64,0,0,0,13.73,64.72L71.12,268l-6.77,25.25a163.49,163.49,0,0,0,49.19,44.25l44.53-76c-.13.24-8.32,14.13,0,0,4.59-8.5,20-41.05,13.84-51.66h0c-6.13-10.62-42-13.58-51.66-13.85-16.43.14-.31,0,0,0Z"/></g><text class="cls-5" transform="translate(182.91 20.26) rotate(-3.3)">G</text><text class="cls-6" transform="translate(190.92 19.82) rotate(-1.02)">o</text><text class="cls-7" transform="translate(197.06 19.71) rotate(0.93)">a</text><text class="cls-8" transform="translate(202.72 19.81) rotate(2.31)">l</text><text class="cls-9" transform="translate(206.11 19.94) rotate(3.67)">s</text><text class="cls-10" transform="translate(26.61 153.08) rotate(-74.87)">P</text><text class="cls-11" transform="translate(28.4 146.51) rotate(-72.89)">e</text><text class="cls-12" transform="matrix(0.33, -0.95, 0.95, 0.33, 30, 141.27)">o</text><text class="cls-13" transform="translate(32.01 135.44) rotate(-68.9)">p</text><text class="cls-14" transform="translate(34.39 129.33) rotate(-67.28)">l</text><text class="cls-15" transform="translate(35.63 126.33) rotate(-65.88)">e</text><text class="cls-16" transform="matrix(0.43, -0.9, 0.9, 0.43, 37.89, 121.32)"> </text><text class="cls-17" transform="translate(38.91 119.02) rotate(-62.58)">&amp;</text><text class="cls-18" transform="matrix(0.49, -0.87, 0.87, 0.49, 43.51, 110.32)"> </text><text class="cls-19" transform="matrix(0.51, -0.86, 0.86, 0.51, 44.7, 108.13)">P</text><text class="cls-20" transform="matrix(0.54, -0.84, 0.84, 0.54, 48.3, 102.14)">r</text><text class="cls-7" transform="matrix(0.57, -0.82, 0.82, 0.57, 50.95, 98.01)">o</text><text class="cls-21" transform="translate(54.46 92.94) rotate(-53.51)">c</text><text class="cls-14" transform="translate(57.68 88.59) rotate(-51.74)">e</text><text class="cls-22" transform="translate(61.07 84.28) rotate(-50.02)">s</text><text class="cls-23" transform="matrix(0.66, -0.75, 0.75, 0.66, 64.31, 80.42)">s</text><text class="cls-18" transform="translate(67.65 76.66) rotate(-46.64)">e</text><text class="cls-24" transform="matrix(0.71, -0.71, 0.71, 0.71, 71.42, 72.67)">s</text><text class="cls-25" transform="translate(333.86 84.94) rotate(52.36)">C</text><text class="cls-26" transform="translate(338.54 91.03) rotate(54.68)">u</text><text class="cls-27" transform="matrix(0.55, 0.83, -0.83, 0.55, 342.35, 96.43)">s</text><text class="cls-28" transform="matrix(0.53, 0.85, -0.85, 0.53, 345.12, 100.64)">t</text><text class="cls-29" transform="translate(347.12 103.85) rotate(59.07)">o</text><text class="cls-30" transform="matrix(0.47, 0.88, -0.88, 0.47, 350.29, 109.1)">m</text><text class="cls-31" transform="translate(354.85 117.83) rotate(64.61)">e</text><text class="cls-32" transform="matrix(0.4, 0.92, -0.92, 0.4, 357.18, 122.74)">r</text><text class="cls-33" transform="translate(359.22 127.4) rotate(67.96)">s</text><text class="cls-24" transform="translate(172.38 376.3) rotate(6.41)">D</text><text class="cls-5" transform="translate(180.74 377.22) rotate(4.23)">a</text><text class="cls-34" transform="matrix(1, 0.05, -0.05, 1, 186.37, 377.62)">t</text><text class="cls-35" transform="translate(190.21 377.82) rotate(1.28)">a</text><text class="cls-7" transform="translate(195.88 377.91) rotate(0.93)"> </text><text class="cls-36" transform="translate(198.53 377.99) rotate(-1.93)">&amp;</text><text class="cls-19" transform="translate(208.35 377.6) rotate(-3.84)"> </text><text class="cls-37" transform="translate(210.42 377.5) rotate(-5.23)">A</text><text class="cls-38" transform="translate(217.46 376.83) rotate(-6.95)">I</text><text class="cls-39" transform="matrix(0.77, -0.63, 0.63, 0.77, 309.68, 339.32)">C</text><text class="cls-40" transform="matrix(0.75, -0.66, 0.66, 0.75, 315.76, 334.34)">o</text><text class="cls-41" transform="translate(320.47 330.18) rotate(-43.53)">n</text><text class="cls-42" transform="matrix(0.7, -0.71, 0.71, 0.7, 325.42, 325.46)">c</text><text class="cls-30" transform="translate(329.28 321.53) rotate(-47.25)">e</text><text class="cls-43" transform="matrix(0.65, -0.76, 0.76, 0.65, 333.07, 317.44)">p</text><text class="cls-44" transform="translate(337.35 312.45) rotate(-50.82)">t</text><text class="cls-45" transform="translate(339.76 309.5) rotate(-51.81)"> </text><text class="cls-22" transform="translate(341.35 307.58) rotate(-53.74)">&amp;</text><text class="cls-46" transform="translate(347.12 299.61) rotate(-55.67)"> </text><text class="cls-47" transform="translate(348.56 297.56) rotate(-57.26)">C</text><text class="cls-19" transform="matrix(0.51, -0.86, 0.86, 0.51, 352.7, 291.07)">o</text><text class="cls-48" transform="matrix(0.47, -0.88, 0.88, 0.47, 355.97, 285.64)">m</text><text class="cls-49" transform="translate(360.62 276.93) rotate(-65)">m</text><text class="cls-50" transform="translate(364.76 267.98) rotate(-67.57)">u</text><text class="cls-16" transform="translate(367.3 261.83) rotate(-69.68)">n</text><text class="cls-43" transform="translate(369.63 255.47) rotate(-71.3)">i</text><text class="cls-51" transform="translate(370.75 252.18) rotate(-72.71)">c</text><text class="cls-52" transform="matrix(0.27, -0.96, 0.96, 0.27, 372.39, 246.93)">a</text><text class="cls-53" transform="matrix(0.24, -0.97, 0.97, 0.24, 373.91, 241.4)">t</text><text class="cls-24" transform="translate(374.86 237.59) rotate(-77.19)">i</text><text class="cls-36" transform="matrix(0.2, -0.98, 0.98, 0.2, 375.66, 234.15)">o</text><text class="cls-54" transform="translate(376.9 227.95) rotate(-80.83)">n</text><text class="cls-55" transform="translate(26.67 260.5) rotate(67.92)">T</text><text class="cls-56" transform="translate(29.24 266.83) rotate(66.06)">e</text><text class="cls-57" transform="matrix(0.43, 0.9, -0.9, 0.43, 31.46, 271.84)">c</text><text class="cls-58" transform="translate(33.8 276.74) rotate(62.48)">h</text><text class="cls-29" transform="translate(36.9 282.62) rotate(60.93)">n</text><text class="cls-59" transform="translate(40.27 288.59) rotate(58.39)">o</text><text class="cls-16" transform="translate(43.46 293.76) rotate(56.94)">l</text><text class="cls-20" transform="translate(45.23 296.5) rotate(55.49)">o</text><text class="cls-10" transform="translate(48.72 301.58) rotate(53.6)">g</text><text class="cls-60" transform="matrix(0.62, 0.79, -0.79, 0.62, 52.14, 306.23)">y</text><text class="cls-61" transform="translate(149.35 71.56)">D<tspan class="cls-62" x="7.13" y="0">e</tspan><tspan x="12.91" y="0">ﬁne the objecti</tspan><tspan class="cls-63" x="80" y="0">v</tspan><tspan x="85.1" y="0">es</tspan></text><text class="cls-61" transform="translate(175.89 83.56)">and build </text><text class="cls-61" transform="translate(156.48 95.56)">the business case</text><text class="cls-61" transform="translate(158.68 302.69)"><tspan class="cls-64">L</tspan><tspan class="cls-65" x="5.61" y="0">e</tspan><tspan class="cls-63" x="11.3" y="0">v</tspan><tspan x="16.4" y="0">e</tspan><tspan class="cls-66" x="22.23" y="0">r</tspan><tspan class="cls-67" x="25.58" y="0">age d</tspan><tspan class="cls-68" x="51.62" y="0">a</tspan><tspan x="56.96" y="0">ta </tspan><tspan class="cls-69" x="68.1" y="0">t</tspan><tspan x="71.18" y="0">o </tspan></text><text class="cls-61" transform="translate(146.07 314.69)">deli<tspan class="cls-63" x="16.64" y="0">v</tspan><tspan x="21.74" y="0">e</tspan><tspan class="cls-70" x="27.57" y="0">r</tspan><tspan x="30.74" y="0" xml:space="preserve"> personalis</tspan><tspan class="cls-68" x="80" y="0">a</tspan><tspan x="85.34" y="0">tion </tspan></text><text class="cls-61" transform="translate(179.63 326.69)"><tspan class="cls-68">a</tspan><tspan x="5.34" y="0">t scale</tspan></text><text class="cls-71" transform="matrix(0.5, -0.87, 0.87, 0.5, 77.17, 167.21)"><tspan class="cls-72">T</tspan><tspan class="cls-73" x="4.97" y="0">r</tspan><tspan x="8.32" y="0">ans</tspan><tspan class="cls-74" x="24.26" y="0">f</tspan><tspan x="27.18" y="0">orm</tspan><tspan class="cls-75" x="45.66" y="0"> </tspan><tspan class="cls-76" x="47.96" y="0">wa</tspan><tspan class="cls-77" x="61.15" y="0">y</tspan><tspan x="66.44" y="0">s</tspan></text><text class="cls-71" transform="matrix(0.5, -0.87, 0.87, 0.5, 93.49, 162.94)"><tspan class="cls-78">o</tspan><tspan class="cls-79" x="5.85" y="0">f</tspan><tspan class="cls-80" x="8.83" y="0"> </tspan><tspan class="cls-81" x="11.14" y="0">w</tspan><tspan x="19.02" y="0">orking</tspan></text><text class="cls-71" transform="matrix(0.5, -0.87, 0.87, 0.5, 271.45, 280.96)">D<tspan class="cls-82" x="7.13" y="0">e</tspan><tspan class="cls-83" x="12.82" y="0">v</tspan><tspan x="17.92" y="0">elop original</tspan></text><text class="cls-71" transform="matrix(0.5, -0.87, 0.87, 0.5, 284.58, 282.23)">and engaging </text><text class="cls-71" transform="matrix(0.5, -0.87, 0.87, 0.5, 285.35, 304.9)">cus<tspan class="cls-84" x="16.13" y="0">t</tspan><tspan x="19.21" y="0">ome</tspan><tspan class="cls-85" x="40.11" y="0">r</tspan><tspan x="43.29" y="0"> </tspan><tspan class="cls-81" x="45.86" y="0">e</tspan><tspan class="cls-86" x="51.51" y="0">xperien</tspan><tspan class="cls-87" x="85.49" y="0">c</tspan><tspan x="90.89" y="0">es</tspan></text><text class="cls-71" transform="matrix(0.5, 0.87, -0.87, 0.5, 275.88, 84.37)"><tspan class="cls-87">I</tspan><tspan class="cls-86" x="2.32" y="0">de</tspan><tspan class="cls-88" x="14.3" y="0">n</tspan><tspan x="20.02" y="0">tif</tspan><tspan class="cls-80" x="28.47" y="0">y</tspan><tspan x="33.61" y="0" xml:space="preserve"> p</tspan><tspan class="cls-74" x="42.3" y="0">r</tspan><tspan class="cls-78" x="45.45" y="0">o</tspan><tspan x="51.3" y="0">ﬁtable g</tspan><tspan class="cls-89" x="87.94" y="0">r</tspan><tspan class="cls-81" x="91.1" y="0">o</tspan><tspan x="96.84" y="0">wth </tspan></text><text class="cls-71" transform="matrix(0.5, 0.87, -0.87, 0.5, 278.06, 112.16)">p<tspan class="cls-78" x="6.12" y="0">o</tspan><tspan class="cls-84" x="11.97" y="0">t</tspan><tspan x="15.05" y="0">e</tspan><tspan class="cls-88" x="20.88" y="0">n</tspan><tspan x="26.6" y="0">tia</tspan><tspan class="cls-90" x="37.24" y="0">l</tspan><tspan x="39.53" y="0" xml:space="preserve"> f</tspan><tspan class="cls-89" x="45.28" y="0">r</tspan><tspan x="48.44" y="0">om</tspan></text><text class="cls-71" transform="matrix(0.5, 0.87, -0.87, 0.5, 263.44, 110.83)">cus<tspan class="cls-84" x="16.13" y="0">t</tspan><tspan x="19.21" y="0">ome</tspan><tspan class="cls-85" x="40.11" y="0">r</tspan><tspan x="43.29" y="0" xml:space="preserve"> insig</tspan><tspan class="cls-91" x="66.69" y="0">h</tspan><tspan class="cls-86" x="72.41" y="0">ts</tspan></text><text class="cls-71" transform="matrix(0.5, 0.87, -0.87, 0.5, 81.67, 210.26)">Deli<tspan class="cls-83" x="17.62" y="0">v</tspan><tspan x="22.72" y="0">e</tspan><tspan class="cls-92" x="28.55" y="0">r</tspan><tspan class="cls-86" x="31.72" y="0"> </tspan><tspan class="cls-81" x="34.29" y="0">e</tspan><tspan x="39.94" y="0">xperien</tspan><tspan class="cls-93" x="73.92" y="0">c</tspan><tspan x="79.32" y="0">es </tspan></text><text class="cls-71" transform="matrix(0.5, 0.87, -0.87, 0.5, 75.45, 223.48)">using the p<tspan class="cls-81" x="50.68" y="0">ow</tspan><tspan x="64.3" y="0">er</tspan></text><text class="cls-71" transform="matrix(0.5, 0.87, -0.87, 0.5, 67.65, 233.97)"><tspan class="cls-78">o</tspan><tspan class="cls-79" x="5.85" y="0">f</tspan><tspan class="cls-86" x="8.83" y="0"> </tspan><tspan class="cls-84" x="11.4" y="0">t</tspan><tspan x="14.48" y="0">echnology</tspan></text></g></svg>