<svg id="Lag_1" data-name="Lag 1" xmlns="http://www.w3.org/2000/svg" viewBox="0 0 331.84 53.3"><defs><style>.cls-1{fill:#fff;}</style></defs><title>responsive-white</title><polygon class="cls-1" points="54.98 7.63 48.19 7.63 48.19 14.42 55.45 14.42 55.45 16.94 48.19 16.94 48.19 24.68 55.45 24.68 56.08 21.52 58.14 21.52 58.14 27.21 42.18 27.21 42.18 25.31 44.87 24.68 44.87 7.63 42.18 6.99 42.18 5.26 48.18 5.1 57.82 5.1 57.82 10.47 55.76 10.47 54.98 7.63"/><path class="cls-1" d="M79.51,20.73l.63,3.32a6.09,6.09,0,0,0,1.55.55,7.85,7.85,0,0,0,1.93.24,7.07,7.07,0,0,0,1.83-.24A5.23,5.23,0,0,0,87,23.92a3.66,3.66,0,0,0,1.06-1.05,2.59,2.59,0,0,0,.39-1.41,2.3,2.3,0,0,0-.51-1.53,4.56,4.56,0,0,0-1.31-1.08,10.83,10.83,0,0,0-1.81-.8l-2.06-.72c-.73-.32-1.44-.64-2.13-1a7.61,7.61,0,0,1-1.83-1.2,5.16,5.16,0,0,1-1.28-1.72,6.59,6.59,0,0,1,.14-5.24A5.77,5.77,0,0,1,79.3,6.27a7.22,7.22,0,0,1,2.4-1.12,11.33,11.33,0,0,1,2.89-.36,12.29,12.29,0,0,1,1.49.09c.53.07,1,.15,1.55.24s1,.2,1.42.32l1.13.3,1,.31L91,11.42H89L87.91,8a11.7,11.7,0,0,0-1.75-.41,13.35,13.35,0,0,0-1.79-.13,5.85,5.85,0,0,0-1.66.24,4.08,4.08,0,0,0-1.26.65,2.94,2.94,0,0,0-.8.92,2,2,0,0,0-.29,1,2.7,2.7,0,0,0,.89,2.08,7.65,7.65,0,0,0,2.11,1.3c.84.36,1.75.69,2.73,1a14.62,14.62,0,0,1,2.72,1.18,6.62,6.62,0,0,1,2.09,1.85,4.91,4.91,0,0,1,.83,3,6.37,6.37,0,0,1-.63,2.91,6.19,6.19,0,0,1-1.74,2.13,8,8,0,0,1-2.62,1.33,11.19,11.19,0,0,1-3.25.45,12.58,12.58,0,0,1-1.5-.09c-.54-.06-1.07-.14-1.58-.24s-1-.2-1.44-.31-.81-.23-1.11-.33L77,26.27V20.74Z"/><path class="cls-1" d="M142.56,16.41a15.3,15.3,0,0,1,.71-4.8,10.39,10.39,0,0,1,2.07-3.68,9.07,9.07,0,0,1,3.24-2.34,11.38,11.38,0,0,1,8.32,0A8.52,8.52,0,0,1,160,7.79a9.82,9.82,0,0,1,2,3.5,15,15,0,0,1,.66,4.61,13.9,13.9,0,0,1-.76,4.7,10.86,10.86,0,0,1-2.13,3.66,9.91,9.91,0,0,1-3.3,2.4,10.3,10.3,0,0,1-4.27.87A8.89,8.89,0,0,1,145,24.65q-2.47-2.87-2.48-8.24m10.11-8.94q-6.48,0-6.48,8.68t6.16,8.69a5.85,5.85,0,0,0,4.9-2.21Q159,20.43,159,16q0-8.53-6.32-8.53"/><polygon class="cls-1" points="195.08 27.21 184.65 9.8 184.65 24.68 187.65 25.32 187.65 27.22 179.13 27.22 179.13 25.32 181.81 24.68 181.81 7.63 179.13 6.99 179.13 5.26 185.76 5.1 196.18 22.76 196.18 7.63 193.5 6.99 193.5 5.26 201.71 5.1 201.71 7 199.03 7.63 199.03 27.21 195.08 27.21"/><path class="cls-1" d="M222,20.73l.63,3.32a6.09,6.09,0,0,0,1.55.55,7.77,7.77,0,0,0,1.92.24A7.15,7.15,0,0,0,228,24.6a5.06,5.06,0,0,0,1.54-.68,3.43,3.43,0,0,0,1.06-1.05,2.51,2.51,0,0,0,.4-1.41,2.35,2.35,0,0,0-.5-1.53,4.85,4.85,0,0,0-1.31-1.08,10.93,10.93,0,0,0-1.82-.8l-2.05-.72c-.74-.32-1.45-.64-2.14-1a7.61,7.61,0,0,1-1.83-1.2A5.16,5.16,0,0,1,220,13.44a6.59,6.59,0,0,1,.14-5.24,5.68,5.68,0,0,1,1.65-1.93,7,7,0,0,1,2.4-1.12,11.22,11.22,0,0,1,2.89-.36,12.25,12.25,0,0,1,1.48.09c.53.07,1,.15,1.55.24s1,.2,1.42.32l1.14.3,1,.31-.16,5.37H231.5L230.42,8a11.7,11.7,0,0,0-1.75-.41,13.32,13.32,0,0,0-1.78-.13,5.75,5.75,0,0,0-1.66.24,4,4,0,0,0-1.27.65,3.08,3.08,0,0,0-.8.92,2.09,2.09,0,0,0-.29,1,2.73,2.73,0,0,0,.89,2.08,7.65,7.65,0,0,0,2.11,1.3c.85.36,1.76.69,2.74,1a14.82,14.82,0,0,1,2.71,1.18,6.62,6.62,0,0,1,2.09,1.85,5,5,0,0,1,.84,3,6.37,6.37,0,0,1-.64,2.91,6.16,6.16,0,0,1-1.73,2.13,8.21,8.21,0,0,1-2.62,1.33,11.26,11.26,0,0,1-3.26.45,12.58,12.58,0,0,1-1.5-.09c-.54-.06-1.06-.14-1.58-.24s-1-.2-1.44-.31-.81-.23-1.1-.33l-.88-.32V20.74Z"/><polygon class="cls-1" points="260.86 25.32 260.86 27.22 252.17 27.22 252.17 25.32 254.85 24.68 254.85 7.63 252.17 6.99 252.17 5.26 260.86 5.1 260.86 7 258.17 7.63 258.17 24.68 260.86 25.32"/><polygon class="cls-1" points="286.18 27.21 279.45 7.63 277.02 6.99 277.02 5.26 285.86 5.1 285.86 7 282.99 7.6 287.95 22.95 293.22 7.63 290.29 7 290.29 5.26 298.81 5.1 298.81 7 296.35 7.63 289.34 27.22 286.18 27.21"/><polygon class="cls-1" points="325.4 7.63 318.61 7.63 318.61 14.42 325.87 14.42 325.87 16.94 318.61 16.94 318.61 24.68 325.87 24.68 326.5 21.52 328.56 21.52 328.56 27.21 312.61 27.21 312.61 25.31 315.29 24.68 315.29 7.63 312.61 6.99 312.61 5.26 318.61 5.1 328.24 5.1 328.24 10.47 326.19 10.47 325.4 7.63"/><path class="cls-1" d="M15.58,7.77a3.64,3.64,0,0,1,3.92,3.77c0,.94-.43,3.76-4.86,3.76H12.29V10.88L9,10.15V24.71l-2.67.62v1.89H15v-1.9l-2.67-.63v-7h1c3.3,0,4,2.34,4.8,4L20.6,27.2h4.71V25.32l-2.24-.5c-.16.11-3.36-7.5-4.36-7.8a5.77,5.77,0,0,0,4.08-5.48c0-5-4.67-6.28-7.06-6.28H6.33V6.44l6,1.33Z"/><path class="cls-1" d="M117.71,19a10.42,10.42,0,0,0,6.3-1.9,7.31,7.31,0,0,0,2.23-5.53,6.17,6.17,0,0,0-1.87-4.73A8.16,8.16,0,0,0,119,5.1l-9.32,0V7h0l1.46.35h.09l1.14.26V13.3h0V24.68l-2.68.64v1.9h8.68v-1.9l-2.68-.64V19Zm4.15-10.14a4.68,4.68,0,0,1,1.07,3.19q0,4.43-5.21,4.42h-2V7.63h3.16a3.87,3.87,0,0,1,3,1.23"/><rect class="cls-1" x="6.33" y="49.18" width="183.88" height="1"/></svg>